#N canvas 656 302 608 338 10;
#X obj -1 -121 olr \$1 inlet outlet-x outlet-y mouse settings custom
;
#X obj -35 -93 list split 1;
#X obj -1 -65 ols \$1 inlet outlet-x outlet-y mouse settings cutsom
;
#X obj 361 -103 presets \$1 :x :y :d :m;
#X obj 47 12 bng 15 250 50 0 empty empty empty 17 7 0 10 -262144 -1
-1;
#X obj 297 66 ctx inlet~;
#X obj 305 118 ctx outlet~;
#X obj 69 7 bng 15 250 50 0 empty empty empty 17 7 0 10 -262144 -1
-1;
#X connect 0 0 1 0;
#X connect 0 1 2 1;
#X connect 0 2 2 2;
#X connect 0 3 2 3;
#X connect 0 4 2 4;
#X connect 1 1 2 0;
#X connect 4 0 7 0;
#X connect 5 0 6 0;
#X coords 0 -1 1 1 108 36 2 0 0;
