#N canvas 362 186 450 398 10;
#X obj 105 23 inlet;
#X obj 277 92 list split 1;
#N canvas 791 294 450 300 patch 0;
#X obj 100 67 inlet;
#X obj 100 137 outlet;
#X obj 274 30 inlet;
#X obj 274 52 iemguts/sendcanvas;
#X connect 2 0 3 0;
#X restore 263 270 pd patch;
#X msg 277 116 obj 100 100 \$1;
#X obj 214 68 t b a b b a;
#X msg 261 139 connect 0 0 4 0;
#X msg 245 164 connect 4 0 1 0;
#X obj 263 239 list prepend;
#X obj 263 296 t f f;
#X obj 263 324 outlet;
#X msg 214 213 delete 4;
#X obj 54 216 iemguts/canvasdelete;
#X obj 229 188 list split 1;
#X obj 332 211 inlet;
#X obj 105 45 route float bang;
#X connect 0 0 14 0;
#X connect 1 0 3 0;
#X connect 2 0 8 0;
#X connect 3 0 2 1;
#X connect 4 0 10 0;
#X connect 4 1 12 0;
#X connect 4 2 6 0;
#X connect 4 3 5 0;
#X connect 4 4 1 0;
#X connect 5 0 2 1;
#X connect 6 0 2 1;
#X connect 7 0 2 0;
#X connect 8 0 9 0;
#X connect 8 1 7 1;
#X connect 10 0 2 1;
#X connect 12 1 7 0;
#X connect 13 0 7 1;
#X connect 14 0 8 0;
#X connect 14 2 4 0;
