#N canvas 359 190 450 398 10;
#X obj 105 23 inlet;
#X obj 254 281 outlet;
#X obj 295 51 inlet;
#X obj 105 45 route float bang;
#X obj 198 71 route + - * /;
#X obj 198 93 +;
#X obj 216 118 -;
#X obj 235 146 *;
#X obj 254 179 /;
#X obj 295 75 t f f f f;
#X obj 254 254 t f f;
#X connect 0 0 3 0;
#X connect 2 0 9 0;
#X connect 3 0 10 0;
#X connect 3 2 4 0;
#X connect 4 0 5 0;
#X connect 4 1 6 0;
#X connect 4 2 7 0;
#X connect 4 3 8 0;
#X connect 5 0 10 0;
#X connect 6 0 10 0;
#X connect 7 0 10 0;
#X connect 8 0 10 0;
#X connect 9 0 5 1;
#X connect 9 1 6 1;
#X connect 9 2 7 1;
#X connect 9 3 8 1;
#X connect 10 0 1 0;
#X connect 10 1 9 0;
