#N canvas 218 290 450 300 10;
#X obj 153 85 inlet;
#X obj 224 85 inlet;
#X obj 169 145 outlet;
#X obj 280 25 r \$1-xym;
#X obj 280 71 symbol \$1-\$2;
#X obj 310 94 symbol \$1-\$3;
#X obj 280 47 sel 0 1;
#X obj 169 116 array get \$1-\$2 0 1;
#X connect 0 0 7 0;
#X connect 1 0 7 1;
#X connect 3 0 6 0;
#X connect 4 0 7 2;
#X connect 5 0 7 2;
#X connect 6 0 4 0;
#X connect 6 1 5 0;
#X connect 7 0 2 0;
