#N canvas 469 90 709 671 10;
#X obj 302 211 inlet;
#X obj 520 169 text define \$1-\$2-st;
#X obj 293 574 text fromlist \$1-\$2-st;
#X obj 158 626 text set \$1-\$2-st;
#X obj 124 601 list split 1;
#X obj 151 578 - 1;
#X obj 359 130 receive \$1-\$3ibang;
#X obj 520 124 receive \$1-\$2e;
#X msg 520 146 click;
#X msg 345 212 list this is a message \\\; this is another 1 ... \\\;
;
#X obj 364 306 cyclone/iter;
#X obj 364 351 sel \;;
#X obj 364 328 t a a;
#X obj 293 526 ctxfiles/ex01;
#X obj 359 150 receive \$1-\$3incr;
#X obj 364 373 f;
#X obj 364 396 + 1;
#X obj 368 458 -;
#X obj 339 373 f;
#X obj 376 285 t f;
#X obj 368 480 until;
#X obj 422 517 symbol \;;
#X obj 293 418 !=;
#X obj 266 440 demux;
#X floatatom 36 311 5 0 0 0 - - -, f 5;
#X obj 36 330 !=;
#X floatatom 36 352 5 0 0 0 - - -, f 5;
#X obj 293 548 spigot;
#X obj 124 490 t a a;
#X obj 151 514 list split 1;
#X obj 151 536 route float;
#X obj 214 558 t b;
#X obj 214 580 t f;
#X obj 364 418 t f f f;
#X obj 345 234 t a a b;
#X obj 293 462 t b b;
#X connect 0 0 34 0;
#X connect 4 1 3 0;
#X connect 5 0 3 1;
#X connect 6 0 3 0;
#X connect 7 0 8 0;
#X connect 8 0 1 0;
#X connect 9 0 34 0;
#X connect 10 0 12 0;
#X connect 11 0 15 0;
#X connect 12 0 11 0;
#X connect 12 1 13 1;
#X connect 13 0 27 0;
#X connect 14 0 3 1;
#X connect 14 0 18 1;
#X connect 15 0 16 0;
#X connect 16 0 33 0;
#X connect 17 0 20 0;
#X connect 18 0 17 0;
#X connect 19 0 15 1;
#X connect 20 0 3 0;
#X connect 21 0 13 1;
#X connect 22 0 23 1;
#X connect 22 0 27 1;
#X connect 23 0 28 0;
#X connect 23 1 35 0;
#X connect 24 0 25 0;
#X connect 25 0 26 0;
#X connect 27 0 2 0;
#X connect 28 0 4 0;
#X connect 28 1 29 0;
#X connect 29 0 30 0;
#X connect 30 0 5 0;
#X connect 30 1 31 0;
#X connect 31 0 32 0;
#X connect 32 0 3 1;
#X connect 33 0 22 0;
#X connect 33 1 17 1;
#X connect 33 2 15 1;
#X connect 34 0 23 0;
#X connect 34 1 10 0;
#X connect 34 2 19 0;
#X connect 35 0 18 0;
#X connect 35 1 13 0;
