#N canvas 455 93 553 687 10;
#X obj 255 47 inlet;
#X obj 368 238 text define \$1-\$2-st;
#X obj 207 511 text set \$1-\$2-st;
#X obj 173 456 list split 1;
#X obj 193 433 - 1;
#X obj 158 480 receive \$1-\$3ibang;
#X obj 368 193 receive \$1-\$2e;
#X msg 368 215 click;
#X msg 66 25 list this is a message \\\; this is another 1 ... \\\;
;
#X obj 274 120 cyclone/iter;
#X obj 274 143 sel \;;
#X obj 145 254 receive \$1-\$3incr;
#X obj 274 165 f;
#X obj 274 188 + 1;
#X obj 301 369 -;
#X obj 301 324 f;
#X obj 301 391 until;
#X obj 282 232 !=;
#X obj 255 254 demux;
#X obj 193 369 list split 1;
#X obj 193 391 route float;
#X obj 256 413 t b;
#X obj 256 435 t f;
#X obj 274 210 t f f f;
#X obj 325 324 text fromlist \$1-\$2-st;
#X obj 321 298 list;
#X obj 301 346 t f f;
#X obj 282 276 t a b a;
#X obj 255 74 t a a b;
#X obj 154 345 t b a a;
#X obj 386 456 text tolist \$1-\$2-st;
#X obj 381 492 cyclone/zl rev;
#X obj 381 518 route \;;
#X obj 354 518 t a;
#X obj 414 563 cyclone/zl rev;
#X obj 414 607 s \$1-\$4;
#X obj 414 541 list append ';
#X obj 414 585 list append ';
#X obj 399 424 receive \$1-mess\$4;
#X obj 466 391 print mess\$4;
#X connect 0 0 28 0;
#X connect 3 1 2 0;
#X connect 4 0 2 1;
#X connect 5 0 2 0;
#X connect 6 0 7 0;
#X connect 7 0 1 0;
#X connect 8 0 28 0;
#X connect 9 0 10 0;
#X connect 10 0 12 0;
#X connect 11 0 15 1;
#X connect 11 0 2 1;
#X connect 12 0 13 0;
#X connect 13 0 23 0;
#X connect 14 0 16 0;
#X connect 15 0 26 0;
#X connect 16 0 2 0;
#X connect 17 0 18 1;
#X connect 18 0 29 0;
#X connect 18 1 27 0;
#X connect 19 0 20 0;
#X connect 20 0 4 0;
#X connect 20 1 21 0;
#X connect 21 0 22 0;
#X connect 22 0 2 1;
#X connect 23 0 17 0;
#X connect 23 1 14 1;
#X connect 23 2 12 1;
#X connect 25 0 24 0;
#X connect 26 0 14 0;
#X connect 26 1 2 1;
#X connect 27 0 31 0;
#X connect 27 1 15 0;
#X connect 27 2 25 0;
#X connect 28 0 18 0;
#X connect 28 1 9 0;
#X connect 28 2 23 0;
#X connect 29 0 30 0;
#X connect 29 1 3 0;
#X connect 29 2 19 0;
#X connect 30 0 31 0;
#X connect 31 0 32 0;
#X connect 32 0 33 0;
#X connect 32 1 36 0;
#X connect 33 0 32 0;
#X connect 34 0 37 0;
#X connect 36 0 34 0;
#X connect 37 0 35 0;
#X connect 38 0 30 0;
#X connect 38 0 39 0;
