#N canvas 409 210 721 473 10;
#X obj 322 186 iemguts/canvasargs;
#X obj 322 162 loadbang;
#X obj 342 407 s \$0-labr;
#X obj 424 423 iemguts/sendcanvas;
#X obj 221 438 s \$1-\$2;
#X obj 322 210 list split 3;
#X obj 104 101 hsl 79 16 0 127 0 0 \$0-labs \$0-labr \$4 1 6 0 10 -262134
-262134 -1 0 1;
#X obj 156 194 t b b;
#X obj 42 327 demux;
#X obj 42 259 t b a;
#X obj 156 171 sp01 1;
#X msg 425 402 donecanvasdialog 0 -1 2 0 -1 1 1 \$1 15 100 100 \, dirty
0;
#X obj 356 233 list fromsymbol;
#X obj 356 255 list length;
#X obj 356 278 * 6;
#X text 234 34 arguments: \$0 \, send \, recieve \, label;
#X obj 404 334 + 5;
#X msg 346 361 size \$1 13;
#X obj 346 333 - 2;
#X msg 191 265 1;
#X obj 156 265 t b f;
#X obj 156 219 t b b b b;
#X obj 156 241 del 100;
#X obj 42 305 list 11 -1.65798e+007;
#X msg 42 356 color \$1 \$1 \$2;
#X msg 70 386 color \$2 \$2 \$2;
#X obj 539 192 ./config;
#X msg 539 240 pos 104 101;
#X msg 584 218 pos 101 101;
#X obj 54 167 receive \$1-\$3;
#X obj 156 146 receive \$0-labs;
#X obj 42 237 receive \$1-bbcol;
#X obj 206 171 receive \$1-mup;
#X connect 0 0 5 0;
#X connect 1 0 0 0;
#X connect 1 0 26 0;
#X connect 5 1 12 0;
#X connect 7 0 21 0;
#X connect 7 1 10 1;
#X connect 8 0 24 0;
#X connect 8 1 25 0;
#X connect 9 0 23 0;
#X connect 9 1 23 1;
#X connect 10 0 7 0;
#X connect 11 0 3 0;
#X connect 12 0 13 0;
#X connect 13 0 14 0;
#X connect 14 0 16 0;
#X connect 14 0 18 0;
#X connect 16 0 11 0;
#X connect 17 0 2 0;
#X connect 18 0 17 0;
#X connect 19 0 8 1;
#X connect 20 0 23 0;
#X connect 20 1 8 1;
#X connect 21 0 22 0;
#X connect 21 1 23 0;
#X connect 21 2 19 0;
#X connect 21 3 4 0;
#X connect 22 0 20 0;
#X connect 23 0 8 0;
#X connect 24 0 2 0;
#X connect 25 0 2 0;
#X connect 26 0 27 0;
#X connect 26 1 28 0;
#X connect 27 0 2 0;
#X connect 28 0 2 0;
#X connect 29 0 21 0;
#X connect 30 0 10 0;
#X connect 31 0 9 0;
#X connect 32 0 10 2;
#X coords 0 -1 1 1 88 20 2 100 100;
