#N canvas 65 81 1201 639 10;
#X msg 266 79 obj \$1 0 outlet;
#X msg -144 458 delete \$1;
#X obj 150 210 t f f;
#X obj 177 233 t f f;
#X obj 85 233 t f f;
#X msg 106 356 connect \$1 0 \$2 0;
#X obj 85 305 pack f f;
#X obj 177 286 pack f f;
#X obj -144 261 t f f b f f b;
#X msg 285 110 obj \$1 -34 inlet;
#X obj 266 34 * 60;
#X msg 470 68 vis_size \$1 \$2;
#X obj 416 426 s \$0-pixsize;
#X obj -144 236 * 3;
#X obj 1057 505 t a a;
#X obj 1084 572 s \$0-cursesize;
#X msg 1057 527 vis_size \$2 \$1;
#X obj 150 186 * 3;
#X obj 328 351 pack 62 54;
#X obj 470 43 pack 48 35;
#X obj -144 214 + 3;
#X text -99 201 Outlet delete;
#X text 32 277 outlet create;
#X text 754 167 move other \, maincanvas \, cnvsize \, cnvsize \, toggle-delete
\, toggle-create \, customdown \, customup;
#X obj 347 273 unpack f f;
#X obj 347 297 - 2;
#X obj 347 322 pack f f;
#X obj 404 297 - 6;
#X obj 1057 357 demux;
#X obj 784 402 unpack f f;
#X obj 864 402 unpack f f;
#X text 865 229 1: \$1;
#X text 865 241 2: start pos;
#X text 865 254 3: toggle create offset;
#X text 865 266 4: toggle delete offset;
#X text 866 278 5: canvas size offset;
#X text 866 288 6: opposite move offset;
#X text 866 300 7: object number;
#X text 865 324 9: cursorsize offset;
#X text 865 312 8: cnvsize offset;
#X obj 411 250 t b f;
#X msg 864 425 100 \$1;
#X msg 784 428 \$1 101;
#X obj 910 133 s \$0-ybc;
#X obj 910 9 - 1;
#X obj 937 57 * 20;
#X obj 1057 381 unpack f f;
#X obj 1074 404 unpack f f;
#X obj 485 -45 s \$0-colobang;
#X obj 784 455 iemguts/canvasobjectposition 3 2;
#X obj 0 147 inlet delete;
#X obj 453 336 - 1;
#X obj 453 358 * -2;
#X obj 320 251 t b a a;
#X obj 298 593 list prepend 62 54;
#X obj -129 387 + 10;
#X obj -99 331 + 11;
#X obj -84 305 + 12;
#X obj 85 256 + 16;
#X obj 117 256 + 18;
#X obj 177 259 + 17;
#X obj 222 259 + 16;
#X obj 823 131 s \$0-yboxes;
#X obj 338 568 s \$0-xboxes;
#X obj 453 380 t b b b b f f f;
#X obj 470 93 s \$0-cposr;
#X obj 781 657 s \$0-overlay;
#X obj 650 198 route 0;
#X msg 874 596 1 1 0;
#X obj 567 215 route 0;
#X obj 938 553 s \$0-morphs;
#X obj 906 507 t b b;
#X obj 938 530 t f;
#X msg 258 568 1;
#X msg -45 303 menu-open;
#X msg -64 390 vis 0;
#X obj 1 459 spigot;
#X msg 7 422 1;
#X obj 328 373 spigot;
#X obj -1 384 t b b;
#X obj 284 544 f 2;
#X obj 998 57 - 1;
#X obj 910 79 pack f f \$0 f;
#X msg 910 101 obj 200 \$2 ctxfiles/cy \$1 \$3 \$4;
#X obj 305 137 pack f f \$0 f;
#X obj 380 84 - 1;
#X msg 305 164 obj \$1 -17 ctxfiles/cx \$2 \$3 \$4;
#X obj 266 57 t f f f;
#X obj 44 434 t f;
#X msg -27 420 1;
#X obj 339 515 pack 61 2 12;
#X obj 518 481 pack 36 2 12;
#X obj 514 -8 t f f;
#X obj 561 -13 t b f b f;
#X obj 639 140 + 1;
#X msg 640 229 1 0 1;
#X text 858 336 10: switch;
#X text 858 348 11: my xy;
#X text 858 360 12: your xy;
#X text 858 372 13: box offset;
#X text 942 341 14: offset size;
#X msg 795 -46 obj 100 \$1 tgl \$3 0 \$4\$5-y\$2 \$4\$5-y\$2r empty
3 7 0 8 \$6 \$8 \$9 0 \$2;
#X obj 338 -65 t b f b f b f f f;
#X obj 761 566 pack 47 36 2;
#X obj 907 676 s \$0-cursorsz;
#X obj 1057 550 s \$0-block;
#X msg 1057 461 2 \$1;
#X msg 1131 461 \$1 2;
#X obj 0 169 t b f b b;
#X obj 910 32 t f f f;
#X obj 39 -89 ctxfiles/canvasmove \$0 5 89 2 2 89 4 -12 -12 0 x y 12
5 F;
#X obj 907 649 list split 2;
#X obj 761 588 t a a;
#X obj 543 -92 ctxfiles/canvasmove \$0 4 74 1 6 89 2 -13 -13 -1 y x
-6 3 G;
#X obj 328 397 t b b a a b a a;
#X obj 428 402 list;
#X obj 1057 433 - 2;
#X obj 1131 431 - 2;
#X obj 139 507 iemguts/sendcanvas 3;
#X obj -27 -178 receive \$0-xsize-2;
#X obj 93 -177 receive \$0-xsize-3;
#X obj 225 -172 receive \$0-xzoom;
#X obj 505 -182 receive \$0-ysize-2;
#X obj 498 -160 receive \$0-ysize-3;
#X obj 869 -140 receive \$0-yzoom;
#X obj 319 215 receive \$0-cnvmorph;
#X obj 1089 333 receive \$0-xym;
#X obj 599 453 receive \$0-yemod;
#X obj 420 486 receive \$0-xemod;
#X obj 262 461 receive \$0-graphinit;
#X obj 551 317 receive \$0-backsplash;
#X obj 453 312 receive \$0-wam;
#X obj -1 362 receive \$0-lb0;
#X text 544 709 xfrom yfrom xto yto xsize ysize GOP xmargin ymargin
;
#X text 436 731 xunits yunits GOP xfrom yfrom xto yto xsize ysize xmargin
ymargin, f 66;
#X obj 906 485 receive \$0-rewires;
#X msg 339 542 coords 0 -1 1 1 \$1 \$3 \$2 100 98;
#X msg 443 275 obj \$1 98 tgl \$3 0 \$4\$5-x\$2 \$4\$5-x\$2r empty
3 7 0 8 \$6 \$8 \$9 0 \$2;
#X msg 568 511 coords 0 -1 1 1 \$3 \$1 \$2 100 98;
#X msg 781 622 coords 0 -1 1 1 \$1 \$2 \$3 0 0;
#X obj 93 -154 t b b f b b;
#X msg 649 590 vis 0;
#X obj -27 -154 t b b f b b;
#X obj 225 -148 t b f b b;
#X msg 690 590 menu-open;
#X obj 498 -136 t b b f b b;
#X obj 869 -118 t b f b b;
#X obj 649 622 s \$0-overlay;
#X obj 920 -77 spigot;
#X obj -27 -111 spigot;
#X obj 1021 -137 receive \$0-openeds;
#X msg 317 638 coords 0 -1 1 1 \$1 \$2 \$3 100 98;
#X obj 298 615 t b a b;
#X msg 337 665 menu-open;
#X msg 298 665 vis 0;
#X obj 362 688 receive \$0-morphon1;
#X obj 317 710 spigot 1;
#X connect 0 0 118 0;
#X connect 1 0 118 0;
#X connect 2 0 4 0;
#X connect 2 1 3 0;
#X connect 3 0 60 0;
#X connect 3 1 61 0;
#X connect 4 0 58 0;
#X connect 4 1 59 0;
#X connect 5 0 118 0;
#X connect 6 0 5 0;
#X connect 7 0 5 0;
#X connect 8 1 55 0;
#X connect 8 2 75 0;
#X connect 8 3 56 0;
#X connect 8 4 57 0;
#X connect 8 5 74 0;
#X connect 9 0 118 0;
#X connect 10 0 87 0;
#X connect 11 0 65 0;
#X connect 13 0 8 0;
#X connect 14 0 16 0;
#X connect 14 1 15 0;
#X connect 16 0 105 0;
#X connect 17 0 2 0;
#X connect 18 0 78 0;
#X connect 19 0 11 0;
#X connect 20 0 13 0;
#X connect 24 0 25 0;
#X connect 24 1 27 0;
#X connect 25 0 26 0;
#X connect 26 0 11 0;
#X connect 27 0 26 1;
#X connect 28 0 47 0;
#X connect 28 1 46 0;
#X connect 29 0 42 0;
#X connect 29 1 49 1;
#X connect 30 0 41 0;
#X connect 30 1 49 1;
#X connect 40 0 18 0;
#X connect 40 1 18 1;
#X connect 41 0 49 0;
#X connect 42 0 49 0;
#X connect 44 0 109 0;
#X connect 45 0 82 1;
#X connect 46 0 116 0;
#X connect 47 1 117 0;
#X connect 50 0 108 0;
#X connect 51 0 52 0;
#X connect 52 0 64 0;
#X connect 53 0 80 0;
#X connect 53 1 54 1;
#X connect 53 2 24 0;
#X connect 54 0 152 0;
#X connect 55 0 1 0;
#X connect 56 0 1 0;
#X connect 57 0 1 0;
#X connect 58 0 6 0;
#X connect 59 0 6 1;
#X connect 60 0 7 0;
#X connect 61 0 7 1;
#X connect 64 1 90 0;
#X connect 64 2 91 0;
#X connect 64 3 103 0;
#X connect 64 4 90 1;
#X connect 64 5 91 1;
#X connect 64 6 103 2;
#X connect 67 0 95 0;
#X connect 67 0 68 0;
#X connect 67 1 91 0;
#X connect 67 1 103 1;
#X connect 68 0 139 0;
#X connect 69 0 68 0;
#X connect 69 1 103 0;
#X connect 71 0 144 0;
#X connect 71 1 72 0;
#X connect 72 0 70 0;
#X connect 73 0 54 0;
#X connect 74 0 76 0;
#X connect 75 0 76 0;
#X connect 76 0 118 0;
#X connect 77 0 76 1;
#X connect 77 0 78 1;
#X connect 78 0 114 0;
#X connect 79 0 18 0;
#X connect 79 1 77 0;
#X connect 80 0 54 0;
#X connect 81 0 82 3;
#X connect 82 0 83 0;
#X connect 83 0 43 0;
#X connect 84 0 86 0;
#X connect 85 0 84 3;
#X connect 86 0 118 0;
#X connect 87 0 0 0;
#X connect 87 1 9 0;
#X connect 87 2 84 0;
#X connect 88 0 76 1;
#X connect 89 0 76 1;
#X connect 90 0 136 0;
#X connect 91 0 138 0;
#X connect 92 0 19 0;
#X connect 92 1 69 0;
#X connect 93 0 19 0;
#X connect 93 1 19 1;
#X connect 93 2 103 0;
#X connect 93 3 94 0;
#X connect 94 0 67 0;
#X connect 95 0 138 0;
#X connect 101 0 62 0;
#X connect 102 2 75 0;
#X connect 102 3 17 0;
#X connect 102 4 74 0;
#X connect 102 5 10 0;
#X connect 102 6 84 1;
#X connect 102 7 85 0;
#X connect 103 0 112 0;
#X connect 106 0 14 0;
#X connect 107 0 14 0;
#X connect 108 0 75 0;
#X connect 108 1 54 0;
#X connect 108 2 73 0;
#X connect 108 3 74 0;
#X connect 109 0 82 0;
#X connect 109 1 45 0;
#X connect 109 2 81 0;
#X connect 110 0 29 0;
#X connect 110 1 18 0;
#X connect 110 2 92 0;
#X connect 110 3 63 0;
#X connect 110 4 137 0;
#X connect 110 5 20 0;
#X connect 110 6 102 0;
#X connect 110 7 90 0;
#X connect 111 0 104 0;
#X connect 111 0 28 0;
#X connect 112 0 139 0;
#X connect 112 1 111 0;
#X connect 113 0 30 0;
#X connect 113 1 40 0;
#X connect 113 2 93 0;
#X connect 113 3 62 0;
#X connect 113 4 101 0;
#X connect 113 6 44 0;
#X connect 114 0 141 0;
#X connect 114 1 80 0;
#X connect 114 2 54 1;
#X connect 114 4 144 0;
#X connect 114 5 12 0;
#X connect 114 6 115 1;
#X connect 115 0 12 0;
#X connect 116 0 106 0;
#X connect 117 0 107 0;
#X connect 119 0 142 0;
#X connect 120 0 140 0;
#X connect 121 0 143 0;
#X connect 122 0 145 0;
#X connect 123 0 145 0;
#X connect 124 0 146 0;
#X connect 125 0 53 0;
#X connect 126 0 28 1;
#X connect 127 0 91 2;
#X connect 128 0 90 2;
#X connect 129 0 80 1;
#X connect 130 0 103 0;
#X connect 130 0 115 0;
#X connect 131 0 51 0;
#X connect 132 0 79 0;
#X connect 135 0 71 0;
#X connect 136 0 63 0;
#X connect 137 0 63 0;
#X connect 138 0 62 0;
#X connect 139 0 66 0;
#X connect 140 0 149 0;
#X connect 140 1 48 0;
#X connect 140 2 110 0;
#X connect 140 3 89 0;
#X connect 140 4 148 0;
#X connect 141 0 147 0;
#X connect 142 0 149 0;
#X connect 142 1 48 0;
#X connect 142 2 110 0;
#X connect 142 3 89 0;
#X connect 142 4 148 0;
#X connect 143 0 149 0;
#X connect 143 1 110 1;
#X connect 143 2 88 0;
#X connect 143 3 148 0;
#X connect 144 0 147 0;
#X connect 145 0 149 0;
#X connect 145 1 48 0;
#X connect 145 2 113 0;
#X connect 145 3 89 0;
#X connect 145 4 148 0;
#X connect 146 0 149 0;
#X connect 146 1 113 1;
#X connect 146 2 88 0;
#X connect 146 3 148 0;
#X connect 148 0 144 0;
#X connect 149 0 141 0;
#X connect 150 0 148 1;
#X connect 150 0 149 1;
#X connect 151 0 118 0;
#X connect 152 0 154 0;
#X connect 152 1 151 0;
#X connect 152 2 153 0;
#X connect 153 0 156 0;
#X connect 154 0 156 0;
#X connect 155 0 156 1;
#X connect 156 0 118 0;
