#N canvas 645 97 450 300 10;
#X obj 150 43 iemguts/canvasargs;
#X obj 150 65 list split 1;
#X obj 190 111 cyclone/iter;
#X obj 190 133 array get \$0-primary-col 0 1;
#X obj 165 156 ex01;
#X obj 150 111 t b;
#X obj 190 88 t a b;
#X msg 233 88 color;
#X obj 165 178 list trim;
#X obj 165 200 outlet;
#X obj 150 21 inlet;
#X connect 0 0 1 0;
#X connect 1 0 5 0;
#X connect 1 1 6 0;
#X connect 2 0 3 0;
#X connect 3 0 4 1;
#X connect 4 0 8 0;
#X connect 5 0 4 0;
#X connect 6 0 2 0;
#X connect 6 1 7 0;
#X connect 7 0 4 1;
#X connect 8 0 9 0;
#X connect 10 0 0 0;
