#N canvas 769 90 492 493 10;
#X obj 180 167 - 1;
#X obj 98 385 outlet;
#X obj 140 268 f;
#X obj 98 338 list prepend 0;
#X obj 140 291 - 1;
#X obj 140 312 moses 0;
#X obj 98 362 route 0;
#X obj 98 90 switch-\$6 \$2 \$7 \$3 \$8 \$9;
#X obj 182 135 inlet;
#X obj 137 135 unpack;
#X obj 98 112 t b b a;
#X obj 264 179 - \$5;
#X obj 264 203 array size \$2-\$1o;
#X obj 264 231 array define \$2-\$1o \$10;
#X obj 98 218 array get \$2-\$1o;
#X obj 137 191 array set \$2-\$1o;
#X obj 264 157 receive \$2-\$3size-2;
#X obj 98 68 receive \$2-\$1;
#X obj 155 244 receive \$2-\$4-l;
#X connect 0 0 15 1;
#X connect 2 0 4 0;
#X connect 3 0 6 0;
#X connect 4 0 5 0;
#X connect 5 1 2 1;
#X connect 5 1 3 1;
#X connect 6 0 1 0;
#X connect 7 0 10 0;
#X connect 7 1 2 1;
#X connect 8 0 15 0;
#X connect 9 0 15 0;
#X connect 9 1 0 0;
#X connect 10 0 14 0;
#X connect 10 1 2 0;
#X connect 10 2 9 0;
#X connect 11 0 12 0;
#X connect 14 0 3 0;
#X connect 16 0 11 0;
#X connect 17 0 7 0;
#X connect 18 0 2 1;
