#N canvas 413 247 450 365 10;
#X obj 85 19 r \$1bb^s1;
#X obj 165 9 r \$1bb^s0;
#X obj 192 268 array define \$1 1;
#X obj 165 107 list append;
#X obj 192 53 array get \$1;
#X obj 85 159 list-abs/list-filter;
#X obj 216 159 !=;
#X obj 165 198 t a a;
#X obj 165 315 array set \$1;
#X obj 192 222 list length;
#X msg 192 246 resize \$1;
#X obj 165 31 t f b;
#X obj 85 107 array get \$1;
#X obj 85 41 t b f;
#X obj 291 140 array get \$1;
#X obj 291 162 print \$1;
#X obj 192 75 route 0;
#X obj 291 96 receive ctx-names;
#X obj 291 118 t b;
#X connect 0 0 13 0;
#X connect 1 0 11 0;
#X connect 3 0 7 0;
#X connect 4 0 16 0;
#X connect 5 0 7 0;
#X connect 5 1 6 0;
#X connect 6 0 5 1;
#X connect 7 0 8 0;
#X connect 7 1 9 0;
#X connect 9 0 10 0;
#X connect 10 0 2 0;
#X connect 11 0 3 0;
#X connect 11 1 4 0;
#X connect 12 0 5 0;
#X connect 13 0 12 0;
#X connect 13 1 6 1;
#X connect 14 0 15 0;
#X connect 16 1 3 1;
#X connect 17 0 18 0;
#X connect 18 0 14 0;
