#N canvas 414 317 545 326 10;
#X obj 344 146 pack f \$1;
#X obj 344 175 s \$2-alltogsy;
#X obj 227 175 s \$2-alljs;
#X obj 121 109 s \$2-y\$1r;
#X msg 90 71 pos 100 \$1;
#X obj 90 20 sizer \$1 \$2 y 3 \$3 98;
#X msg 213 69 size \$1;
#X obj 213 44 t f f;
#X obj 285 97 f \$1;
#X obj 227 120 labeler \$1 \$2 y 20 j;
#X obj 412 27 receive \$2yy\$1;
#X obj 317 49 receive \$2-j\$1;
#X obj 285 75 receive \$2-yhome;
#X connect 0 0 1 0;
#X connect 4 0 3 0;
#X connect 5 0 4 0;
#X connect 5 1 7 0;
#X connect 6 0 3 0;
#X connect 7 0 6 0;
#X connect 7 1 9 2;
#X connect 8 0 9 1;
#X connect 9 0 2 0;
#X connect 9 1 0 0;
#X connect 10 0 9 0;
#X connect 11 0 9 1;
#X connect 12 0 8 0;
