#N canvas 65 336 625 333 10;
#N canvas 418 81 587 687 receivecanvas 0;
#X obj 223 206 s \$1-key;
#X obj 163 122 route Shift_L Shift_R Control_L Control_R;
#X obj 163 76 list split 2;
#X msg 75 77 1;
#X msg 119 77 0;
#X obj 163 99 cyclone/zl rev;
#X obj 31 102 s \$1-motion;
#X obj 284 165 s \$1-ctrl;
#X obj 273 75 route 1;
#X obj 273 98 s \$1-openup;
#X obj 242 230 s \$1-eitherkey;
#X obj 31 12 demux;
#X obj 54 123 s otheroff@#;
#X msg 324 75 0;
#X obj 289 306 sel 1;
#X obj 262 255 change;
#X obj 335 476 s \$1-ymode;
#X obj 69 212 s \$1-mup;
#X obj 4 -18 iemguts/receivecanvas 4;
#X obj 262 282 t f f;
#X obj 220 328 s \$1-shift;
#X obj 341 357 del 250;
#X msg 367 384 1;
#X obj 308 432 ctxfiles/alter 0;
#X obj 308 409 spigot;
#X obj 341 384 t f;
#X obj 223 184 t f f f;
#X obj 289 331 t b b b;
#X obj 132 273 s \$1-eitherkey2;
#X obj 308 526 moses 1;
#X msg 308 548 1;
#X msg 347 548 1;
#X obj 308 612 s \$1-lson;
#X obj 347 635 s \$1-rson;
#X obj 308 503 spigot;
#X obj 308 454 t f f;
#X obj 261 570 spigot;
#X obj 261 592 t f f;
#X obj 361 570 spigot;
#X obj 361 592 t f f;
#X obj 31 34 route motion mouse mouseup key done-popup setbounds editmode
;
#X obj 119 197 s \$1-click;
#X obj 119 145 demux;
#X obj 364 76 sel 1;
#X obj 146 170 spigot;
#X obj 284 144 t f f f;
#X obj 337 55 t f f f;
#X obj 376 100 s \$1-edit;
#X obj 177 12 receive otheroff@#;
#X obj 70 12 receive \$1-notme;
#X obj 353 503 receive \$1-savestart;
#X connect 1 0 26 0;
#X connect 1 1 26 0;
#X connect 1 2 45 0;
#X connect 1 3 45 0;
#X connect 2 0 5 0;
#X connect 3 0 42 0;
#X connect 4 0 12 0;
#X connect 4 0 17 0;
#X connect 4 0 42 0;
#X connect 5 0 1 0;
#X connect 8 0 9 0;
#X connect 11 0 40 0;
#X connect 11 1 4 0;
#X connect 13 0 7 0;
#X connect 13 0 10 0;
#X connect 13 0 0 0;
#X connect 13 0 28 0;
#X connect 14 0 27 0;
#X connect 14 1 36 0;
#X connect 14 1 38 0;
#X connect 15 0 19 0;
#X connect 18 0 11 0;
#X connect 19 0 20 0;
#X connect 19 1 14 0;
#X connect 21 0 25 0;
#X connect 22 0 24 1;
#X connect 23 0 35 0;
#X connect 24 0 23 0;
#X connect 25 0 24 1;
#X connect 26 0 0 0;
#X connect 26 1 10 0;
#X connect 26 1 28 0;
#X connect 26 2 15 0;
#X connect 27 0 22 0;
#X connect 27 1 24 0;
#X connect 27 2 21 0;
#X connect 29 0 30 0;
#X connect 29 1 31 0;
#X connect 30 0 32 0;
#X connect 30 0 36 1;
#X connect 31 0 33 0;
#X connect 31 0 38 1;
#X connect 34 0 29 0;
#X connect 35 0 34 0;
#X connect 35 1 16 0;
#X connect 36 0 37 0;
#X connect 37 0 36 1;
#X connect 37 1 32 0;
#X connect 38 0 39 0;
#X connect 39 0 38 1;
#X connect 39 1 33 0;
#X connect 40 0 6 0;
#X connect 40 1 3 0;
#X connect 40 2 4 0;
#X connect 40 3 2 0;
#X connect 40 4 8 0;
#X connect 40 5 13 0;
#X connect 40 6 46 0;
#X connect 42 0 41 0;
#X connect 42 1 44 0;
#X connect 43 0 4 0;
#X connect 44 0 41 0;
#X connect 45 0 7 0;
#X connect 45 1 10 0;
#X connect 45 1 28 0;
#X connect 45 2 44 1;
#X connect 46 0 42 1;
#X connect 46 1 43 0;
#X connect 46 2 47 0;
#X connect 48 0 11 1;
#X connect 49 0 11 1;
#X connect 50 0 34 1;
#X restore 107 22 pd receivecanvas;
#N canvas 646 100 622 649 mousegrid 0;
#X obj 34 136 -;
#X obj 101 133 -;
#X obj 100 535 pack f f;
#X obj 34 108 unpack f f;
#X obj 53 18 s \$1-cposr;
#X msg 53 -11 get_pos;
#X obj 53 84 unpack f f;
#X obj 128 746 s \$1-mousegrid;
#X obj 61 464 moses 0;
#X obj 125 363 moses 0;
#X msg 203 673 -1 -1;
#X obj 151 564 t b b;
#X obj 123 625 t b b;
#X obj 100 511 t f b;
#X obj 164 411 t b f b;
#X obj 105 698 t a a a;
#X obj 151 721 route -1;
#X obj 216 721 t b;
#X obj 100 489 moses 7;
#X obj 144 466 + 2;
#X obj 203 365 + 2;
#X obj 164 389 moses 6;
#X obj 105 776 unpack f f;
#X obj 203 651 cyclone/onebang 1;
#X obj 422 387 s \$1-scroll;
#X obj 422 321 <;
#X obj 120 108 + 2;
#X obj 105 820 s \$1-xsize-in;
#X obj 192 820 s \$1-ysize-in;
#X obj 297 585 s \$1-zsize-in;
#X obj 422 343 * 2;
#X obj 422 365 - 1;
#X obj 103 62 send;
#X msg 124 40 symbol c\$1pos;
#X obj 34 180 spigot;
#X obj 34 224 s \$1-rawx;
#X obj 106 180 spigot;
#X obj 106 224 s \$1-rawy;
#X obj 389 106 !=;
#X text 243 730 PROBLEMS: 1 y grid needs + 1 somewhere. 2 when y resize
after divy is on \, it doesn't act the same as x (where all blocks
are resized). Fix this. 3 Make sure that the grid is assigned properly
in mouseover.;
#X msg 238 50 1 \$1;
#X obj 238 72 -;
#X obj 307 59 /;
#X obj 389 59 /;
#X obj 389 81 t b f;
#X obj 407 17 - 1;
#X obj 418 293 t f f;
#X obj 418 227 spigot;
#X obj 418 249 div 12;
#X obj 418 271 change;
#X obj 176 -63 s \$1-prex;
#X obj 53 62 t a a a;
#X obj 136 62 s \$1-mycpos;
#X obj 53 -89 ctxfiles/deb 400;
#X obj 34 -135 t a b a;
#X obj 418 179 demux;
#X obj 34 202 demux;
#X obj 106 202 demux;
#X obj 105 600 ctxfiles/sp01 1;
#X obj 105 672 ctxfiles/sp01 1;
#X obj 312 209 t f f;
#X obj 125 258 ctxfiles/grider \$1 y x 1 121 3;
#X obj 34 158 t f f f;
#X obj 101 157 t f f f f;
#X obj 291 382 div 6;
#X obj 291 404 moses 0;
#X obj 345 404 moses 0;
#X obj 384 429 moses 14;
#X obj 373 472 t b b;
#X msg 400 528 -1;
#X obj 297 506 ctxfiles/sp01 1;
#X obj 297 558 change;
#X obj 326 353 + 2;
#X obj 330 429 moses 8;
#X obj 34 -159 receive \$1-motion;
#X obj 124 18 receive \$1nnumber;
#X obj 238 28 receive \$1-wam;
#X obj 325 -25 receive \$1-xsize;
#X obj 407 -5 receive \$1-ysize;
#X obj 170 123 receive \$1-XE;
#X obj 170 145 receive \$1-YE;
#X obj 445 134 receive \$1-lson;
#X obj 445 154 receive \$1-rson;
#X obj 451 202 receive \$1-selon;
#X obj 326 331 receive \$1-zsize;
#X obj 203 343 receive \$1-ysize;
#X obj 389 37 receive \$1-yzoom;
#X obj 307 37 receive \$1-xzoom;
#X obj 53 40 receive \$1-cpos;
#X obj 144 443 receive \$1-xsize;
#X obj 61 294 ctxfiles/grider \$1 x y 0 120 4;
#X connect 0 0 62 0;
#X connect 1 0 63 0;
#X connect 2 0 58 0;
#X connect 3 0 0 0;
#X connect 3 1 1 0;
#X connect 5 0 4 0;
#X connect 6 0 0 1;
#X connect 6 1 26 0;
#X connect 8 0 12 0;
#X connect 8 1 18 0;
#X connect 9 0 11 0;
#X connect 9 1 21 0;
#X connect 10 0 15 0;
#X connect 11 0 23 0;
#X connect 11 1 58 1;
#X connect 12 0 23 0;
#X connect 12 1 59 1;
#X connect 13 0 2 0;
#X connect 13 1 59 2;
#X connect 14 0 2 0;
#X connect 14 1 2 1;
#X connect 14 2 58 2;
#X connect 15 0 22 0;
#X connect 15 1 7 0;
#X connect 15 2 16 0;
#X connect 16 1 17 0;
#X connect 17 0 23 1;
#X connect 18 0 13 0;
#X connect 18 1 12 0;
#X connect 19 0 18 1;
#X connect 20 0 21 1;
#X connect 21 0 14 0;
#X connect 21 1 11 0;
#X connect 22 0 27 0;
#X connect 22 1 28 0;
#X connect 23 0 10 0;
#X connect 25 0 30 0;
#X connect 26 0 1 1;
#X connect 30 0 31 0;
#X connect 31 0 24 0;
#X connect 33 0 32 1;
#X connect 34 0 56 0;
#X connect 36 0 57 0;
#X connect 38 0 60 0;
#X connect 40 0 41 0;
#X connect 41 0 60 0;
#X connect 42 0 38 0;
#X connect 43 0 44 0;
#X connect 44 0 38 0;
#X connect 44 1 38 1;
#X connect 45 0 43 1;
#X connect 46 0 25 1;
#X connect 46 1 25 0;
#X connect 47 0 48 0;
#X connect 48 0 49 0;
#X connect 49 0 46 0;
#X connect 51 0 6 0;
#X connect 51 1 32 0;
#X connect 51 2 52 0;
#X connect 53 0 5 0;
#X connect 54 0 3 0;
#X connect 54 1 53 0;
#X connect 54 2 50 0;
#X connect 55 0 47 0;
#X connect 56 0 35 0;
#X connect 57 0 37 0;
#X connect 58 0 59 0;
#X connect 59 0 15 0;
#X connect 60 0 61 1;
#X connect 60 1 90 1;
#X connect 61 0 9 0;
#X connect 62 0 34 0;
#X connect 62 1 90 0;
#X connect 62 2 64 0;
#X connect 63 0 36 0;
#X connect 63 1 61 0;
#X connect 63 2 66 0;
#X connect 63 3 55 0;
#X connect 64 0 65 0;
#X connect 65 1 73 0;
#X connect 66 0 68 0;
#X connect 66 1 67 0;
#X connect 67 0 70 2;
#X connect 67 1 68 0;
#X connect 68 0 70 1;
#X connect 68 1 69 0;
#X connect 69 0 71 0;
#X connect 70 0 71 0;
#X connect 71 0 29 0;
#X connect 72 0 73 1;
#X connect 73 0 70 0;
#X connect 74 0 54 0;
#X connect 75 0 33 0;
#X connect 76 0 40 0;
#X connect 77 0 42 1;
#X connect 78 0 45 0;
#X connect 79 0 34 1;
#X connect 80 0 36 1;
#X connect 81 0 57 1;
#X connect 81 0 56 1;
#X connect 82 0 55 1;
#X connect 82 0 57 1;
#X connect 82 0 56 1;
#X connect 83 0 47 1;
#X connect 84 0 72 0;
#X connect 85 0 20 0;
#X connect 86 0 43 0;
#X connect 87 0 42 0;
#X connect 88 0 51 0;
#X connect 89 0 19 0;
#X connect 90 0 8 0;
#X restore 107 45 pd mousegrid;
#N canvas 398 85 782 687 param 0;
#X msg 121 215 dirty 0;
#X obj 228 587 s \$1-dr;
#X obj 361 539 s \$1-symr;
#X msg 180 600 \$1 101;
#X obj 194 445 list append $ 0;
#X obj 194 516 s \$1-paraml;
#X obj 194 492 spigot;
#X obj 168 191 t b f b;
#X msg 213 215 1;
#X obj 84 370 t a b;
#X msg 111 394 0;
#X obj 136 -85 t f f;
#X obj 163 -36 <=;
#X obj 129 2 mux;
#X obj 369 591 r \$1-lb;
#X obj 180 636 iemguts/canvasobjectposition 3 16;
#X obj 84 348 spigot;
#X obj 168 115 spigot;
#X obj 271 23 + 1;
#X obj 271 54 t f f;
#X obj 37 -61 t f f;
#X obj 64 -39 * 6;
#X obj 129 93 moses 0;
#X obj 18 289 iemguts/sendcanvas 3;
#X msg 725 610 17;
#X obj 194 468 t a a a a a;
#X obj 430 543 unpack f f f f;
#X msg 530 611 \$1 101;
#X obj 511 566 change 101;
#X obj 530 634 iemguts/canvasobjectposition 3 16;
#X obj 511 588 t b f b;
#X msg 14 244 menu-open;
#X msg 357 286 115 2 1 101;
#X msg 385 334 115 2 3 101;
#X msg 413 383 121 3 4 101;
#X msg 441 432 121 3 6 101;
#X msg 492 311 133 5 \$1 101;
#X msg 204 332 20 1 1 20;
#X obj 187 260 t b b b b;
#X obj 199 283 t b b b b;
#X msg 414 189 1;
#X obj 381 216 spigot;
#X obj 338 189 t b f b;
#X obj 338 216 spigot;
#X obj 338 238 t b f f;
#X msg 493 164 sym_pos \, del_size \, sym_size \, del_pos;
#X msg 216 355 101 1 1 20;
#X obj 187 237 sel 0 1 2;
#X obj 221 307 t b b b b;
#X msg 238 378 20 2 1 101;
#X msg 228 565 param \$2 0 0 - - \$5\$6-dr \$5\$6-:d2;
#X msg 361 518 param \$3 0 0 - - \$5\$6-symr \$5\$6-syms;
#X msg 372 310 115 2 2 101;
#X msg 399 358 121 3 3 101;
#X msg 427 407 121 3 5 101;
#X msg 459 457 121 3 7 101;
#X msg 470 481 127 4 7 101;
#X obj 492 286 - 5;
#X obj 357 262 sel 3 4 5 6 7 8 9 10 11;
#X obj 64 -18 t b f;
#X obj 136 -59 div 6;
#X msg 369 613 16;
#X obj 136 -36 - 1;
#X obj 84 417 list append 101;
#X obj 201 -36 == 1;
#X obj 201 -14 t b f;
#X obj 129 49 demux;
#X msg 156 70 0;
#X obj 129 25 f 6;
#X msg -29 244 vis 0;
#X obj 168 142 ./config;
#X obj 228 165 demux;
#X obj 228 192 pipe 1000;
#X msg 279 149 1;
#X obj 236 -36 receive \$1-entryon;
#X obj 37 -89 receive \$1-zsize-2;
#X obj 136 -109 receive \$1-cursorsz;
#X obj 201 -58 receive \$1-ysize-2;
#X obj 271 1 receive \$1-graphic;
#X obj 296 23 receive \$1-foury;
#X obj 279 127 receive \$1-savestart;
#X obj 84 326 receive \$1-paramorph;
#X connect 0 0 23 0;
#X connect 3 0 15 0;
#X connect 4 0 25 0;
#X connect 6 0 5 0;
#X connect 7 0 0 0;
#X connect 7 1 47 0;
#X connect 7 2 8 0;
#X connect 8 0 6 1;
#X connect 9 0 63 0;
#X connect 9 1 10 0;
#X connect 10 0 6 1;
#X connect 11 0 60 0;
#X connect 11 1 12 0;
#X connect 12 0 13 2;
#X connect 13 0 68 0;
#X connect 14 0 61 0;
#X connect 14 0 24 0;
#X connect 16 0 9 0;
#X connect 17 0 71 0;
#X connect 18 0 19 0;
#X connect 19 0 17 1;
#X connect 19 1 16 1;
#X connect 20 0 13 0;
#X connect 20 1 21 0;
#X connect 21 0 59 0;
#X connect 22 1 17 0;
#X connect 24 0 29 1;
#X connect 25 0 6 0;
#X connect 25 1 3 0;
#X connect 25 2 50 0;
#X connect 25 3 51 0;
#X connect 25 4 26 0;
#X connect 26 3 28 0;
#X connect 27 0 29 0;
#X connect 28 0 30 0;
#X connect 30 1 27 0;
#X connect 31 0 23 0;
#X connect 32 0 4 0;
#X connect 33 0 4 0;
#X connect 34 0 4 0;
#X connect 35 0 4 0;
#X connect 36 0 4 0;
#X connect 37 0 4 0;
#X connect 38 0 69 0;
#X connect 38 1 37 0;
#X connect 38 2 31 0;
#X connect 38 3 40 0;
#X connect 39 0 69 0;
#X connect 39 1 46 0;
#X connect 39 2 31 0;
#X connect 39 3 40 0;
#X connect 40 0 41 1;
#X connect 40 0 43 1;
#X connect 41 0 31 0;
#X connect 42 0 43 0;
#X connect 42 1 58 0;
#X connect 42 2 41 0;
#X connect 43 0 44 0;
#X connect 44 0 69 0;
#X connect 44 1 43 1;
#X connect 44 2 41 1;
#X connect 46 0 4 0;
#X connect 47 0 38 0;
#X connect 47 1 39 0;
#X connect 47 2 48 0;
#X connect 47 3 42 0;
#X connect 48 0 69 0;
#X connect 48 1 49 0;
#X connect 48 2 31 0;
#X connect 48 3 40 0;
#X connect 49 0 4 0;
#X connect 50 0 1 0;
#X connect 51 0 2 0;
#X connect 52 0 4 0;
#X connect 53 0 4 0;
#X connect 54 0 4 0;
#X connect 55 0 4 0;
#X connect 56 0 4 0;
#X connect 57 0 36 0;
#X connect 58 0 32 0;
#X connect 58 1 52 0;
#X connect 58 2 33 0;
#X connect 58 3 53 0;
#X connect 58 4 34 0;
#X connect 58 5 54 0;
#X connect 58 6 35 0;
#X connect 58 7 55 0;
#X connect 58 8 56 0;
#X connect 58 9 57 0;
#X connect 59 0 12 0;
#X connect 59 1 12 1;
#X connect 60 0 62 0;
#X connect 61 0 15 1;
#X connect 62 0 13 1;
#X connect 63 0 4 0;
#X connect 64 0 65 0;
#X connect 65 0 68 0;
#X connect 65 1 66 1;
#X connect 66 0 22 0;
#X connect 66 1 67 0;
#X connect 67 0 17 0;
#X connect 68 0 66 0;
#X connect 69 0 23 0;
#X connect 70 0 7 0;
#X connect 70 1 71 0;
#X connect 71 0 72 0;
#X connect 71 1 7 0;
#X connect 72 0 7 0;
#X connect 73 0 71 1;
#X connect 74 0 65 0;
#X connect 75 0 20 0;
#X connect 76 0 11 0;
#X connect 77 0 64 0;
#X connect 78 0 18 0;
#X connect 79 0 19 0;
#X connect 80 0 73 0;
#X connect 81 0 16 0;
#X restore 108 140 pd param;
#N canvas 460 88 808 686 mouseover 0;
#X obj 306 31 route -1;
#X obj 351 54 route 4;
#X msg 390 236 0;
#X obj 429 189 moses 2;
#X obj 480 127 route 3;
#X obj 390 78 route 5;
#X obj 429 54 + 1;
#X obj 267 -62 + 1;
#X obj 228 -39 route 6;
#X obj 189 -61 route 5;
#X obj 519 103 - 1;
#X obj 480 148 + 1;
#X msg 525 0 1 0;
#X obj 525 -51 sel 1 2 3 4 5 6 7 8;
#X obj 525 51 unpack f f;
#X msg 636 31 3 \$1;
#X obj 480 188 t b f;
#X msg 429 236 1;
#X msg 468 236 2;
#X msg 480 255 3;
#X msg 507 235 4;
#X obj 68 96 sel 1 0;
#X obj 68 120 t b b;
#X obj 68 143 f;
#X obj 68 165 + 1;
#X obj 120 187 spigot;
#X obj 68 209 t b f;
#X obj 68 188 sel 2 1;
#X obj 122 210 t f b;
#X msg 68 231 2;
#X obj 95 166 t f b;
#X obj 120 235 1;
#X obj 468 371 demux;
#X obj 495 325 r \$1-key;
#X obj 288 502 s \$1-mscroll;
#X msg 468 395 :s;
#X obj 399 444 s \$1-everything;
#X obj 468 348 sel 2 1;
#X msg 399 418 stop;
#X obj 288 477 demux;
#X obj 315 545 s \$1-editor;
#X obj 315 524 sel 2;
#X obj 468 213 moses 5;
#X msg 538 22 1 2;
#X msg 552 0 1 3;
#X msg 566 22 2 4;
#X msg 580 0 2 5;
#X msg 594 22 2 6;
#X msg 608 0 3 7;
#X obj 604 323 == 3;
#X obj 604 345 change;
#X obj 604 367 s \$1-nexton;
#X obj 156 259 demux;
#X obj 508 282 demux;
#X obj 468 282 demux;
#X obj 156 235 t f;
#X obj 267 -17 route 4;
#X obj 306 -41 - 1;
#X obj 267 9 + 1;
#X obj 267 61 moses 4;
#X obj 455 148 f;
#X obj 282 -94 t f f f f f;
#X obj 306 90 t b;
#X obj 267 109 t b f;
#X msg 519 261 5;
#X obj 636 -10 * 2;
#X obj 636 -30 - 4;
#X obj 636 10 + 2;
#X obj 547 282 demux;
#X obj 68 75 t f f f f f;
#X obj 124 368 spigot;
#X obj 124 390 demux;
#X obj 306 9 cyclone/zl rev;
#X obj 429 104 route 0;
#X obj 625 265 sel 0 1;
#X msg 625 291 5;
#X msg 656 291 3;
#X obj 288 299 route 0 1 2 3 4 5;
#X obj 156 286 list prepend;
#X obj 156 309 s \$1-mousein;
#X obj 354 324 demux;
#X obj 381 370 s \$1-clone;
#X obj 381 347 sel 1;
#X obj 124 413 s \$1-Ms;
#X obj 468 303 t f f f;
#X obj 701 321 == 2;
#X obj 701 366 s \$1-nextmon;
#X obj 701 343 change;
#X obj 85 337 s \$1-click2;
#X obj 95 144 del 200;
#X obj 492 655 s otheroff@#;
#X obj 468 655 t f;
#X obj 468 677 s \$1-notme;
#X obj 402 635 s \$1-selon;
#X obj 449 612 t f b b;
#X msg 492 633 1;
#X obj 389 482 ctxfiles/ts \$1 x;
#X obj 509 481 ctxfiles/ts \$1 y;
#X obj 171 210 t f;
#X obj 220 205 demux;
#X obj 220 183 receive \$1-ctrl;
#X obj 247 160 receive \$1-edit;
#X obj 68 53 receive \$1-click;
#X obj 183 235 receive \$1-morphon;
#X obj 168 368 receive \$1-morphon;
#X obj 288 276 receive \$1-mouseout;
#X obj 625 243 receive \$1-xym;
#X obj 525 -78 receive \$1-zsize;
#X obj 282 -121 receive \$1-xsize;
#X obj 189 -103 receive \$1-mousegrid;
#X obj 306 206 t b;
#X obj 306 228 t f;
#X obj 390 31 receive \$1-ysize;
#X connect 0 0 2 0;
#X connect 0 1 1 0;
#X connect 1 0 2 0;
#X connect 1 1 5 0;
#X connect 2 0 54 0;
#X connect 3 0 17 0;
#X connect 3 1 42 0;
#X connect 4 0 11 0;
#X connect 4 1 20 0;
#X connect 5 0 2 0;
#X connect 5 1 73 0;
#X connect 6 0 5 1;
#X connect 7 0 8 1;
#X connect 8 0 2 0;
#X connect 8 1 56 0;
#X connect 9 0 2 0;
#X connect 9 1 8 0;
#X connect 10 0 4 1;
#X connect 11 0 16 0;
#X connect 12 0 14 0;
#X connect 13 0 12 0;
#X connect 13 1 43 0;
#X connect 13 2 44 0;
#X connect 13 3 45 0;
#X connect 13 4 46 0;
#X connect 13 5 47 0;
#X connect 13 6 48 0;
#X connect 13 7 48 0;
#X connect 13 8 66 0;
#X connect 14 0 3 1;
#X connect 14 1 42 1;
#X connect 15 0 14 0;
#X connect 16 0 19 0;
#X connect 16 1 53 0;
#X connect 17 0 54 0;
#X connect 18 0 54 0;
#X connect 19 0 54 0;
#X connect 20 0 54 0;
#X connect 21 0 22 0;
#X connect 21 1 55 0;
#X connect 22 0 23 0;
#X connect 22 1 89 0;
#X connect 23 0 24 0;
#X connect 24 0 23 1;
#X connect 24 0 27 0;
#X connect 25 0 31 0;
#X connect 26 0 29 0;
#X connect 26 1 25 1;
#X connect 27 0 26 0;
#X connect 27 2 28 0;
#X connect 28 0 55 0;
#X connect 28 1 98 0;
#X connect 29 0 55 0;
#X connect 30 0 23 1;
#X connect 30 1 25 0;
#X connect 31 0 55 0;
#X connect 32 0 35 0;
#X connect 33 0 32 1;
#X connect 33 0 39 1;
#X connect 33 0 70 1;
#X connect 35 0 36 0;
#X connect 37 0 32 0;
#X connect 37 1 38 0;
#X connect 38 0 36 0;
#X connect 39 0 34 0;
#X connect 39 0 94 0;
#X connect 39 1 41 0;
#X connect 41 0 40 0;
#X connect 42 0 18 0;
#X connect 42 1 20 0;
#X connect 43 0 14 0;
#X connect 44 0 14 0;
#X connect 45 0 14 0;
#X connect 46 0 14 0;
#X connect 47 0 14 0;
#X connect 48 0 14 0;
#X connect 49 0 50 0;
#X connect 50 0 51 0;
#X connect 52 0 78 0;
#X connect 52 0 88 0;
#X connect 53 0 96 1;
#X connect 54 0 84 0;
#X connect 55 0 52 0;
#X connect 56 0 58 0;
#X connect 56 1 72 0;
#X connect 57 0 56 1;
#X connect 58 0 59 0;
#X connect 59 0 63 0;
#X connect 59 1 62 0;
#X connect 60 0 16 0;
#X connect 61 0 9 1;
#X connect 61 1 7 0;
#X connect 61 2 57 0;
#X connect 61 4 60 1;
#X connect 62 0 60 0;
#X connect 63 0 64 0;
#X connect 63 1 68 0;
#X connect 64 0 54 0;
#X connect 65 0 67 0;
#X connect 66 0 65 0;
#X connect 67 0 15 0;
#X connect 68 0 97 1;
#X connect 69 0 21 0;
#X connect 69 1 25 1;
#X connect 69 2 54 1;
#X connect 69 3 53 1;
#X connect 69 4 68 1;
#X connect 70 0 71 0;
#X connect 71 0 83 0;
#X connect 72 0 0 0;
#X connect 73 0 3 0;
#X connect 73 1 4 0;
#X connect 74 0 75 0;
#X connect 74 1 76 0;
#X connect 75 0 49 1;
#X connect 76 0 49 1;
#X connect 77 1 70 0;
#X connect 77 2 39 0;
#X connect 77 3 96 0;
#X connect 77 4 80 0;
#X connect 77 5 97 0;
#X connect 78 0 79 0;
#X connect 80 0 37 0;
#X connect 80 1 82 0;
#X connect 82 0 81 0;
#X connect 84 0 49 0;
#X connect 84 1 78 1;
#X connect 84 2 85 0;
#X connect 85 0 87 0;
#X connect 87 0 86 0;
#X connect 89 0 30 0;
#X connect 91 0 92 0;
#X connect 94 0 93 0;
#X connect 94 1 91 0;
#X connect 94 2 95 0;
#X connect 95 0 90 0;
#X connect 96 0 94 0;
#X connect 97 0 94 0;
#X connect 98 0 25 1;
#X connect 99 0 80 1;
#X connect 100 0 99 0;
#X connect 101 0 99 1;
#X connect 101 0 110 0;
#X connect 102 0 69 0;
#X connect 103 0 52 1;
#X connect 104 0 71 1;
#X connect 105 0 77 0;
#X connect 106 0 74 0;
#X connect 107 0 13 0;
#X connect 108 0 61 0;
#X connect 109 0 9 0;
#X connect 110 0 111 0;
#X connect 111 0 80 1;
#X connect 112 0 1 1;
#X connect 112 0 6 0;
#X connect 112 0 10 0;
#X connect 112 0 59 1;
#X restore 108 161 pd mouseover;
#N canvas 429 82 916 686 morph 0;
#X obj 148 441 pack f f;
#X obj 179 300 sin;
#X obj 345 43 unpack f f;
#X obj 227 72 sel 0 1;
#X obj 555 177 demux;
#X obj 591 177 demux;
#X msg 582 293 vis 0;
#X msg 657 245 menu-open;
#X msg 443 502 menu-open;
#X msg 511 501 vis 0;
#X obj 427 92 unpack f f f;
#X obj 179 153 list split 1;
#X obj 251 455 pack f f f;
#X obj 251 481 s \$1-paramorph;
#X msg 179 254 0 \, 1.5708 700;
#X obj 510 92 unpack f f;
#X obj 179 181 t b a;
#X obj 376 453 pack f f;
#X obj 281 433 t b f;
#X obj 251 413 t b f;
#X obj 398 424 t b f;
#X obj 166 412 t b f;
#X obj 148 463 s \$1-cnvmorph;
#X msg 376 475 vis_size \$2 \$1;
#X obj 582 328 s \$1-xboxes;
#X obj 582 348 s \$1-yboxes;
#X obj 262 563 s \$1-block;
#X obj 650 59 unpack f f;
#X obj 443 427 pack f f;
#X obj 487 404 t b f;
#X msg 443 453 pos \$1 \$2;
#X obj 726 47 list split 1;
#X obj 206 208 unpack f f f f f f f f f f;
#X obj 179 323 t f f f f f f f f f f;
#X obj 634 553 t f b;
#X msg 583 599 \$1 101;
#X text 40 579 #X obj 120 99 cnv 10 340 317 empty \$1-blockbmm empty
36 23 0 7 -262143 -1 0 \;;
#X obj 757 298 s \$1-flow;
#X obj 604 107 del 700;
#X msg 794 251 1;
#X obj 510 219 t b b b b f;
#X obj 572 643 iemguts/canvasobjectposition 3 2;
#X obj 471 534 iemguts/sendcanvas 3;
#X obj 227 49 t f b b f f;
#X obj 702 546 s \$1-wam;
#X msg 661 530 1;
#X obj 582 219 t b b b b b b;
#X obj 179 277 line 0 50;
#X obj 487 349 ctxfiles/sf 102;
#X obj 457 378 ctxfiles/sf 102;
#X obj 408 349 ctxfiles/sf 2;
#X obj 329 349 ctxfiles/sf 6;
#X obj 288 379 ctxfiles/sf 3;
#X obj 224 349 ctxfiles/sf 121;
#X obj 166 379 ctxfiles/sf 54;
#X obj 128 348 ctxfiles/sf 62;
#X obj 583 578 ctxfiles/sf 102;
#X msg 754 589 17;
#X obj 604 129 t b b;
#X obj 365 378 ctxfiles/sf 35;
#X obj 227 125 pack 0 62 54 121 3 6 35 2 102 102 101;
#X text 48 129 379 338 to 455 286;
#X msg 255 166 455 286 318 8 35 258 415 119 102 195;
#X obj 748 168 iemguts/sendcanvas 3;
#X obj 709 98 del 10;
#X msg 748 142 dirty 0;
#X obj 799 359 s \$1-morphon1;
#X obj 255 93 t b f;
#X msg 798 328 1;
#X obj 669 219 t b f b b;
#X obj 227 26 receive \$1-morphon;
#X obj 345 17 receive \$1-pixsize;
#X obj 427 67 receive \$1-paraml;
#X obj 510 46 receive \$1-cursesize;
#X obj 649 31 receive \$1-tpos;
#X obj 726 9 receive \$1-sl4;
#X msg 525 255 1 \, 0;
#X text 174 615 xfrom yfrom xto yto xsize ysize GOP xmargin ymargin
;
#X msg 662 404 coords 0 -1 1 1 455 286 \$1 86 87;
#X obj 662 426 s \$1-facecan;
#X obj 709 120 t b b b;
#X obj 756 219 t b b;
#X msg 756 258 2;
#X obj 794 273 t f f;
#X connect 0 0 22 0;
#X connect 1 0 33 0;
#X connect 2 0 55 2;
#X connect 2 0 60 1;
#X connect 2 1 54 2;
#X connect 2 1 60 2;
#X connect 3 0 60 0;
#X connect 3 1 67 0;
#X connect 4 0 40 0;
#X connect 4 1 46 0;
#X connect 5 0 69 0;
#X connect 5 1 81 0;
#X connect 6 0 24 0;
#X connect 6 0 25 0;
#X connect 7 0 24 0;
#X connect 7 0 25 0;
#X connect 8 0 42 0;
#X connect 9 0 42 0;
#X connect 10 0 53 2;
#X connect 10 0 60 3;
#X connect 10 1 52 2;
#X connect 10 1 60 4;
#X connect 10 2 51 2;
#X connect 10 2 60 5;
#X connect 11 1 16 0;
#X connect 12 0 13 0;
#X connect 14 0 47 0;
#X connect 15 0 59 2;
#X connect 15 0 60 6;
#X connect 15 1 50 2;
#X connect 15 1 60 7;
#X connect 16 0 14 0;
#X connect 16 1 32 0;
#X connect 17 0 23 0;
#X connect 18 0 12 0;
#X connect 18 1 12 2;
#X connect 19 0 12 0;
#X connect 19 1 12 1;
#X connect 20 0 17 0;
#X connect 20 1 17 1;
#X connect 21 0 0 0;
#X connect 21 1 0 1;
#X connect 23 0 26 0;
#X connect 27 0 49 2;
#X connect 27 0 60 8;
#X connect 27 1 48 2;
#X connect 27 1 60 9;
#X connect 28 0 30 0;
#X connect 29 0 28 0;
#X connect 29 1 28 1;
#X connect 30 0 26 0;
#X connect 31 1 27 0;
#X connect 32 0 55 1;
#X connect 32 1 54 1;
#X connect 32 2 53 1;
#X connect 32 3 52 1;
#X connect 32 4 51 1;
#X connect 32 5 59 1;
#X connect 32 6 50 1;
#X connect 32 7 49 1;
#X connect 32 8 48 1;
#X connect 32 9 34 0;
#X connect 33 0 55 0;
#X connect 33 1 54 0;
#X connect 33 2 53 0;
#X connect 33 3 52 0;
#X connect 33 4 51 0;
#X connect 33 5 59 0;
#X connect 33 6 50 0;
#X connect 33 7 49 0;
#X connect 33 8 48 0;
#X connect 33 9 56 0;
#X connect 34 0 56 1;
#X connect 34 1 57 0;
#X connect 35 0 41 0;
#X connect 38 0 58 0;
#X connect 39 0 83 0;
#X connect 40 0 9 0;
#X connect 40 1 76 0;
#X connect 40 2 8 0;
#X connect 40 4 37 0;
#X connect 43 0 3 0;
#X connect 43 1 4 0;
#X connect 43 2 38 0;
#X connect 43 3 4 1;
#X connect 43 4 5 1;
#X connect 45 0 44 0;
#X connect 46 0 6 0;
#X connect 46 3 45 0;
#X connect 46 5 7 0;
#X connect 47 0 1 0;
#X connect 48 0 29 0;
#X connect 49 0 28 0;
#X connect 50 0 20 0;
#X connect 51 0 18 0;
#X connect 52 0 19 0;
#X connect 53 0 12 0;
#X connect 54 0 21 0;
#X connect 55 0 0 0;
#X connect 56 0 35 0;
#X connect 57 0 41 1;
#X connect 58 0 64 0;
#X connect 58 1 5 0;
#X connect 59 0 17 0;
#X connect 60 0 11 0;
#X connect 62 0 16 0;
#X connect 64 0 80 0;
#X connect 65 0 63 0;
#X connect 67 0 62 0;
#X connect 67 1 66 0;
#X connect 68 0 66 0;
#X connect 69 0 6 0;
#X connect 69 1 44 0;
#X connect 69 2 68 0;
#X connect 69 3 7 0;
#X connect 70 0 43 0;
#X connect 71 0 2 0;
#X connect 72 0 10 0;
#X connect 73 0 15 0;
#X connect 74 0 27 0;
#X connect 75 0 31 0;
#X connect 76 0 78 0;
#X connect 78 0 79 0;
#X connect 80 0 9 0;
#X connect 80 1 8 0;
#X connect 80 2 65 0;
#X connect 81 0 82 0;
#X connect 81 1 39 0;
#X connect 82 0 78 0;
#X connect 83 0 78 0;
#X connect 83 1 37 0;
#X restore 108 183 pd morph;
#N canvas 418 16 796 686 slider 0;
#X obj 298 39 unpack f f;
#X obj 298 336 pack f f f;
#X obj 365 233 *;
#X msg 298 538 pos \$1 102;
#X obj 298 465 demux;
#X obj 348 465 spigot;
#X obj 298 404 line 100 50;
#X msg 298 380 \$1 \, \$2 \$3;
#X obj 474 443 demux;
#X msg 474 468 102;
#X obj 298 315 + 100;
#X obj 355 313 + 100;
#X obj 365 263 +;
#X obj 298 291 * 12;
#X obj 355 289 * 12;
#X obj 365 117 demux;
#X obj 365 139 cyclone/zl rev;
#X obj 365 161 -;
#X obj 392 161 t f;
#X obj 365 207 /;
#X obj 298 17 t a a;
#X obj 365 184 + 1;
#X msg 528 51 1 \$1;
#X obj 528 73 -;
#X obj 298 493 demux;
#X msg 325 516 pos 102 \$1;
#X obj 389 592 s \$1-sl4;
#X obj 298 565 t a a;
#X obj 59 194 sel 0 1;
#X msg 168 462 label \$1;
#X msg 119 462 label;
#X obj 175 391 l2s;
#X obj -17 401 unpack f f;
#X obj -5 446 pack f f;
#X obj -17 424 t b;
#X msg -5 471 color \$2 \$1;
#X obj -112 295 sel 0 1 2 3 4 5;
#X msg -116 339 0;
#X msg 51 339 11;
#X msg -82 339 7;
#X msg 18 339 1;
#X obj 59 266 int;
#X msg -16 339 20;
#X msg -50 339 8;
#X msg 59 220 0 500;
#X msg 99 220 5 500;
#X obj 59 244 line 0 100;
#X obj 609 300 unpack f f;
#X obj 589 343 mux;
#X obj 609 255 t b a;
#X obj 609 277 list;
#X obj 589 378 /;
#X obj 355 65 -;
#X obj 298 66 - 1;
#X obj 412 25 t f f f f b f f f;
#X obj 650 164 t b f f f;
#X obj 533 443 + 97;
#X obj 501 468 f 145;
#X obj 298 591 s \$1-block;
#X obj 59 172 receive \$1-nextmon;
#X obj 298 -5 receive \$1-slist;
#X obj 412 -2 receive \$1-rev;
#X obj 602 41 receive \$1-xy2;
#X obj 650 142 receive \$1-xym;
#X obj 325 430 receive \$1-morphon;
#X obj 484 409 receive \$1-ended1;
#X obj 175 367 receive \$1-nextm;
#X obj -17 374 receive \$1-primary-col;
#X obj 458 139 receive \$1-del1000;
#X obj 392 244 receive \$1-doffset;
#X obj 609 233 receive \$1-cursorsz;
#X obj 602 63 t b f f;
#X obj 458 161 t f f;
#N canvas 485 334 501 348 recalc 0;
#X obj 142 89 inlet;
#X obj 233 302 outlet;
#X obj 233 277 list prepend;
#X obj 233 182 -;
#X obj 142 111 unpack f f f;
#X obj 233 157 swap;
#X obj 254 43 inlet;
#X obj 233 111 receive \$1-started;
#X obj 233 133 timer;
#X obj 233 207 /;
#X obj 293 43 receive \$1-imon;
#X obj 260 65 spigot;
#X obj 233 233 *;
#X obj 260 87 t b f;
#X obj 233 255 t f f f b;
#X connect 0 0 4 0;
#X connect 2 0 1 0;
#X connect 3 0 9 0;
#X connect 4 1 2 1;
#X connect 4 2 5 1;
#X connect 4 2 9 1;
#X connect 5 0 3 0;
#X connect 5 1 3 1;
#X connect 6 0 11 0;
#X connect 7 0 8 0;
#X connect 8 0 5 0;
#X connect 9 0 12 0;
#X connect 10 0 11 1;
#X connect 11 0 13 0;
#X connect 12 0 14 0;
#X connect 13 0 8 1;
#X connect 13 1 12 1;
#X connect 14 0 2 0;
#X connect 14 1 9 1;
#X connect 14 2 5 1;
#X connect 14 3 8 0;
#X restore 435 304 pd recalc;
#X obj 298 358 t l l;
#X obj 168 345 l2s;
#X obj 168 322 receive \$1-message2;
#X obj 119 322 del 500;
#X obj 168 414 mux;
#X obj 183 254 receive \$1-eitherkey;
#X obj 168 437 sp01;
#X obj 183 299 t b b;
#X obj 183 276 t b f;
#X obj 143 276 t b b;
#X obj 119 344 t b b;
#X connect 0 0 53 0;
#X connect 0 1 52 0;
#X connect 1 0 74 0;
#X connect 2 0 12 0;
#X connect 3 0 27 0;
#X connect 4 0 24 0;
#X connect 5 0 24 0;
#X connect 6 0 4 0;
#X connect 7 0 6 0;
#X connect 8 0 9 0;
#X connect 8 1 57 0;
#X connect 9 0 6 0;
#X connect 10 0 1 0;
#X connect 11 0 1 1;
#X connect 12 0 1 2;
#X connect 13 0 10 0;
#X connect 14 0 11 0;
#X connect 15 0 16 0;
#X connect 15 1 18 0;
#X connect 16 0 17 0;
#X connect 17 0 21 0;
#X connect 18 0 21 0;
#X connect 19 0 2 0;
#X connect 20 0 0 0;
#X connect 20 1 15 0;
#X connect 21 0 19 0;
#X connect 22 0 23 0;
#X connect 23 0 21 1;
#X connect 23 0 53 1;
#X connect 24 0 3 0;
#X connect 24 1 25 0;
#X connect 25 0 27 0;
#X connect 27 0 58 0;
#X connect 27 1 26 0;
#X connect 28 0 44 0;
#X connect 28 0 77 0;
#X connect 28 1 45 0;
#X connect 28 1 83 0;
#X connect 29 0 58 0;
#X connect 30 0 58 0;
#X connect 31 0 78 1;
#X connect 32 0 34 0;
#X connect 32 1 33 1;
#X connect 33 0 35 0;
#X connect 34 0 33 0;
#X connect 35 0 58 0;
#X connect 36 0 37 0;
#X connect 36 1 39 0;
#X connect 36 2 43 0;
#X connect 36 3 42 0;
#X connect 36 4 40 0;
#X connect 36 5 38 0;
#X connect 37 0 33 0;
#X connect 38 0 33 0;
#X connect 39 0 33 0;
#X connect 40 0 33 0;
#X connect 41 0 36 0;
#X connect 42 0 33 0;
#X connect 43 0 33 0;
#X connect 44 0 46 0;
#X connect 45 0 46 0;
#X connect 46 0 41 0;
#X connect 47 0 48 0;
#X connect 47 1 48 1;
#X connect 48 0 51 0;
#X connect 48 0 56 0;
#X connect 49 0 50 0;
#X connect 49 1 50 1;
#X connect 50 0 47 0;
#X connect 51 0 14 1;
#X connect 51 0 13 1;
#X connect 52 0 14 0;
#X connect 53 0 13 0;
#X connect 54 2 5 1;
#X connect 54 3 15 1;
#X connect 54 4 8 0;
#X connect 54 5 8 1;
#X connect 54 6 52 1;
#X connect 54 7 22 0;
#X connect 55 0 50 0;
#X connect 55 1 24 1;
#X connect 55 2 48 2;
#X connect 56 0 5 0;
#X connect 56 0 57 1;
#X connect 57 0 6 0;
#X connect 59 0 28 0;
#X connect 60 0 20 0;
#X connect 61 0 54 0;
#X connect 62 0 71 0;
#X connect 63 0 55 0;
#X connect 64 0 4 1;
#X connect 65 0 8 0;
#X connect 66 0 31 0;
#X connect 67 0 32 0;
#X connect 68 0 72 0;
#X connect 69 0 12 1;
#X connect 70 0 49 0;
#X connect 71 0 51 0;
#X connect 71 1 19 1;
#X connect 71 2 51 1;
#X connect 72 0 2 1;
#X connect 72 1 73 1;
#X connect 73 0 6 0;
#X connect 74 0 7 0;
#X connect 74 1 73 0;
#X connect 75 0 78 0;
#X connect 76 0 75 0;
#X connect 77 0 84 0;
#X connect 78 0 80 0;
#X connect 79 0 82 0;
#X connect 80 0 29 0;
#X connect 81 0 75 0;
#X connect 81 1 31 0;
#X connect 82 0 81 0;
#X connect 82 1 78 2;
#X connect 83 0 81 0;
#X connect 83 1 80 2;
#X connect 84 0 30 0;
#X connect 84 1 80 1;
#X restore 108 228 pd slider;
#N canvas 613 350 450 300 next-colour 0;
#X obj 167 86 list;
#X obj 167 108 spigot;
#X obj 167 62 t b a;
#X obj 230 62 t f f;
#X obj 230 86 sel 1 0;
#X obj 167 130 t a b;
#X obj 206 201 pack f \$1;
#X msg 206 228 \; \$2-colmod-\$1 bang;
#X obj 267 201 s \$1-colmod-off;
#X obj 167 152 zl iter 1;
#X obj 167 174 route 0;
#X obj 230 40 receive \$1-nexton;
#X obj 167 20 receive \$1-bu-n;
#X connect 0 0 1 0;
#X connect 1 0 5 0;
#X connect 2 0 0 0;
#X connect 2 1 0 1;
#X connect 3 0 4 0;
#X connect 3 1 1 1;
#X connect 4 0 0 0;
#X connect 4 1 8 0;
#X connect 5 0 9 0;
#X connect 5 1 8 0;
#X connect 6 0 7 0;
#X connect 9 0 10 0;
#X connect 10 1 6 0;
#X connect 11 0 3 0;
#X connect 12 0 2 0;
#X restore 108 252 pd next-colour;
#N canvas 533 232 719 459 clone 0;
#X obj 80 94 spigot;
#X obj 178 134 list split 2;
#X obj 153 157 list;
#X msg 68 279 mouse \$1 \$2 1 0;
#X msg 94 252 editmode 1;
#X msg 104 229 loadbang;
#X obj 190 312 iemguts/sendcanvas 4;
#X msg 289 231 obj \$1 \$2 context;
#X obj 190 208 s \$1-clonemer;
#X obj 190 256 list prepend;
#X obj 190 282 list trim;
#X obj 80 50 receive \$1-clone;
#X obj 113 71 receive \$1-ctrl;
#X obj 178 111 receive \$1-motion;
#X obj 153 182 t b a b b a b;
#X obj 261 182 t f f;
#X obj 288 206 s \$1-eitherkey;
#X obj 190 230 receive \$1-clonemes;
#X connect 0 0 2 0;
#X connect 1 0 2 1;
#X connect 2 0 14 0;
#X connect 3 0 6 0;
#X connect 4 0 6 0;
#X connect 5 0 6 0;
#X connect 7 0 9 1;
#X connect 9 0 10 0;
#X connect 10 0 6 0;
#X connect 11 0 0 0;
#X connect 12 0 0 1;
#X connect 13 0 1 0;
#X connect 14 0 5 0;
#X connect 14 1 3 0;
#X connect 14 2 8 0;
#X connect 14 3 4 0;
#X connect 14 4 7 0;
#X connect 14 5 15 0;
#X connect 15 0 0 1;
#X connect 15 1 16 0;
#X connect 17 0 9 0;
#X restore 374 14 pd clone;
#N canvas 299 98 998 686 color 0;
#X obj 138 166 / -65536;
#X obj 215 167 / -256;
#X obj 138 188 mod 256;
#X obj 215 189 mod 256;
#X obj 281 189 mod 256;
#X obj 281 274 mod 256;
#X obj 215 274 mod 256;
#X obj 138 274 mod 256;
#X obj 138 252 + 128;
#X obj 215 252 + 128;
#X obj 281 252 + 128;
#X obj 138 296 * -65536;
#X obj 215 297 * -256;
#X obj 281 297 * -1;
#X obj 121 112 moses 0;
#X obj 552 228 sel 0 1 2 3 4 5 6 7 8 9 10 11 12 13 14 15 16 17 18 19
20 21 22 23 24 25 26 27 28 29;
#X obj 552 197 mod 30;
#X msg 809 356 0;
#X obj 281 211 t f f;
#X obj 215 211 t f f;
#X obj 138 210 t f f;
#X obj 387 383 >= 2;
#X obj 387 406 - 1;
#X msg 552 264 -1.65798e+007;
#X msg 563 287 -1.05269e+007;
#X msg 575 310 -4.21075e+006;
#X msg 587 333 -1.65726e+007;
#X msg 598 356 -1.65726e+007;
#X msg 610 379 -1.65798e+007;
#X msg 622 263 -1.42205e+007;
#X msg 633 287 -1.42205e+007;
#X msg 645 310 -1.44765e+007;
#X msg 657 332 -1.63085e+007;
#X msg 669 356 -1.47376e+007;
#X msg 680 379 -8.15833e+006;
#X msg 692 264 -2.10538e+006;
#X msg 704 287 -1.65254e+007;
#X msg 715 310 -1.65592e+007;
#X msg 727 332 -1.52638e+007;
#X msg 739 356 -1.37013e+006;
#X msg 750 379 -2.68415e+006;
#X msg 762 264 -3.95289e+006;
#X msg 774 287 -1.58722e+007;
#X msg 786 309 -1.23691e+007;
#X msg 797 332 -6.31613e+006;
#X msg 821 379 -9.1771e+006;
#X msg 832 264 -5.77946e+006;
#X msg 844 286 -7.87458e+006;
#X msg 856 309 -2.64194e+006;
#X msg 867 332 -17488;
#X msg 879 355 -5256;
#X msg 891 378 -5.76725e+006;
#X obj 387 428 t f f;
#X obj 215 339 +;
#X obj 200 365 +;
#X obj 461 321 +;
#X obj 446 347 +;
#X obj 414 449 + 1;
#X obj 414 471 * -1;
#X obj 180 622 s \$1-primary-col;
#X obj 281 167 * -1;
#X obj 121 136 t f f f f;
#X obj 549 444 t f;
#X obj 261 457 demux;
#X obj 200 424 t f f;
#X obj 94 55 r \$1-colours;
#X obj 180 556 pack f f f f f f;
#X msg 271 375 1;
#X obj 200 395 demux;
#X obj 94 86 t f f b;
#X msg 265 345 0;
#X obj 261 507 t f f b;
#X msg 141 36 11;
#X obj 292 481 + 64;
#X obj 261 481 - 64;
#X obj 501 277 < 128;
#X obj 461 277 < 128;
#X obj 421 277 < 128;
#X obj 18 48 t b a b;
#X obj 180 579 demux;
#X msg 57 71 1;
#X obj 18 71 t f;
#X obj 18 26 unpack f f;
#X obj 293 603 s;
#X msg 308 580 symbol \$1-ctncolr;
#X text 441 71 main \, high contrast \, HC text \, main text \, HC
alt \, main alt;
#X obj 18 4 receive \$1-ctncols;
#X obj 141 14 receive \$1-lb;
#X obj 114 524 receive \$1-colobang;
#X connect 0 0 2 0;
#X connect 1 0 3 0;
#X connect 2 0 20 0;
#X connect 3 0 19 0;
#X connect 4 0 18 0;
#X connect 5 0 13 0;
#X connect 6 0 12 0;
#X connect 7 0 11 0;
#X connect 8 0 7 0;
#X connect 9 0 6 0;
#X connect 10 0 5 0;
#X connect 11 0 54 0;
#X connect 12 0 53 0;
#X connect 13 0 53 1;
#X connect 14 0 61 0;
#X connect 14 1 16 0;
#X connect 15 0 23 0;
#X connect 15 1 24 0;
#X connect 15 2 25 0;
#X connect 15 3 26 0;
#X connect 15 4 27 0;
#X connect 15 5 28 0;
#X connect 15 6 29 0;
#X connect 15 7 30 0;
#X connect 15 8 31 0;
#X connect 15 9 32 0;
#X connect 15 10 33 0;
#X connect 15 11 34 0;
#X connect 15 12 35 0;
#X connect 15 13 36 0;
#X connect 15 14 37 0;
#X connect 15 15 38 0;
#X connect 15 16 39 0;
#X connect 15 17 40 0;
#X connect 15 18 41 0;
#X connect 15 19 42 0;
#X connect 15 20 43 0;
#X connect 15 21 44 0;
#X connect 15 22 17 0;
#X connect 15 23 45 0;
#X connect 15 24 46 0;
#X connect 15 25 47 0;
#X connect 15 26 48 0;
#X connect 15 27 49 0;
#X connect 15 28 50 0;
#X connect 15 29 51 0;
#X connect 16 0 15 0;
#X connect 17 0 62 0;
#X connect 18 0 10 0;
#X connect 18 1 75 0;
#X connect 19 0 9 0;
#X connect 19 1 76 0;
#X connect 20 0 8 0;
#X connect 20 1 77 0;
#X connect 21 0 22 0;
#X connect 22 0 52 0;
#X connect 23 0 62 0;
#X connect 24 0 62 0;
#X connect 25 0 62 0;
#X connect 26 0 62 0;
#X connect 27 0 62 0;
#X connect 28 0 62 0;
#X connect 29 0 62 0;
#X connect 30 0 62 0;
#X connect 31 0 62 0;
#X connect 32 0 62 0;
#X connect 33 0 62 0;
#X connect 34 0 62 0;
#X connect 35 0 62 0;
#X connect 36 0 62 0;
#X connect 37 0 62 0;
#X connect 38 0 62 0;
#X connect 39 0 62 0;
#X connect 40 0 62 0;
#X connect 41 0 62 0;
#X connect 42 0 62 0;
#X connect 43 0 62 0;
#X connect 44 0 62 0;
#X connect 45 0 62 0;
#X connect 46 0 62 0;
#X connect 47 0 62 0;
#X connect 48 0 62 0;
#X connect 49 0 62 0;
#X connect 50 0 62 0;
#X connect 51 0 62 0;
#X connect 52 0 66 2;
#X connect 52 1 57 0;
#X connect 53 0 54 1;
#X connect 54 0 68 0;
#X connect 55 0 56 1;
#X connect 56 0 21 0;
#X connect 57 0 58 0;
#X connect 58 0 66 3;
#X connect 60 0 4 0;
#X connect 61 0 0 0;
#X connect 61 1 1 0;
#X connect 61 3 60 0;
#X connect 62 0 61 0;
#X connect 63 0 74 0;
#X connect 63 1 73 0;
#X connect 64 0 66 1;
#X connect 64 1 63 0;
#X connect 65 0 69 0;
#X connect 66 0 79 0;
#X connect 67 0 68 1;
#X connect 68 0 64 0;
#X connect 68 1 66 5;
#X connect 69 0 66 0;
#X connect 69 1 14 0;
#X connect 69 2 70 0;
#X connect 70 0 68 1;
#X connect 71 0 66 4;
#X connect 71 1 61 0;
#X connect 71 2 67 0;
#X connect 72 0 69 0;
#X connect 73 0 71 0;
#X connect 74 0 71 0;
#X connect 75 0 55 1;
#X connect 75 0 63 1;
#X connect 76 0 55 0;
#X connect 77 0 56 0;
#X connect 78 0 81 0;
#X connect 78 1 69 0;
#X connect 78 2 80 0;
#X connect 79 0 59 0;
#X connect 79 1 83 0;
#X connect 80 0 79 1;
#X connect 81 0 79 1;
#X connect 82 0 78 0;
#X connect 82 1 84 0;
#X connect 84 0 83 1;
#X connect 86 0 82 0;
#X connect 87 0 72 0;
#X connect 88 0 66 0;
#X restore 375 37 pd color;
#N canvas 680 103 548 686 xyswitch 0;
#X obj 204 95 sel 0 1;
#X msg 234 213 2 \$1;
#X msg 312 212 \$1 2;
#X obj 327 290 unpack f f;
#X obj 261 312 line 0 50;
#X obj 261 335 t f f;
#X obj 261 265 t b a;
#X obj 312 188 f 46;
#X obj 234 188 f 34;
#X obj 281 555 pack f f;
#X obj 299 390 demux;
#X obj 261 390 demux;
#X msg 281 577 vis_size \$1 \$2;
#X obj 308 419 demux;
#X obj 386 419 demux;
#X msg 308 441 2;
#X msg 413 440 2;
#X obj 299 502 t b f f;
#X obj 171 425 spigot;
#X obj 281 523 t f f;
#X obj 64 425 spigot;
#X obj 64 447 pack f f;
#X obj 171 447 pack f f;
#X obj 64 469 cyclone/zl rev;
#X obj 171 469 cyclone/zl rev;
#X obj 64 491 -;
#X obj 171 491 -;
#X obj 64 553 pack f f;
#X msg 64 598 pos \$1 \$2;
#X obj 171 536 t b f;
#X obj 261 358 pow 4;
#X obj 299 358 pow 0.25;
#X obj 234 242 demux;
#X obj 64 513 + 101;
#X obj 171 514 + 101;
#X obj 64 575 t a a;
#X obj 90 622 s \$1-tpos;
#X msg 261 290 0 \, 1 500;
#X obj 204 75 t f f f f f f;
#X obj 319 75 f;
#X obj 319 97 s \$1-xym-2;
#X obj 359 475 ctxfiles/sf 46;
#X obj 281 475 ctxfiles/sf 2;
#X obj 426 77 unpack f f;
#X obj 493 100 - 2;
#X obj 426 101 - 2;
#X obj 281 602 s \$1-block;
#X obj 319 51 receive \$1-colobang;
#X obj 426 30 receive \$1-cursorsz;
#X obj 205 54 receive \$1-xym;
#X obj 351 213 receive \$1-savestart;
#X obj 159 358 receive \$1-rev;
#X connect 0 0 8 0;
#X connect 0 1 7 0;
#X connect 1 0 32 0;
#X connect 2 0 32 0;
#X connect 3 0 42 1;
#X connect 3 1 41 1;
#X connect 4 0 5 0;
#X connect 5 0 30 0;
#X connect 5 1 31 0;
#X connect 6 0 37 0;
#X connect 6 1 3 0;
#X connect 7 0 2 0;
#X connect 8 0 1 0;
#X connect 9 0 12 0;
#X connect 10 0 42 0;
#X connect 10 1 41 0;
#X connect 11 0 41 0;
#X connect 11 1 42 0;
#X connect 12 0 46 0;
#X connect 13 0 15 0;
#X connect 13 1 42 2;
#X connect 14 0 41 2;
#X connect 14 1 16 0;
#X connect 15 0 42 2;
#X connect 16 0 41 2;
#X connect 17 0 9 0;
#X connect 17 1 9 1;
#X connect 17 2 18 0;
#X connect 18 0 22 0;
#X connect 19 0 9 0;
#X connect 19 1 20 0;
#X connect 20 0 21 0;
#X connect 21 0 23 0;
#X connect 22 0 24 0;
#X connect 23 0 25 0;
#X connect 24 0 26 0;
#X connect 25 0 33 0;
#X connect 26 0 34 0;
#X connect 27 0 35 0;
#X connect 28 0 46 0;
#X connect 29 0 27 0;
#X connect 29 1 27 1;
#X connect 30 0 11 0;
#X connect 31 0 10 0;
#X connect 32 0 12 0;
#X connect 32 1 6 0;
#X connect 33 0 27 0;
#X connect 34 0 29 0;
#X connect 35 0 28 0;
#X connect 35 1 36 0;
#X connect 37 0 4 0;
#X connect 38 0 0 0;
#X connect 38 1 10 1;
#X connect 38 2 11 1;
#X connect 38 3 13 1;
#X connect 38 4 14 1;
#X connect 38 5 39 1;
#X connect 39 0 40 0;
#X connect 41 0 17 0;
#X connect 42 0 19 0;
#X connect 43 0 45 0;
#X connect 43 1 44 0;
#X connect 44 0 8 1;
#X connect 44 0 13 0;
#X connect 44 0 22 1;
#X connect 45 0 7 1;
#X connect 45 0 14 0;
#X connect 45 0 21 1;
#X connect 47 0 39 0;
#X connect 48 0 43 0;
#X connect 49 0 38 0;
#X connect 50 0 32 1;
#X connect 51 0 18 1;
#X connect 51 0 20 1;
#X restore 375 60 pd xyswitch;
#X obj 16 276 iemguts/canvasdelete 1;
#N canvas 542 301 696 384 rewire 0;
#X obj 265 247 msgfile;
#X msg 247 180 flush;
#X obj 230 309 ctxfiles/enlist;
#X msg 212 134 1;
#X obj 195 82 spigot 1;
#X obj 230 336 s \$1-olist;
#X obj 461 51 ctxfiles/exlist;
#X obj 484 176 s \$1-overlay;
#X msg 507 146 menu-open;
#X msg 461 146 vis 0;
#X msg 195 161 clear;
#X obj 195 110 t b b b b b f;
#X obj 429 30 t b a;
#X msg 429 76 loadbang;
#X msg 265 227 read ctxfiles/tmp/\$1-overlay.pd;
#X obj 265 203 f \$1;
#N canvas 171 311 578 425 remover 0;
#X obj 71 8 inlet;
#X obj 71 53 route #X;
#X obj 71 76 route coords;
#X obj 71 30 list trim;
#X obj 152 163 moocow/any2bytes;
#X text 220 52 92 36 49;
#X obj 152 304 moocow/bytes2any;
#X obj 152 328 outlet;
#X obj 182 211 cyclone/zl iter 1;
#X obj 182 236 route 92;
#X msg 270 135 1;
#X obj 219 135 t f;
#X obj 152 98 t a a;
#X obj 152 120 spigot;
#X obj 219 91 cyclone/zl nth 4;
#X text 265 163 <<-- replace these with tosymbol;
#X obj 219 113 route olr;
#X obj 152 273 ctxfiles/ex01;
#X obj 152 185 t b a;
#X connect 0 0 3 0;
#X connect 1 0 2 0;
#X connect 2 1 12 0;
#X connect 3 0 1 0;
#X connect 4 0 18 0;
#X connect 6 0 7 0;
#X connect 8 0 9 0;
#X connect 9 1 17 1;
#X connect 10 0 13 1;
#X connect 11 0 13 1;
#X connect 12 0 13 0;
#X connect 12 1 14 0;
#X connect 13 0 4 0;
#X connect 14 0 16 0;
#X connect 16 0 11 0;
#X connect 16 1 10 0;
#X connect 17 0 6 0;
#X connect 18 0 17 0;
#X connect 18 1 8 0;
#X restore 317 277 pd remover;
#X obj 195 49 receive \$1-overlay-save;
#X obj 429 9 receive \$1-hacklist;
#X obj 461 123 t b a b b;
#X obj 580 163 s \$1-opened;
#X msg 580 138 1;
#X connect 0 0 16 0;
#X connect 1 0 0 0;
#X connect 2 0 5 0;
#X connect 3 0 4 1;
#X connect 4 0 11 0;
#X connect 6 0 19 0;
#X connect 8 0 7 0;
#X connect 9 0 7 0;
#X connect 10 0 0 0;
#X connect 11 0 10 0;
#X connect 11 1 3 0;
#X connect 11 2 2 0;
#X connect 11 3 1 0;
#X connect 11 4 15 0;
#X connect 11 5 4 1;
#X connect 12 0 13 0;
#X connect 12 1 6 0;
#X connect 13 0 7 0;
#X connect 14 0 0 0;
#X connect 15 0 14 0;
#X connect 16 0 2 1;
#X connect 17 0 4 0;
#X connect 18 0 12 0;
#X connect 19 0 9 0;
#X connect 19 1 7 0;
#X connect 19 2 8 0;
#X connect 19 3 21 0;
#X connect 21 0 20 0;
#X restore 328 199 pd rewire;
#N canvas 591 261 450 352 timestretch 0;
#X obj 109 158 mux;
#X obj 109 112 unpack f f;
#X obj 109 67 t b a;
#X obj 109 89 list;
#X obj 177 112 t b f;
#X obj 109 180 t f f;
#X obj 136 249 /;
#X obj 136 205 spigot;
#X obj 136 271 *;
#X obj 136 296 s \$1-dr;
#X obj 109 45 receive \$1-cursorsz;
#X obj 177 89 receive \$1-xym;
#X obj 170 181 receive \$1-ctrl;
#X obj 163 249 receive delay\$1s;
#X connect 0 0 5 0;
#X connect 1 0 0 0;
#X connect 1 1 0 1;
#X connect 2 0 3 0;
#X connect 2 1 3 1;
#X connect 3 0 1 0;
#X connect 4 0 3 0;
#X connect 4 1 0 2;
#X connect 5 0 6 1;
#X connect 5 1 7 0;
#X connect 6 0 8 0;
#X connect 7 0 6 0;
#X connect 8 0 9 0;
#X connect 10 0 2 0;
#X connect 11 0 4 0;
#X connect 12 0 7 1;
#X connect 13 0 8 1;
#X restore 378 102 pd timestretch;
#X obj 377 257 ctxfiles/zd \$1 y 4;
#X obj 74 97 ctxfiles/sz zsize 31 \$1 5 0 Z;
#X obj 374 235 ctxfiles/zd \$1 x 5;
