#N canvas 65 99 571 431 10;
#X obj 76 58 inlet;
#X obj 110 112 * 60;
#X obj 214 113 * 720;
#X obj 214 179 s \$1-dr;
#X obj 76 82 route M minute minutes H hour hours;
#X obj 214 150 adder;
#X obj 251 113 receive delay\$1s;
#X connect 0 0 4 0;
#X connect 1 0 5 0;
#X connect 2 0 5 0;
#X connect 4 0 1 0;
#X connect 4 1 1 0;
#X connect 4 2 1 0;
#X connect 4 3 2 0;
#X connect 4 4 2 0;
#X connect 4 5 2 0;
#X connect 4 6 5 0;
#X connect 5 0 3 0;
#X connect 6 0 5 1;
