#N canvas 65 86 450 300 10;
#X obj 189 86 t f f;
#X obj 216 109 abs;
#X obj 160 109 moses 0;
#X msg 186 131 0;
#X msg 160 131 1;
#X obj 160 155 change;
#X obj 189 61 inlet;
#X obj 216 132 s delay\$1s;
#X obj 160 179 s \$1-revr;
#X connect 0 0 2 0;
#X connect 0 1 1 0;
#X connect 1 0 7 0;
#X connect 2 0 4 0;
#X connect 2 1 3 0;
#X connect 3 0 5 0;
#X connect 4 0 5 0;
#X connect 5 0 8 0;
#X connect 6 0 0 0;
