#N canvas 368 201 673 422 10;
#X msg 176 219 label definite;
#X msg 200 249 label even;
#X msg 212 276 label gaussian (s \$1);
#X obj 213 100 hsl 101 12 0.64 64 1 0 \$1-noo \$1-no definite 7 6 0
9 -262130 -1 -1 0 1;
#X obj 104 100 hsl 101 12 -0.01 1 0 0 \$1-\$3e \$1-\$2e + 0 7 6 0
9 -262130 -1 -1 0 1;
#X obj 524 275 int;
#X msg 578 355 label + \$1;
#X obj 479 53 route float;
#X obj 506 143 s \$1-\$2e;
#X obj 176 306 s \$1-\$4;
#X obj 524 320 t f f;
#X obj 506 98 / 1;
#X obj 497 221 *;
#X obj 524 383 s \$1-\$3;
#X obj 479 76 t f f;
#X msg 506 120 set \$1;
#X msg 426 289 label off;
#X obj 528 221 s \$1-\$2-f;
#X obj 320 100 tgl 12 0 \$1-\$7 \$1-\$6 \$9 -319 6 0 10 -262130 -1
-1 0 1;
#X obj 300 166 array define \$1-\$8 64;
#X obj 175 196 route 0.64 64;
#X obj 210 150 s \$1-\$5;
#X obj 261 61 + 0.64;
#X obj 210 126 - 0.64;
#X obj 261 37 route float;
#X obj 497 244 moses;
#X obj 497 197 t f f;
#X obj 524 298 change -2;
#X msg 497 275 -1;
#X obj 563 53 receive \$1-yx22;
#X obj 479 28 receive \$1-\$2;
#X obj 261 15 receive \$1-\$4;
#X obj 126 24 receive \$0-colorme;
#X obj 498 176 receive \$1-\$3e;
#X connect 0 0 9 0;
#X connect 1 0 9 0;
#X connect 2 0 9 0;
#X connect 3 0 23 0;
#X connect 3 0 20 0;
#X connect 5 0 27 0;
#X connect 6 0 8 0;
#X connect 7 0 14 0;
#X connect 7 1 8 0;
#X connect 10 0 13 0;
#X connect 10 1 6 0;
#X connect 11 0 15 0;
#X connect 12 0 25 0;
#X connect 14 0 25 0;
#X connect 14 1 11 0;
#X connect 15 0 8 0;
#X connect 16 0 8 0;
#X connect 20 0 0 0;
#X connect 20 1 1 0;
#X connect 20 2 2 0;
#X connect 22 0 3 0;
#X connect 23 0 21 0;
#X connect 24 0 22 0;
#X connect 24 1 3 0;
#X connect 25 0 28 0;
#X connect 25 0 16 0;
#X connect 25 1 5 0;
#X connect 26 0 12 0;
#X connect 26 1 17 0;
#X connect 27 0 10 0;
#X connect 28 0 27 0;
#X connect 29 0 11 1;
#X connect 29 0 12 1;
#X connect 30 0 7 0;
#X connect 31 0 24 0;
#X connect 32 0 4 0;
#X connect 32 0 3 0;
#X connect 32 0 18 0;
#X connect 33 0 26 0;
#X coords 0 -1 1 1 232 12 2 100 100;
