#N canvas 879 173 450 568 10;
#X obj 237 152 outlet;
#X obj 210 106 int;
#X obj 183 154 -;
#X obj 183 80 t f f;
#X obj 210 128 t f f;
#X obj 34 412 outlet;
#X obj 229 518 outlet;
#X obj 103 261 r \$2-\$3\$1;
#X obj 34 311 r \$2\$3\$3\$1;
#X obj 107 177 r \$2-\$3\$1rr;
#X text 107 160 restart;
#X obj 183 295 f;
#X obj 239 317 - 1;
#X obj 183 340 != 0;
#X obj 34 336 demux;
#X obj 61 379 t b;
#X obj 183 176 * 100;
#X obj 183 199 int;
#X floatatom 56 194 5 0 0 0 - - -, f 5;
#X obj 56 213 != 0;
#X floatatom 56 235 5 0 0 0 - - -, f 5;
#X obj 183 317 t f f f;
#X obj 61 357 demux;
#X obj 103 336 != 0;
#X obj 88 379 t a b;
#X obj 183 223 t f f;
#X obj 222 243 sel 0;
#X obj 268 491 f \$1;
#X obj 183 267 sp01;
#X obj 202 394 sel 0;
#X obj 202 438 demux;
#X obj 103 313 sp01 1;
#X obj 249 264 t b b b;
#X obj 202 416 t b b b;
#X obj 229 462 t f;
#X obj 311 401 print \$1-count;
#X obj 183 56 r \$2-\$4\$1;
#X connect 1 0 4 0;
#X connect 2 0 16 0;
#X connect 3 0 2 0;
#X connect 3 1 1 0;
#X connect 4 0 2 1;
#X connect 4 1 0 0;
#X connect 7 0 31 0;
#X connect 8 0 14 0;
#X connect 9 0 25 0;
#X connect 11 0 21 0;
#X connect 12 0 11 1;
#X connect 13 0 14 1;
#X connect 14 0 5 0;
#X connect 14 1 22 0;
#X connect 15 0 11 0;
#X connect 16 0 17 0;
#X connect 17 0 25 0;
#X connect 18 0 19 0;
#X connect 19 0 20 0;
#X connect 21 0 13 0;
#X connect 21 1 29 0;
#X connect 21 2 12 0;
#X connect 21 2 35 0;
#X connect 22 0 15 0;
#X connect 22 1 24 0;
#X connect 23 0 22 1;
#X connect 23 0 30 1;
#X connect 24 0 5 0;
#X connect 24 1 11 0;
#X connect 25 0 28 0;
#X connect 25 1 26 0;
#X connect 26 1 32 0;
#X connect 27 0 6 0;
#X connect 28 0 11 0;
#X connect 29 0 33 0;
#X connect 30 0 27 0;
#X connect 30 1 34 0;
#X connect 31 0 23 0;
#X connect 32 0 28 2;
#X connect 32 1 27 0;
#X connect 32 2 31 1;
#X connect 33 0 30 0;
#X connect 33 1 28 1;
#X connect 33 2 31 2;
#X connect 34 0 6 0;
#X connect 36 0 3 0;
