#N canvas 560 101 791 687 10;
#X obj 215 131 route " ';
#X obj 190 386 +;
#X obj 241 354 f 1;
#X obj 190 355 f 1;
#X obj 205 329 * 1;
#X obj 256 329 * 1;
#X obj 160 156 t b b b b b b;
#X msg 372 223 1;
#X obj 329 356 t f f;
#X obj 254 157 t b b b b b b;
#X obj 163 477 demux;
#X msg 160 209 1;
#X msg 175 189 -1;
#X msg 254 185 -1;
#X msg 269 212 1;
#X obj 190 430 > 0;
#X obj 114 549 ctxfiles/sp01 1;
#X obj 114 500 t b b a;
#X obj 224 549 ctxfiles/sp01 1;
#X obj 224 500 t b b a;
#X obj 176 11 inlet;
#X obj 114 571 outlet l;
#X obj 224 571 outlet r;
#X obj 235 247 sp01;
#X obj 329 247 sp01;
#X obj 176 84 cyclone/zl iter 1;
#X obj 420 556 sel 0;
#X obj 190 408 t f f;
#X obj 329 284 f 1;
#X obj 329 309 * -1;
#X obj 190 452 t f f;
#X obj 420 529 f;
#X obj 176 106 t b a a;
#X obj 398 105 t b f b b;
#X obj 176 33 t a b b b b;
#X obj 286 51 t f;
#X connect 0 0 6 0;
#X connect 0 1 9 0;
#X connect 1 0 27 0;
#X connect 2 0 1 0;
#X connect 3 0 1 0;
#X connect 4 0 3 1;
#X connect 5 0 2 1;
#X connect 6 0 11 0;
#X connect 6 1 12 0;
#X connect 6 2 3 0;
#X connect 6 3 24 1;
#X connect 6 4 23 2;
#X connect 6 5 23 0;
#X connect 7 0 8 0;
#X connect 7 0 2 1;
#X connect 7 0 3 1;
#X connect 7 0 28 1;
#X connect 8 0 4 1;
#X connect 8 1 5 1;
#X connect 9 0 13 0;
#X connect 9 1 14 0;
#X connect 9 2 2 0;
#X connect 9 3 23 1;
#X connect 9 4 24 2;
#X connect 9 5 24 0;
#X connect 10 0 17 0;
#X connect 10 1 19 0;
#X connect 11 0 5 0;
#X connect 12 0 4 0;
#X connect 13 0 5 0;
#X connect 14 0 4 0;
#X connect 15 0 30 0;
#X connect 16 0 21 0;
#X connect 17 0 18 1;
#X connect 17 1 16 2;
#X connect 17 2 16 0;
#X connect 18 0 22 0;
#X connect 19 0 16 1;
#X connect 19 1 18 2;
#X connect 19 2 18 0;
#X connect 20 0 34 0;
#X connect 23 0 28 0;
#X connect 24 0 28 0;
#X connect 25 0 32 0;
#X connect 26 0 33 0;
#X connect 27 0 15 0;
#X connect 27 1 1 1;
#X connect 28 0 29 0;
#X connect 29 0 8 0;
#X connect 30 0 10 1;
#X connect 30 1 31 1;
#X connect 31 0 26 0;
#X connect 32 0 31 0;
#X connect 32 1 10 0;
#X connect 32 2 0 0;
#X connect 33 0 7 0;
#X connect 33 1 1 1;
#X connect 33 2 23 1;
#X connect 33 3 24 1;
#X connect 34 0 25 0;
#X connect 34 1 33 0;
#X connect 34 2 16 2;
#X connect 34 3 18 2;
#X connect 34 4 35 0;
#X connect 35 0 10 1;
