#N canvas 607 87 450 296 10;
#X obj 82 68 inlet;
#X obj 157 69 inlet;
#X obj 82 98 demux 0 1 2 3;
#X obj 82 202 pack f f;
#X obj 62 235 iemguts/canvasposition 3;
#X obj 82 120 t f f;
#X obj 153 152 -;
#X obj 7 213 r \$1-lb;
#X obj 182 152 * 12;
#X obj 182 129 r \$1-xsize-2;
#X obj 153 178 -;
#X msg 153 200 :F \$1;
#X obj 293 152 -;
#X obj 322 152 * 12;
#X obj 293 178 -;
#X obj 103 152 t b f f;
#X obj 321 129 r \$1-ysize-2;
#X msg 293 200 :G \$1;
#X obj 255 258 s \$1-anymessage;
#X connect 0 0 2 0;
#X connect 1 0 2 1;
#X connect 2 0 5 0;
#X connect 2 1 15 0;
#X connect 2 2 6 0;
#X connect 2 3 12 0;
#X connect 3 0 4 0;
#X connect 4 0 3 0;
#X connect 5 0 3 0;
#X connect 5 1 6 1;
#X connect 6 0 10 0;
#X connect 7 0 4 0;
#X connect 8 0 10 1;
#X connect 9 0 8 0;
#X connect 10 0 11 0;
#X connect 11 0 18 0;
#X connect 12 0 14 0;
#X connect 13 0 14 1;
#X connect 14 0 17 0;
#X connect 15 0 3 0;
#X connect 15 1 3 1;
#X connect 15 2 12 1;
#X connect 16 0 13 0;
#X connect 17 0 18 0;
