#N canvas 65 81 450 300 10;
#X obj 91 124 list split 1;
#X obj 131 171 list split;
#X obj 214 195 list trim;
#X obj 131 147 t a a;
#X obj 214 172 list split;
#X obj 91 77 t a a;
#X obj 123 101 list split 1;
#X obj 91 55 inlet;
#X obj 214 217 outlet;
#X connect 0 0 1 0;
#X connect 0 1 3 0;
#X connect 1 1 5 0;
#X connect 2 0 8 0;
#X connect 3 0 1 0;
#X connect 3 1 4 0;
#X connect 4 0 2 0;
#X connect 5 0 0 0;
#X connect 5 1 6 0;
#X connect 6 0 4 1;
#X connect 6 0 1 1;
#X connect 7 0 5 0;
