#N canvas 395 189 450 300 10;
#X obj 78 114 list-abs/list-filter;
#X obj 234 114 moses 0;
#X obj 78 90 inlet;
#X obj 291 72 t b f;
#X obj 273 137 moses \$3;
#X obj 318 115 + \$4;
#X obj 135 162 list prepend :\$2;
#X obj 78 137 route bang;
#X obj 135 185 t a a;
#X obj 135 207 outlet;
#X obj 179 207 s \$1-\$2flt;
#X obj 291 50 receive \$1-\$2size-2;
#X connect 0 0 7 0;
#X connect 0 1 1 0;
#X connect 1 1 4 0;
#X connect 2 0 0 0;
#X connect 3 0 0 0;
#X connect 3 1 5 0;
#X connect 4 0 0 1;
#X connect 5 0 4 1;
#X connect 6 0 8 0;
#X connect 7 0 8 0;
#X connect 7 1 6 0;
#X connect 8 0 9 0;
#X connect 8 1 10 0;
#X connect 11 0 3 0;
