#N canvas 508 173 721 473 10;
#X obj 412 342 s \$0-labr;
#X obj 103 100 hsl 126 15 0 127 0 0 \$0-labs \$0-labr \$2 0 7 0 10
-262134 -262134 -1 0 1;
#X obj 156 201 sp01 1;
#X msg 412 320 color \$1 \$1 \$2;
#X obj 156 146 receive \$0-labs;
#X obj 412 297 receive \$1-bbcol;
#X obj 206 201 receive \$1-mup;
#X obj 156 268 s \$1-helpout;
#X obj 156 246 f \$3;
#X msg 316 241 label;
#X obj 156 168 sp01 1;
#X text 235 33 arguments: \$1 \, original label \, number \, \$0;
#X obj 316 175 receive \$4-\$3-rehelp;
#X obj 370 240 list prepend label;
#X obj 370 262 list trim;
#X obj 317 197 route **;
#X obj 343 218 t b a a;
#X obj 156 224 t b b b;
#X obj 195 319 list append \$2;
#X obj 195 341 s \$1-symset;
#X connect 2 0 17 0;
#X connect 3 0 0 0;
#X connect 4 0 10 0;
#X connect 5 0 3 0;
#X connect 6 0 2 2;
#X connect 8 0 7 0;
#X connect 9 0 0 0;
#X connect 10 0 2 0;
#X connect 12 0 15 0;
#X connect 13 0 14 0;
#X connect 14 0 0 0;
#X connect 15 0 9 0;
#X connect 15 0 10 1;
#X connect 15 1 16 0;
#X connect 16 0 10 2;
#X connect 16 1 13 0;
#X connect 16 2 18 1;
#X connect 17 0 8 0;
#X connect 17 1 2 1;
#X connect 17 2 18 0;
#X connect 18 0 19 0;
#X coords 0 -1 1 1 131 15 2 100 100;
