#N canvas 433 81 879 687 10;
#X obj 412 342 s \$0-labr;
#X obj 103 100 hsl 126 15 0 127 0 0 \$0-labs \$0-labr \$2 0 7 0 10
-262134 -262134 -1 0 1;
#X obj 156 201 sp01 1;
#X msg 412 320 color \$1 \$1 \$2;
#X obj 156 146 receive \$0-labs;
#X obj 412 297 receive \$1-bbcol;
#X obj 206 201 receive \$1-mup;
#X obj 156 268 s \$1-helpout;
#X obj 156 246 f \$3;
#X msg 316 241 label;
#X obj 156 168 sp01 1;
#X text 235 33 arguments: \$1 \, original label \, number \, \$0;
#X obj 316 175 receive \$4-\$3-rehelp;
#X obj 370 240 list prepend label;
#X obj 370 262 list trim;
#X obj 317 197 route **;
#X obj 195 319 list append \$2;
#X obj 195 341 s \$1-symset;
#X obj 559 303 list-abs/list-pad;
#X obj 343 218 t b a a a;
#X obj 590 154 receive \$1-flb;
#X obj 559 259 list fromsymbol;
#X msg 617 201 list 160 160 160 160 160 160 160 160 160 160 160 160
160 160 160 160 160 160 160 160 160;
#X obj 559 281 list-abs/list-filter;
#X obj 691 281 != 194;
#X obj 559 236 symbol \$2;
#X obj 687 344 receive \$1-blippp;
#X obj 586 556 cyclone/zl rot;
#X obj 586 532 list prepend;
#X obj 590 176 t b b b;
#X obj 586 578 t a b;
#X obj 156 224 t b b b f b;
#X obj 559 325 demux;
#X msg 589 200 1;
#X msg 230 405 1 2 3 4 5 6 7 8 9 10 11 12 13 14 15 16 17 18 19 20 21
;
#X msg 215 448 22 23 24 25 26 27 28 29 30 31 32 33 34 35 36 37 38 39
40 41 42;
#X obj 586 600 list split 21;
#X obj 586 622 t a a;
#X obj 613 645 sp01;
#X obj 646 485 t b f b;
#X obj 586 668 list tosymbol;
#X msg 504 582 label \$1;
#X obj 646 508 del 7;
#X obj 613 441 - 1;
#X obj 613 419 f 22;
#X obj 613 485 t b b;
#X msg 613 508 22;
#X obj 613 463 sel 0;
#X obj 717 552 print t;
#X obj 586 396 t a b;
#X obj 586 348 t b a;
#X obj 586 372 list;
#X connect 2 0 31 0;
#X connect 3 0 0 0;
#X connect 4 0 10 0;
#X connect 5 0 3 0;
#X connect 6 0 2 2;
#X connect 8 0 7 0;
#X connect 9 0 0 0;
#X connect 10 0 2 0;
#X connect 12 0 15 0;
#X connect 13 0 14 0;
#X connect 14 0 0 0;
#X connect 15 0 9 0;
#X connect 15 0 10 1;
#X connect 15 1 19 0;
#X connect 16 0 17 0;
#X connect 18 0 32 0;
#X connect 19 0 10 2;
#X connect 19 1 13 0;
#X connect 19 2 16 1;
#X connect 19 3 25 0;
#X connect 20 0 29 0;
#X connect 21 0 23 0;
#X connect 22 0 18 1;
#X connect 23 0 18 0;
#X connect 23 1 24 0;
#X connect 24 0 23 1;
#X connect 25 0 21 0;
#X connect 27 0 30 0;
#X connect 28 0 27 0;
#X connect 29 0 33 0;
#X connect 29 1 25 0;
#X connect 29 2 22 0;
#X connect 30 0 36 0;
#X connect 31 0 8 0;
#X connect 31 1 2 1;
#X connect 31 2 16 0;
#X connect 32 0 28 1;
#X connect 32 1 50 0;
#X connect 33 0 32 1;
#X connect 34 0 28 1;
#X connect 35 0 49 0;
#X connect 36 0 37 0;
#X connect 37 0 40 0;
#X connect 37 1 38 0;
#X connect 38 0 28 1;
#X connect 39 0 42 0;
#X connect 39 1 27 1;
#X connect 39 2 38 1;
#X connect 40 0 41 0;
#X connect 41 0 0 0;
#X connect 42 0 49 0;
#X connect 43 0 44 1;
#X connect 43 0 47 0;
#X connect 44 0 43 0;
#X connect 45 0 46 0;
#X connect 45 1 38 2;
#X connect 46 0 44 1;
#X connect 47 0 45 0;
#X connect 47 1 39 0;
#X connect 49 0 28 0;
#X connect 49 1 44 0;
#X connect 50 0 51 0;
#X connect 50 1 51 1;
#X connect 51 0 49 0;
#X coords 0 -1 1 1 131 15 2 100 100;
