#N canvas 230 172 645 506 10;
#X obj 114 15 receive \$1-helpdel;
#X obj 114 39 iemguts/canvasdelete 1;
#X symbolatom 101 101 16 0 0 0 - #0-searchr #0-search, f 16;
#X obj 201 100 bng 15 250 50 0 \$0-back \$0-nil < 5 8 0 10 -262144
-1 -1;
#X obj 320 -33 receive \$1-helpout;
#X obj 516 150 text define \$0-help;
#X obj 320 82 text get \$0-help;
#X obj 516 106 receive \$1-flb;
#X floatatom 279 -22 5 0 0 0 - - -, f 5;
#X obj 320 321 list-abs/list-enumerate;
#X obj 320 344 list append \$0;
#X msg 320 366 \; \$3-\$1-rehelp \$2;
#X obj 320 -11 + 1;
#X obj 320 11 +;
#X obj 320 222 t a b;
#X obj 347 245 f;
#X obj 347 267 * 6;
#X obj 434 103 f;
#X obj 434 28 receive \$0-back;
#X obj 434 125 - 1;
#X obj 320 56 t f f;
#X obj 347 289 t f f;
#X obj 434 147 div 36;
#X obj 179 225 receive \$0-search;
#X obj 230 454 text search \$0-help 1;
#X obj 230 431 s2l;
#X obj 320 33 max;
#X obj 453 239 print two;
#X obj 345 198 print :;
#X msg 516 127 read helptext.txt;
#X obj 320 174 route 0 1 2;
#X obj 179 247 list fromsymbol;
#X obj 206 291 cyclone/iter;
#X obj 206 313 moses 97;
#X obj 251 337 moses 123;
#X obj 251 361 - 32;
#X obj 230 387 ex01;
#X obj 179 269 t b l;
#X obj 230 409 list tosymbol;
#X msg 8 38 color \$1 \$1 \$2;
#X obj 8 15 receive \$1-bbcol;
#X obj 492 286 receive \$1-symset;
#X msg 492 308 set \$1;
#X msg 537 261 set REFERENCE;
#X obj 434 169 t f f f;
#X obj 473 193 moses;
#X obj 492 330 s \$0-searchr;
#N canvas 617 211 450 300 float 0;
#X obj 191 36 inlet;
#X obj 191 58 list split 1;
#X obj 191 80 route symbol;
#X obj 191 204 list append;
#X obj 191 226 outlet;
#X obj 191 102 list fromsymbol;
#X obj 191 174 - 48;
#X obj 191 124 cyclone/zl rev;
#X obj 191 146 t f;
#X connect 0 0 1 0;
#X connect 1 0 2 0;
#X connect 1 1 3 1;
#X connect 2 0 5 0;
#X connect 2 1 3 0;
#X connect 3 0 4 0;
#X connect 5 0 7 0;
#X connect 6 0 3 0;
#X connect 7 0 8 0;
#X connect 8 0 6 0;
#X restore 320 104 pd float;
#X obj 404 263 print wrong;
#X obj 458 446 list fromsymbol;
#X obj 458 468 print gg;
#X msg 458 424 symbol  ;
#X obj 528 389 list tosymbol;
#X msg 430 360 194 160 194 160 194 160;
#X obj 100 130 ctxfiles/helpm \$1 BASIC OPERATION >     1 \$0
;
#X obj 100 145 ctxfiles/helpm \$1 MESSAGES >           
2 \$0;
#X obj 100 160 ctxfiles/helpm \$1 OVERLAY >            
3 \$0;
#X obj 100 175 ctxfiles/helpm \$1 OTHER OBJECTS >       4 \$0
;
#X obj 100 190 ctxfiles/helpm \$1 ADVANCED USE >        5
\$0;
#X obj 100 115 ctxfiles/helpm \$1 GUI MANIPULATION >    0 \$0
;
#X obj 434 50 t b b;
#X msg 461 73 1;
#X obj 461 96 s \$0-blippp;
#X connect 0 0 1 0;
#X connect 4 0 12 0;
#X connect 6 0 47 0;
#X connect 7 0 29 0;
#X connect 7 0 43 0;
#X connect 8 0 12 0;
#X connect 9 0 10 0;
#X connect 10 0 11 0;
#X connect 12 0 13 0;
#X connect 13 0 26 0;
#X connect 14 0 9 0;
#X connect 14 1 15 0;
#X connect 15 0 16 0;
#X connect 16 0 21 0;
#X connect 17 0 19 0;
#X connect 18 0 60 0;
#X connect 19 0 22 0;
#X connect 20 0 6 0;
#X connect 20 0 27 0;
#X connect 20 1 15 1;
#X connect 21 0 13 1;
#X connect 21 1 17 1;
#X connect 22 0 44 0;
#X connect 23 0 31 0;
#X connect 24 0 26 0;
#X connect 25 0 24 0;
#X connect 26 0 20 0;
#X connect 29 0 5 0;
#X connect 30 0 14 0;
#X connect 30 1 28 0;
#X connect 30 2 6 0;
#X connect 31 0 37 0;
#X connect 32 0 33 0;
#X connect 33 0 36 1;
#X connect 33 1 34 0;
#X connect 34 0 35 0;
#X connect 34 1 36 1;
#X connect 35 0 36 1;
#X connect 36 0 38 0;
#X connect 37 0 36 0;
#X connect 37 1 32 0;
#X connect 38 0 25 0;
#X connect 39 0 3 0;
#X connect 40 0 39 0;
#X connect 41 0 42 0;
#X connect 42 0 46 0;
#X connect 43 0 46 0;
#X connect 44 0 26 0;
#X connect 44 1 15 0;
#X connect 44 2 45 0;
#X connect 45 0 43 0;
#X connect 47 0 30 0;
#X connect 49 0 50 0;
#X connect 51 0 49 0;
#X connect 52 0 50 0;
#X connect 53 0 52 0;
#X connect 60 0 17 0;
#X connect 60 1 61 0;
#X connect 61 0 62 0;
#X coords 0 -1 1 1 131 105 2 100 100;
