#N canvas 338 95 837 686 10;
#X obj 74 -8 inlet;
#X obj 142 433 unpack f f;
#X obj 206 175 list length;
#X obj 226 477 + 1;
#X obj 199 455 demux;
#X obj 210 362 list-abs/list-enumerate;
#X obj 206 200 moses 2;
#X msg 290 294 1;
#X msg 206 273 2;
#X obj 179 333 demux 0 1 2;
#X obj 142 414 cyclone/zl rev;
#X obj 242 409 s \$1-ino;
#X obj 142 736 send;
#X obj 199 624 sel dum;
#X obj 199 703 symbol;
#X obj 245 272 t b f;
#X obj 290 272 t b f;
#X obj 365 340 int;
#X obj 290 202 - 1;
#X obj 335 226 + 1;
#X obj 245 223 moses \$4;
#X obj 290 248 moses \$5;
#X obj 290 164 t f f f;
#X obj 95 199 f;
#X obj 95 221 until;
#X obj 95 243 t f;
#X obj 74 270 ex01;
#X obj 74 169 t b b;
#X obj 74 15 route clear swap s;
#X obj 144 152 s \$1-all\$2sr;
#X obj 232 679 makefilename \$1-i%d;
#X obj 348 542 makefilename \$1-j%d;
#X obj 199 604 makefilename \$1-\$2%d;
#X obj 206 -49 receive \$1-\$6-refeed;
#X obj 365 318 * 0.5;
#X obj 75 363 receive \$1-all\$2ss;
#X obj 340 117 receive \$1-\$3size-init;
#X obj 290 142 receive \$1-\$3size-2;
#X obj 408 499 receive \$1-ysize-init;
#X obj 348 520 receive \$1-ysize-2;
#X obj 250 638 receive \$1-xsize-init;
#X obj 232 658 receive \$1-xsize-2;
#X obj 142 387 cyclone/zl iter 2;
#X obj 179 128 t a a;
#X obj 365 362 s \$1-\$2lk-l;
#X obj 245 311 t f f f;
#X obj 206 -3 route bang;
#X msg 263 19 1;
#X obj 179 44 demux;
#X obj 199 507 demux;
#X obj 206 19 t f f;
#X obj 245 553 zl sect;
#X obj 226 530 t b f f;
#X msg 245 577 -1;
#X obj 219 577 f;
#X obj 211 90 list-abs/list-delete;
#X obj 206 -27 t a a a a;
#X obj 348 57 list length;
#X obj 279 62 listfind;
#X obj 279 41 list;
#X obj 211 68 t a b a b;
#X obj 288 111 t f;
#X connect 0 0 28 0;
#X connect 1 0 12 0;
#X connect 1 1 4 0;
#X connect 2 0 6 0;
#X connect 3 0 49 0;
#X connect 4 0 49 0;
#X connect 4 1 3 0;
#X connect 5 0 10 0;
#X connect 6 0 8 0;
#X connect 6 1 20 0;
#X connect 7 0 45 0;
#X connect 8 0 9 1;
#X connect 9 0 42 0;
#X connect 9 1 5 0;
#X connect 9 2 11 0;
#X connect 10 0 1 0;
#X connect 13 0 14 0;
#X connect 13 1 12 1;
#X connect 14 0 12 1;
#X connect 15 0 45 0;
#X connect 15 1 34 0;
#X connect 16 0 7 0;
#X connect 16 1 44 0;
#X connect 17 0 44 0;
#X connect 18 0 20 1;
#X connect 19 0 21 1;
#X connect 20 0 15 0;
#X connect 20 1 21 0;
#X connect 21 0 16 0;
#X connect 21 1 15 0;
#X connect 22 0 18 0;
#X connect 22 1 19 0;
#X connect 22 2 23 1;
#X connect 23 0 24 0;
#X connect 24 0 25 0;
#X connect 25 0 26 1;
#X connect 26 0 5 0;
#X connect 27 0 26 0;
#X connect 27 1 23 0;
#X connect 28 0 27 0;
#X connect 28 1 29 0;
#X connect 28 2 29 0;
#X connect 28 3 48 0;
#X connect 30 0 14 1;
#X connect 31 0 13 1;
#X connect 32 0 13 0;
#X connect 33 0 56 0;
#X connect 34 0 17 0;
#X connect 35 0 42 0;
#X connect 36 0 22 0;
#X connect 37 0 22 0;
#X connect 38 0 31 0;
#X connect 39 0 31 0;
#X connect 40 0 30 0;
#X connect 41 0 30 0;
#X connect 42 0 10 0;
#X connect 43 0 9 0;
#X connect 43 1 2 0;
#X connect 45 0 9 1;
#X connect 45 1 4 1;
#X connect 46 0 50 0;
#X connect 46 1 47 0;
#X connect 47 0 48 1;
#X connect 47 0 49 1;
#X connect 48 0 43 0;
#X connect 48 1 60 0;
#X connect 49 0 32 0;
#X connect 49 1 52 0;
#X connect 50 0 48 1;
#X connect 50 1 49 1;
#X connect 51 0 53 0;
#X connect 52 0 54 0;
#X connect 52 1 51 0;
#X connect 52 2 54 1;
#X connect 53 0 54 1;
#X connect 54 0 32 0;
#X connect 55 0 43 0;
#X connect 56 0 46 0;
#X connect 56 1 57 0;
#X connect 56 2 59 1;
#X connect 56 3 51 1;
#X connect 57 0 55 2;
#X connect 58 0 55 1;
#X connect 59 0 58 0;
#X connect 60 0 55 0;
#X connect 60 1 59 0;
#X connect 60 2 58 1;
#X connect 60 3 61 0;
#X connect 61 0 48 1;
