#N canvas 420 215 450 300 10;
#X obj 55 161 inlet;
#X obj 212 172 outlet;
#X obj 55 188 iemguts/canvasdelete 1;
#X obj 239 87 until;
#X obj 239 114 t f;
#X obj 212 16 r \$1-\$2size-2;
#X obj 212 37 - \$3;
#X obj 212 141 ex01;
#X obj 212 58 t b f;
#X connect 0 0 2 0;
#X connect 3 0 4 0;
#X connect 4 0 7 1;
#X connect 5 0 6 0;
#X connect 6 0 8 0;
#X connect 7 0 1 0;
#X connect 8 0 7 0;
#X connect 8 1 3 0;
