#N canvas 65 82 450 300 10;
#X obj 158 49 inlet;
#X obj 158 77 route * / off none;
#X obj 158 105 route bang;
#X obj 184 130 route bang;
#X msg 158 130 1;
#X msg 184 151 2;
#X msg 225 105 3;
#X obj 214 152 s \$1-coeffr;
#X obj 158 182 s \$1-coeffmr;
#X connect 0 0 1 0;
#X connect 1 0 2 0;
#X connect 1 1 3 0;
#X connect 1 2 6 0;
#X connect 1 3 6 0;
#X connect 2 0 4 0;
#X connect 2 1 7 0;
#X connect 3 0 5 0;
#X connect 3 1 7 0;
#X connect 4 0 8 0;
#X connect 5 0 8 0;
#X connect 6 0 8 0;
