#N canvas 65 106 1301 686 10;
#X obj 437 -135 pack f \$1;
#X msg 425 510 0;
#X obj 272 -207 r \$2-scroll;
#X obj 272 -182 spigot;
#X obj 299 -110 +;
#X obj 272 -159 sel 0;
#X msg 272 -135 -1;
#X obj 321 56 spigot;
#X obj 208 11 spigot;
#X obj 551 -134 change;
#X msg 570 111 color \$1 \$2 \$3;
#X msg 597 155 color \$1 \$1 \$1;
#X obj 762 199 demux;
#X obj 679 -61 t b f;
#X obj 789 68 del 400;
#X msg 789 221 color \$2 \$2 \$1;
#X obj 321 32 sel 1;
#X obj 510 -226 r \$2-primary-col;
#X obj 283 57 sel 0;
#X obj 679 -86 > 0;
#X obj 321 93 f \$1;
#X obj 354 32 r \$2-seqtart;
#X obj 425 488 r \$2-togsoff\$3;
#X obj 437 -179 r \$2-\$3\$1;
#X obj 208 -33 r \$2-\$1-togsel\$3;
#X obj 809 -25 inlet;
#X obj 437 -112 outlet;
#X msg 762 242 color \$2 \$1 \$3;
#X msg 624 177 color \$1 \$1 \$4;
#X obj 828 42 r \$2-delfrac;
#X obj 341 -143 outlet;
#X obj 341 -168 pack f \$1;
#X obj 482 579 s \$2-\$3\$1r;
#X obj 208 -12 moses 1;
#X obj 915 -31 r \$2-colmod-\$1;
#X obj 1059 -97 r \$2-xym;
#X msg 1119 -45 1 \$1;
#X obj 1119 -23 -;
#X obj 1087 85 spigot;
#X obj 915 -7 spigot;
#X obj 1087 61 r \$2-colmod-off;
#X obj 789 91 demux;
#X obj 847 67 r \$2-nexton;
#X obj 816 112 demux;
#X obj 809 3 t b b;
#X obj 495 5 list 1 1 1;
#X obj 551 -156 != 0;
#X obj 495 34 demux 0 1 2;
#X msg 699 -149 1;
#X obj 660 -172 t f b b;
#X msg 929 53 2;
#X obj 915 17 t f b b;
#X obj 510 -204 t b a;
#X obj 1059 -69 switch-\$3;
#X obj 974 212 inlet size;
#N canvas 565 240 484 511 size 0;
#X obj 158 164 expr log10($f1);
#X obj 158 185 int;
#X msg 123 303 label \$1;
#X obj 123 273 l2s;
#X obj 316 137 * 0.5;
#X obj 100 89 t f f f;
#X obj 202 207 <= 0;
#X obj 158 229 +;
#X obj 158 141 abs;
#X obj 119 115 route 0;
#X msg 119 142 2;
#X obj 158 207 + 2;
#X obj 296 188 t f f;
#X obj 323 215 * 2;
#X obj 296 295 * 0.4;
#X obj 277 112 t f f f;
#X obj 277 68 inlet size;
#X obj 61 43 inlet label;
#X obj 123 329 outlet label;
#X obj 277 350 outlet pos;
#X obj 61 65 route 0;
#X msg 61 123 label;
#X obj 296 166 / 2;
#X obj 277 325 pack 12 2 6 12;
#X obj 158 252 change;
#X obj 277 90 f 12;
#X obj 158 274 t b f;
#X obj 358 263 ./config;
#X obj 403 287 - 1;
#X connect 0 0 1 0;
#X connect 1 0 11 0;
#X connect 2 0 18 0;
#X connect 3 0 2 0;
#X connect 4 0 23 2;
#X connect 5 0 3 0;
#X connect 5 1 9 0;
#X connect 5 2 6 0;
#X connect 6 0 7 1;
#X connect 7 0 24 0;
#X connect 8 0 0 0;
#X connect 9 0 10 0;
#X connect 9 1 8 0;
#X connect 10 0 24 0;
#X connect 11 0 7 0;
#X connect 12 0 14 0;
#X connect 12 1 13 0;
#X connect 13 0 23 3;
#X connect 14 0 23 1;
#X connect 15 0 23 0;
#X connect 15 1 22 0;
#X connect 15 2 4 0;
#X connect 16 0 25 0;
#X connect 17 0 20 0;
#X connect 20 0 21 0;
#X connect 20 1 5 0;
#X connect 21 0 18 0;
#X connect 22 0 12 0;
#X connect 23 0 19 0;
#X connect 24 0 26 0;
#X connect 25 0 15 0;
#X connect 26 0 25 0;
#X connect 26 1 22 1;
#X connect 27 0 23 3;
#X connect 27 1 28 0;
#X connect 28 0 23 3;
#X restore 480 337 pd size;
#X obj 1059 2 t f f f;
#X obj 314 -231 t f f f f;
#X obj 208 33 t f f f f;
#X obj 551 -111 t b f f f;
#X obj 565 87 demux;
#X obj 597 133 demux;
#X obj 660 -194 sel 2;
#X obj 687 -126 t b f;
#X msg 504 201 color \$1 \$1 \$5;
#X obj 437 -158 t f f;
#X obj 852 -275 inlet bank;
#X obj 314 -266 r \$2-\$5\$1;
#X msg 519 363 size \$1 \, label_pos \$2 \$3 \, label_font 1 \$4;
#X connect 0 0 26 0;
#X connect 1 0 32 0;
#X connect 2 0 3 0;
#X connect 3 0 5 0;
#X connect 4 0 57 0;
#X connect 5 0 6 0;
#X connect 5 1 4 0;
#X connect 6 0 4 0;
#X connect 7 0 20 0;
#X connect 8 0 58 0;
#X connect 9 0 59 0;
#X connect 10 0 32 0;
#X connect 11 0 32 0;
#X connect 12 0 27 0;
#X connect 12 1 15 0;
#X connect 13 0 45 0;
#X connect 13 1 61 1;
#X connect 14 0 41 0;
#X connect 15 0 32 0;
#X connect 16 0 7 0;
#X connect 17 0 52 0;
#X connect 18 0 20 0;
#X connect 19 0 13 0;
#X connect 20 0 32 0;
#X connect 21 0 7 1;
#X connect 22 0 1 0;
#X connect 23 0 65 0;
#X connect 24 0 33 0;
#X connect 25 0 44 0;
#X connect 27 0 32 0;
#X connect 28 0 32 0;
#X connect 29 0 14 1;
#X connect 31 0 30 0;
#X connect 33 0 8 0;
#X connect 33 1 58 0;
#X connect 34 0 39 0;
#X connect 35 0 53 0;
#X connect 36 0 37 0;
#X connect 37 0 56 0;
#X connect 38 0 45 0;
#X connect 39 0 51 0;
#X connect 40 0 38 0;
#X connect 41 0 45 0;
#X connect 41 1 43 0;
#X connect 42 0 41 1;
#X connect 43 0 45 0;
#X connect 44 0 14 0;
#X connect 44 1 51 0;
#X connect 45 0 47 0;
#X connect 46 0 9 0;
#X connect 47 0 60 0;
#X connect 47 1 64 0;
#X connect 47 2 12 0;
#X connect 48 0 47 1;
#X connect 49 1 45 0;
#X connect 49 2 48 0;
#X connect 50 0 47 1;
#X connect 51 0 47 1;
#X connect 51 1 45 0;
#X connect 51 2 50 0;
#X connect 52 0 45 0;
#X connect 52 1 45 1;
#X connect 53 0 56 0;
#X connect 53 1 36 0;
#X connect 54 0 55 1;
#X connect 55 0 32 0;
#X connect 55 1 68 0;
#X connect 56 0 39 1;
#X connect 56 1 43 1;
#X connect 56 2 38 1;
#X connect 57 0 4 1;
#X connect 57 1 31 0;
#X connect 57 2 55 0;
#X connect 57 3 46 0;
#X connect 58 0 3 1;
#X connect 58 1 62 0;
#X connect 58 2 8 1;
#X connect 58 3 18 0;
#X connect 59 0 45 0;
#X connect 59 1 60 1;
#X connect 59 2 16 0;
#X connect 59 3 12 1;
#X connect 60 0 10 0;
#X connect 60 1 61 0;
#X connect 61 0 11 0;
#X connect 61 1 28 0;
#X connect 62 0 49 0;
#X connect 62 1 63 0;
#X connect 63 0 45 0;
#X connect 63 1 47 1;
#X connect 64 0 32 0;
#X connect 65 0 0 0;
#X connect 65 1 19 0;
#X connect 66 0 57 0;
#X connect 67 0 57 0;
#X connect 68 0 32 0;
