#N canvas 867 252 440 488 10;
#X obj 145 51 unpack f f;
#X obj 145 348 pack f f f;
#X obj 212 245 *;
#X msg 145 372 \$1 \, \$2 \$3;
#X obj 212 275 +;
#X obj 212 129 demux;
#X obj 212 151 cyclone/zl rev;
#X obj 212 173 -;
#X obj 239 173 t f;
#X obj 212 219 /;
#X obj 145 29 t a a;
#X obj 212 198 + 1;
#X msg 298 63 1 \$1;
#X obj 298 85 -;
#X obj 202 77 -;
#X obj 145 78 - 1;
#X obj 259 37 t f f f;
#X obj 202 303 *;
#X obj 145 303 *;
#X obj 145 221 /;
#X obj 202 102 /;
#X obj 145 394 vline~;
#X obj 145 416 send~ \$1-myline;
#X obj 145 7 receive \$1-slist;
#X obj 259 10 receive \$1-rev;
#X obj 271 195 receive \$1-xy2;
#X obj 239 257 receive \$1-doffset;
#X obj 30 348 receive \$1-sl-stop;
#X obj 239 227 receive \$1-del1000;
#X connect 0 0 15 0;
#X connect 0 1 14 0;
#X connect 1 0 3 0;
#X connect 2 0 4 0;
#X connect 3 0 21 0;
#X connect 4 0 1 2;
#X connect 5 0 6 0;
#X connect 5 1 8 0;
#X connect 6 0 7 0;
#X connect 7 0 11 0;
#X connect 8 0 11 0;
#X connect 9 0 2 0;
#X connect 10 0 0 0;
#X connect 10 1 5 0;
#X connect 11 0 9 0;
#X connect 12 0 13 0;
#X connect 13 0 11 1;
#X connect 13 0 15 1;
#X connect 14 0 20 0;
#X connect 15 0 19 0;
#X connect 16 0 5 1;
#X connect 16 1 14 1;
#X connect 16 2 12 0;
#X connect 17 0 1 1;
#X connect 18 0 1 0;
#X connect 19 0 18 0;
#X connect 20 0 17 0;
#X connect 21 0 22 0;
#X connect 23 0 10 0;
#X connect 24 0 16 0;
#X connect 25 0 9 1;
#X connect 25 0 19 1;
#X connect 25 0 20 1;
#X connect 26 0 4 1;
#X connect 27 0 21 0;
#X connect 28 0 2 1;
#X connect 28 0 17 1;
#X connect 28 0 18 1;
