#N canvas 526 75 656 542 10;
#X obj 104 1 inlet;
#X obj 212 507 outlet;
#X msg 420 356 Please specify the table length.;
#X obj 188 73 list length;
#X obj 161 96 demux 0 1 2;
#X obj 161 51 t a a;
#X msg 375 454 1;
#X obj 60 164 t b a;
#X msg 402 454 0;
#X obj 87 349 demux;
#X obj 114 301 route bang;
#X msg 171 323 0;
#X msg 114 323 1;
#X obj 212 456 t a a;
#X obj 290 453 t a a;
#X msg 212 478 \$1 1;
#X obj 21 133 route 0;
#X obj 321 133 unpack s f;
#X obj 21 164 t b b;
#X msg 159 479 blank 0;
#X obj 321 228 demux 0 1 2 3;
#X obj 378 157 moses 3;
#X obj 417 179 t b f;
#X msg 417 202 3;
#X obj 321 253 t b a;
#X obj 348 276 s \$0-csend;
#X obj 401 253 t b a;
#X obj 428 276 pack s f;
#X obj 104 26 route bang;
#X obj 212 405 openpanel;
#X obj 450 408 loadbang;
#X obj 114 255 s2l .;
#X obj 114 277 list split 1;
#X obj 375 478 s \$1-csave;
#X obj 317 478 s \$1-tab;
#X obj 246 478 s \$1-:l;
#X obj 182 185 del 100;
#X obj 182 163 ctxfiles/ou \$1 62 30 4 my;
#X msg 87 188 symbol \$1;
#X obj 420 380 print Input error;
#X obj 87 212 t s s;
#X obj 361 253 t b s;
#X connect 0 0 28 0;
#X connect 2 0 39 0;
#X connect 3 0 4 1;
#X connect 4 1 16 0;
#X connect 4 2 17 0;
#X connect 5 0 4 0;
#X connect 5 1 3 0;
#X connect 6 0 33 0;
#X connect 7 0 8 0;
#X connect 7 1 38 0;
#X connect 8 0 33 0;
#X connect 9 0 13 0;
#X connect 9 1 2 0;
#X connect 10 0 12 0;
#X connect 10 1 11 0;
#X connect 11 0 9 1;
#X connect 12 0 9 1;
#X connect 13 0 15 0;
#X connect 13 1 35 0;
#X connect 14 0 1 0;
#X connect 14 1 34 0;
#X connect 15 0 1 0;
#X connect 16 0 18 0;
#X connect 16 1 7 0;
#X connect 17 0 20 0;
#X connect 17 1 21 0;
#X connect 18 0 6 0;
#X connect 18 1 19 0;
#X connect 19 0 1 0;
#X connect 20 0 24 0;
#X connect 20 1 41 0;
#X connect 20 2 2 0;
#X connect 20 3 26 0;
#X connect 21 0 20 1;
#X connect 21 1 22 0;
#X connect 22 0 23 0;
#X connect 22 1 27 1;
#X connect 23 0 20 1;
#X connect 24 0 6 0;
#X connect 24 1 25 0;
#X connect 26 0 8 0;
#X connect 26 1 27 0;
#X connect 27 0 14 0;
#X connect 28 0 29 0;
#X connect 28 1 5 0;
#X connect 29 0 13 0;
#X connect 30 0 6 0;
#X connect 31 0 32 0;
#X connect 32 0 10 0;
#X connect 36 0 29 0;
#X connect 37 0 36 0;
#X connect 38 0 40 0;
#X connect 40 0 9 0;
#X connect 40 1 31 0;
#X connect 41 0 8 0;
#X connect 41 1 13 0;
