#N canvas 455 93 416 299 10;
#X obj 147 12 inlet;
#X obj 147 37 route bang;
#X obj 177 129 openpanel;
#X obj 177 108 del 100;
#X obj 177 86 ctxfiles/ou \$1 62 30 4 my;
#X obj 214 61 unpack s;
#X obj 177 153 s \$1-filer;
#X obj 56 108 receive \$1-obang;
#X connect 0 0 1 0;
#X connect 1 0 2 0;
#X connect 1 1 5 0;
#X connect 2 0 6 0;
#X connect 3 0 2 0;
#X connect 4 0 3 0;
#X connect 5 0 6 0;
#X connect 7 0 2 0;
