#N canvas 727 290 545 454 10;
#X obj 266 334 - 1;
#X obj 183 138 moses;
#X obj 210 91 max;
#X obj 210 113 t f f;
#X obj 210 160 change;
#X obj 210 212 -;
#X obj 210 234 until;
#X obj 210 256 f;
#X obj 210 278 + 1;
#X obj 210 305 t f f f;
#X obj 183 59 t f f;
#X obj 211 357 array set burstline;
#X obj 337 356 array define burstline 1;
#X msg 337 334 resize \$1;
#X obj 210 183 t f f f f;
#X obj 95 237 f;
#X obj 95 259 s linesize%%;
#X obj 183 33 receive linesize%%;
#X obj 95 211 receive ls-cb;
#X connect 0 0 11 1;
#X connect 1 1 4 0;
#X connect 2 0 3 0;
#X connect 3 0 1 1;
#X connect 3 1 2 1;
#X connect 4 0 14 0;
#X connect 5 0 6 0;
#X connect 6 0 7 0;
#X connect 7 0 8 0;
#X connect 8 0 9 0;
#X connect 9 0 11 0;
#X connect 9 1 0 0;
#X connect 9 2 7 1;
#X connect 10 0 1 0;
#X connect 10 1 2 0;
#X connect 13 0 12 0;
#X connect 14 0 5 1;
#X connect 14 1 5 0;
#X connect 14 2 13 0;
#X connect 14 3 15 1;
#X connect 15 0 16 0;
#X connect 17 0 10 0;
#X connect 18 0 15 0;
