#N canvas 165 50 760 687 10;
#X obj 222 141 unpack f f;
#X obj 252 118 unpack f f;
#X obj 222 194 -;
#X obj 279 194 -;
#X obj 397 157 unpack f f;
#X msg 267 307 1;
#X msg 338 307 2;
#X msg 222 307 0;
#X msg 453 320 0;
#X obj 237 62 unpack f f;
#X obj 222 216 moses -8;
#X obj 267 239 moses 0;
#X obj 397 199 + 8;
#X obj 454 199 + 8;
#X obj 294 163 +;
#X obj 237 163 +;
#X obj 363 265 moses 16;
#X obj 408 290 moses 24;
#X obj 279 216 moses -8;
#X obj 324 240 moses 0;
#X msg 392 320 2;
#X msg 421 320 1;
#X obj 222 11 t a b b;
#X obj 419 348 demux;
#X obj 267 337 demux;
#X msg 363 320 3;
#X msg 306 307 3;
#X obj 232 489 demux 0 1 2 3;
#X obj 328 490 demux 0 1 2 3;
#X obj 232 436 spigot;
#X obj 328 437 spigot;
#X obj 403 395 >= 1;
#X obj 306 379 >= 1;
#X obj 110 -2 t f;
#X obj 267 362 demux;
#X obj 446 372 demux;
#X obj 111 453 mux;
#X obj 306 356 spigot;
#X obj 403 372 spigot;
#X obj 71 -31 t a a b;
#X obj 222 -14 list;
#X obj 111 513 demux;
#X obj 183 -61 moses 1;
#X obj 222 -38 t b b f;
#X msg 261 -14 1;
#X msg 157 489 1;
#X obj 306 264 moses 54;
#X obj 351 290 moses 62;
#X msg 95 698 label;
#X obj 133 403 * 4;
#X obj 24 553 sel 0;
#X obj 183 -84 dv \$1 r click2;
#X obj 71 -63 dv \$1 r preview;
#X obj 110 24 s \$1-prevsw;
#X obj 307 61 s \$1-mypos;
#X obj 252 94 dv \$1 r mycpos;
#X obj 432 226 dv \$1 r mup;
#X obj 466 290 r \$1-prevsw;
#X obj 126 310 dv \$1 r ymode;
#X obj 232 414 dv \$1 r mmovex;
#X obj 328 414 dv \$1 r mmovey;
#X obj 24 524 dv \$1 r shift;
#X obj 298 671 outlet data;
#X obj 237 38 iemguts/canvasposition \$2;
#N canvas 574 85 612 592 time 1;
#X obj 149 232 route float s;
#X obj 149 417 outlet pos;
#X obj 348 158 unpack f f;
#X obj 186 302 t f f;
#X obj 186 278 * 1000;
#X obj 186 326 *;
#X obj 333 180 f;
#X obj 390 180 f;
#X obj 333 110 sel 0 1;
#X obj 288 213 pack f f;
#X obj 306 87 t b f;
#X obj 288 258 /;
#X obj 315 258 cyclone/zl rev;
#X obj 315 280 /;
#X obj 176 350 *;
#X obj 140 45 dv \$1 r realdelay;
#X obj 348 136 dv \$1 r cursorsz;
#X obj 288 302 dv \$1 v tbyd;
#X obj 396 367 inlet;
#X obj 321 392 demux 0 1 2 3;
#X msg 233 25 1;
#X obj 194 179 s \$0-retime;
#X obj 194 135 spigot;
#X obj 194 157 /;
#X obj 262 518 s \$1-xstart;
#X obj 371 516 s \$1-xend;
#X obj 149 255 t f f;
#X obj 288 235 t a a;
#X obj 306 64 receive \$0-osome;
#X obj 233 3 receive \$1-savestart;
#X obj 149 210 receive \$0-ovalue;
#X obj 262 473 top \$1 mx1 \$0 x1;
#X obj 167 111 t f f;
#X obj 140 67 t f f;
#X obj 140 89 sel 0;
#X obj 346 443 top \$1 my1 \$0 y1;
#X obj 371 472 top \$1 mx2 \$0 x2;
#X obj 396 417 top \$1 my2 \$0 y2;
#X obj 262 496 * 44100;
#X obj 371 494 * 44100;
#X connect 0 0 26 0;
#X connect 0 1 4 0;
#X connect 2 0 6 1;
#X connect 2 1 7 1;
#X connect 3 0 5 0;
#X connect 3 1 19 0;
#X connect 4 0 3 0;
#X connect 5 0 1 0;
#X connect 6 0 9 1;
#X connect 7 0 9 1;
#X connect 8 0 6 0;
#X connect 8 1 7 0;
#X connect 9 0 27 0;
#X connect 10 0 9 0;
#X connect 10 1 8 0;
#X connect 11 0 14 1;
#X connect 11 0 17 0;
#X connect 12 0 13 0;
#X connect 13 0 5 1;
#X connect 14 0 19 0;
#X connect 15 0 33 0;
#X connect 16 0 2 0;
#X connect 18 0 19 1;
#X connect 19 0 31 0;
#X connect 19 1 35 0;
#X connect 19 2 36 0;
#X connect 19 3 37 0;
#X connect 20 0 22 1;
#X connect 22 0 23 0;
#X connect 23 0 21 0;
#X connect 26 0 1 0;
#X connect 26 1 14 0;
#X connect 27 0 11 0;
#X connect 27 1 12 0;
#X connect 28 0 10 0;
#X connect 29 0 20 0;
#X connect 30 0 0 0;
#X connect 31 0 38 0;
#X connect 32 0 23 1;
#X connect 32 1 22 0;
#X connect 33 0 34 0;
#X connect 33 1 9 0;
#X connect 34 1 32 0;
#X connect 36 0 39 0;
#X connect 38 0 24 0;
#X connect 39 0 25 0;
#X restore 298 646 pd time;
#X obj 336 616 outlet which;
#X obj 336 594 t f f b;
#X msg 375 640 1;
#X obj 375 671 dv \$1 s xyprot;
#X obj 111 573 blp \$1 mx1 1;
#X obj 131 593 blp \$1 mx2 2;
#X obj 151 613 blp \$1 my1 8;
#X obj 171 633 blp \$1 my2 4;
#X obj 138 735 s \$1-block2;
#X obj 232 459 demux;
#X obj 328 459 demux;
#X obj 257 514 tt 0 0 \$0 x1 \$1;
#X obj 282 538 tt 2 0 \$0 x2 \$1;
#X obj 353 514 tt 3 1 \$0 y2 \$1;
#X obj 403 538 tt 1 1 \$0 y1 \$1;
#X obj 551 406 unpack;
#X obj 551 384 iemguts/canvasposition 2;
#X obj 551 428 t f f;
#X obj 588 428 t f b;
#X obj 551 450 + \$3;
#X obj 615 450 f \$4;
#X msg 138 699 label \$1 s;
#X obj 151 661 * 0.001;
#X obj 397 135 receive \$1-pixsize;
#X obj 551 361 receive \$1-created;
#X obj 336 571 receive \$0-owhich;
#X obj 378 437 receive \$1-cmorphon;
#X connect 0 0 2 0;
#X connect 0 1 3 0;
#X connect 1 0 15 1;
#X connect 1 1 14 1;
#X connect 2 0 10 0;
#X connect 3 0 18 0;
#X connect 4 0 12 0;
#X connect 4 0 46 1;
#X connect 4 1 13 0;
#X connect 4 1 16 1;
#X connect 5 0 24 0;
#X connect 6 0 24 0;
#X connect 7 0 24 0;
#X connect 8 0 23 0;
#X connect 9 0 15 0;
#X connect 9 1 14 0;
#X connect 10 0 7 0;
#X connect 10 1 11 0;
#X connect 11 0 5 0;
#X connect 11 1 46 0;
#X connect 12 0 47 1;
#X connect 13 0 17 1;
#X connect 14 0 3 1;
#X connect 15 0 2 1;
#X connect 16 0 25 0;
#X connect 16 1 17 0;
#X connect 17 0 21 0;
#X connect 17 1 8 0;
#X connect 18 0 8 0;
#X connect 18 1 19 0;
#X connect 19 0 20 0;
#X connect 19 1 16 0;
#X connect 20 0 23 0;
#X connect 21 0 23 0;
#X connect 22 0 0 0;
#X connect 22 1 63 0;
#X connect 23 0 38 0;
#X connect 23 1 35 0;
#X connect 24 0 34 0;
#X connect 24 1 37 0;
#X connect 25 0 23 0;
#X connect 26 0 24 0;
#X connect 27 1 76 0;
#X connect 27 2 77 0;
#X connect 28 1 78 0;
#X connect 28 3 79 0;
#X connect 29 0 74 0;
#X connect 30 0 75 0;
#X connect 31 0 29 1;
#X connect 32 0 30 1;
#X connect 33 0 53 0;
#X connect 34 0 36 0;
#X connect 34 1 27 1;
#X connect 35 0 49 0;
#X connect 35 1 28 1;
#X connect 36 0 41 0;
#X connect 37 0 32 0;
#X connect 38 0 31 0;
#X connect 39 0 22 0;
#X connect 39 1 40 1;
#X connect 39 2 33 0;
#X connect 40 0 22 0;
#X connect 41 0 69 0;
#X connect 41 0 70 0;
#X connect 41 0 71 0;
#X connect 41 0 72 0;
#X connect 42 0 41 1;
#X connect 42 1 43 0;
#X connect 43 0 45 0;
#X connect 43 1 40 0;
#X connect 43 2 44 0;
#X connect 44 0 53 0;
#X connect 45 0 41 1;
#X connect 46 0 26 0;
#X connect 46 1 47 0;
#X connect 47 0 6 0;
#X connect 47 1 7 0;
#X connect 48 0 73 0;
#X connect 49 0 36 1;
#X connect 50 0 48 0;
#X connect 51 0 42 0;
#X connect 52 0 39 0;
#X connect 55 0 1 0;
#X connect 56 0 28 1;
#X connect 56 0 27 1;
#X connect 56 0 68 0;
#X connect 57 0 35 1;
#X connect 57 0 34 1;
#X connect 57 0 37 1;
#X connect 57 0 38 1;
#X connect 58 0 23 1;
#X connect 58 0 24 1;
#X connect 58 0 36 2;
#X connect 59 0 29 0;
#X connect 60 0 30 0;
#X connect 61 0 50 0;
#X connect 63 0 9 0;
#X connect 63 0 54 0;
#X connect 64 0 62 0;
#X connect 66 0 65 0;
#X connect 66 1 64 0;
#X connect 66 2 67 0;
#X connect 67 0 68 0;
#X connect 69 0 87 0;
#X connect 70 0 87 0;
#X connect 71 0 87 0;
#X connect 72 0 87 0;
#X connect 74 0 27 0;
#X connect 75 0 28 0;
#X connect 80 0 82 0;
#X connect 80 1 83 0;
#X connect 81 0 80 0;
#X connect 82 0 84 0;
#X connect 82 1 76 0;
#X connect 83 0 79 0;
#X connect 83 1 85 0;
#X connect 84 0 77 0;
#X connect 85 0 78 0;
#X connect 86 0 73 0;
#X connect 87 0 86 0;
#X connect 88 0 4 0;
#X connect 89 0 81 0;
#X connect 90 0 66 0;
#X connect 91 0 74 1;
#X connect 91 0 75 1;
