#N canvas 147 145 517 576 10;
#X obj 105 0 inlet;
#X obj 124 123 sel -1;
#X obj 87 239 spigot;
#X obj 98 213 t f;
#X obj 301 380 t f f;
#X obj 301 495 outlet float;
#X obj 218 364 outlet pos;
#X obj 218 247 t f f f;
#X obj 414 244 outlet text;
#X obj 124 52 list-abs/list-splat -1;
#X obj 237 530 list append;
#X obj 300 30 inlet;
#X obj 87 262 list append;
#X obj 237 307 list-abs/list-splat -2;
#X obj 301 332 unpack f f;
#X obj 340 472 pack f f;
#X obj 358 355 t f f;
#X obj 237 329 spigot;
#X obj 301 402 spigot;
#X obj 358 403 sel 0;
#X msg 385 448 1;
#X obj 124 191 + 1;
#X obj 358 380 ==;
#X obj 300 52 route float;
#X obj 124 101 text search \$0-txt;
#X obj 300 81 text delete \$0-txt;
#X obj 363 111 text define \$0-txt;
#X obj 124 145 text size \$0-txt;
#X obj 237 280 text get \$0-txt;
#X obj 87 342 text set \$0-txt;
#X obj 301 356 \$1 \$2;
#X obj 266 478 f;
#X obj 124 213 t f f;
#X obj 358 426 t b b;
#X obj 124 167 t f f b;
#X obj 105 27 t a a b;
#X obj 124 74 t a a;
#X obj 87 284 t a a;
#X obj 114 307 spigot \$3;
#X obj 42 374 list-abs/list-splat -2;
#X obj 414 200 list prepend \$3;
#X obj 414 222 route 0;
#X connect 0 0 35 0;
#X connect 1 0 27 0;
#X connect 1 1 7 0;
#X connect 2 0 12 0;
#X connect 3 0 2 1;
#X connect 4 0 18 0;
#X connect 4 1 15 0;
#X connect 7 0 6 0;
#X connect 7 1 28 0;
#X connect 7 2 29 1;
#X connect 9 0 36 0;
#X connect 9 1 12 1;
#X connect 9 1 22 1;
#X connect 9 1 31 1;
#X connect 10 0 37 0;
#X connect 11 0 23 0;
#X connect 12 0 37 0;
#X connect 13 0 17 0;
#X connect 13 1 14 0;
#X connect 14 0 30 0;
#X connect 14 1 16 0;
#X connect 15 0 10 1;
#X connect 16 0 22 0;
#X connect 16 1 15 1;
#X connect 17 0 10 0;
#X connect 18 0 5 0;
#X connect 19 0 33 0;
#X connect 20 0 2 1;
#X connect 21 0 32 0;
#X connect 22 0 17 1;
#X connect 22 0 18 1;
#X connect 22 0 19 0;
#X connect 23 0 25 0;
#X connect 23 1 26 0;
#X connect 24 0 1 0;
#X connect 27 0 34 0;
#X connect 28 0 13 0;
#X connect 30 0 4 0;
#X connect 31 0 5 0;
#X connect 32 0 2 1;
#X connect 32 1 29 1;
#X connect 33 0 31 0;
#X connect 33 1 20 0;
#X connect 34 0 21 0;
#X connect 34 1 6 0;
#X connect 34 2 31 0;
#X connect 35 0 2 0;
#X connect 35 1 9 0;
#X connect 35 2 3 0;
#X connect 36 0 24 0;
#X connect 36 1 40 0;
#X connect 37 0 29 0;
#X connect 37 1 38 0;
#X connect 38 0 39 0;
#X connect 39 0 8 0;
#X connect 40 0 41 0;
#X connect 41 0 8 0;
