#N canvas 280 223 645 540 10;
#X obj 160 132 inlet;
#X obj 204 417 l2s;
#X obj 204 445 s \$1-symr;
#X obj 160 210 list split 2;
#X obj 194 309 list;
#X obj 194 284 t b f f;
#X obj 233 309 - 1;
#X obj 160 154 route ::;
#X obj 121 54 t f f;
#X obj 48 87 spigot;
#X obj 148 88 - 1;
#X obj 48 116 list prepend +;
#X obj 48 138 list append;
#X obj 48 160 list trim;
#X obj 160 383 list-abs/list-replace;
#X obj 160 359 adder;
#X obj 311 192 t a a a;
#X obj 141 182 t b a b;
#X obj 350 215 sp01 1;
#X obj 369 277 cyclone/zl iter 1;
#X obj 369 299 route float;
#X obj 194 334 cyclone/zl nth;
#X obj 399 343 f;
#X obj 399 364 + 1;
#X obj 450 321 t f;
#X obj 348 387 ex01;
#X obj 350 237 t b a b;
#X obj 348 409 t a a;
#X obj 375 434 list length;
#X msg 375 456 resize \$1;
#X obj 348 502 array set \$0-floats;
#X obj 194 257 array get \$0-floats 0 1;
#X obj 375 478 array define \$0-floats 1;
#X msg 492 363 vis 1;
#X obj 492 385 iemguts/sendcanvas;
#X obj 384 388 f;
#X obj 372 319 t b b;
#X obj 420 319 t b;
#X obj 194 233 - 1;
#X obj 48 11 receive \$1-scroll;
#X obj 121 31 receive \$1-mscroll;
#X obj 311 170 receive \$1-message2;
#X obj 492 341 receive mer;
#X obj 133 284 list trim;
#X connect 0 0 7 0;
#X connect 1 0 2 0;
#X connect 3 0 43 0;
#X connect 3 1 38 0;
#X connect 4 0 21 0;
#X connect 5 0 4 0;
#X connect 5 1 21 1;
#X connect 5 2 6 0;
#X connect 6 0 14 1;
#X connect 7 0 17 0;
#X connect 7 1 1 0;
#X connect 8 0 9 1;
#X connect 8 1 10 0;
#X connect 9 0 11 0;
#X connect 10 0 12 1;
#X connect 11 0 12 0;
#X connect 12 0 13 0;
#X connect 13 0 17 0;
#X connect 14 0 1 0;
#X connect 15 0 14 0;
#X connect 16 0 4 1;
#X connect 16 1 14 2;
#X connect 16 2 18 0;
#X connect 17 0 18 2;
#X connect 17 1 3 0;
#X connect 17 2 18 1;
#X connect 18 0 26 0;
#X connect 19 0 20 0;
#X connect 20 0 36 0;
#X connect 20 1 37 0;
#X connect 21 0 15 1;
#X connect 22 0 23 0;
#X connect 23 0 22 1;
#X connect 23 0 35 1;
#X connect 24 0 22 1;
#X connect 25 0 27 0;
#X connect 26 0 25 0;
#X connect 26 1 19 0;
#X connect 26 2 24 0;
#X connect 27 0 30 0;
#X connect 27 1 28 0;
#X connect 28 0 29 0;
#X connect 29 0 32 0;
#X connect 31 0 5 0;
#X connect 33 0 34 0;
#X connect 35 0 25 1;
#X connect 36 0 35 0;
#X connect 36 1 22 0;
#X connect 37 0 22 0;
#X connect 38 0 31 0;
#X connect 39 0 9 0;
#X connect 40 0 8 0;
#X connect 41 0 16 0;
#X connect 42 0 33 0;
#X connect 43 0 15 0;
