#N canvas 281 70 729 595 10;
#X obj 181 10 inlet;
#X obj 296 283 f;
#X obj 323 283 + 1;
#X obj 312 240 t f b;
#X obj 339 261 t f;
#X obj 296 354 mod;
#X obj 350 212 random;
#X obj 331 138 demux 0 1 2 3 4 5;
#X obj 280 562 outlet;
#X obj 280 101 demux 0 1;
#X obj 340 79 > 1;
#X obj 429 211 - 0.5;
#X obj 429 233 * -2;
#X obj 296 305 -;
#X obj 337 515 - 1;
#X msg 526 203 clear;
#X obj 296 188 t b;
#X obj 350 172 t b;
#X obj 181 35 route bang;
#X obj 507 268 spigot;
#X obj 540 246 >= 3;
#X obj 181 80 f;
#X obj 196 57 - 1;
#X obj 472 111 t b f f f;
#X obj 375 353 demux;
#X obj 402 378 +;
#X obj 97 42 t b f f f f;
#X obj 507 290 -;
#X obj 507 313 * 1;
#X obj 296 330 demux 0 1 2 3 4 5;
#X obj 472 152 t f;
#X obj 389 91 t b b b;
#X obj 389 271 urn;
#X obj 551 438 abs;
#X obj 248 56 demux;
#N canvas 763 312 450 300 first 0;
#X obj 126 21 inlet;
#X obj 126 212 outlet;
#X obj 153 69 demux;
#X obj 153 97 t f f;
#X obj 195 97 t f f;
#X obj 160 131 <;
#X obj 199 131 >;
#X obj 126 43 t f f;
#X obj 126 188 demux;
#X obj 180 44 receive \$1-rev;
#X obj 203 68 receive \$1-\$6;
#X msg 153 239 1;
#X obj 153 261 outlet;
#X connect 0 0 7 0;
#X connect 2 0 3 0;
#X connect 2 1 4 0;
#X connect 3 0 5 1;
#X connect 3 1 5 0;
#X connect 4 0 6 1;
#X connect 4 1 6 0;
#X connect 5 0 8 1;
#X connect 6 0 8 1;
#X connect 7 0 8 0;
#X connect 7 1 2 0;
#X connect 8 0 1 0;
#X connect 8 1 11 0;
#X connect 9 0 2 1;
#X connect 10 0 5 1;
#X connect 11 0 12 0;
#X restore 280 79 pd first;
#X msg 280 138 0;
#X obj 74 168 array get \$1-\$3 0 1;
#X obj 74 141 *;
#X obj 89 119 - 1;
#X obj 494 393 array get \$1-\$5arry 0 1;
#X obj 494 369 - 1;
#X obj 526 160 sp01;
#X obj 526 182 t b b;
#X obj 35 75 receive \$1-\$3blip;
#X obj 97 20 receive \$1-rev;
#X obj 280 31 receive \$1-\$2first;
#X obj 340 53 receive \$1-m\$3l;
#X obj 547 136 receive \$1-boo2;
#X obj 629 367 receive \$1-\$7sw;
#X obj 417 353 receive \$1-\$3l;
#X obj 507 224 receive \$1-snum0;
#X obj 494 415 route bang;
#X obj 494 437 t f;
#X obj 472 85 receive \$1-\$2messmode;
#X obj 89 96 receive \$1-\$3l;
#X obj 469 24 receive \$1seed\$8;
#X connect 0 0 18 0;
#X connect 1 0 2 0;
#X connect 1 0 13 0;
#X connect 2 0 1 1;
#X connect 3 0 5 1;
#X connect 3 1 4 0;
#X connect 4 0 1 1;
#X connect 5 0 8 0;
#X connect 6 0 8 0;
#X connect 7 0 16 0;
#X connect 7 1 31 0;
#X connect 7 2 17 0;
#X connect 7 3 14 0;
#X connect 7 4 16 0;
#X connect 7 5 41 0;
#X connect 9 0 36 0;
#X connect 9 1 7 0;
#X connect 10 0 9 1;
#X connect 11 0 12 0;
#X connect 12 0 2 1;
#X connect 12 0 28 1;
#X connect 13 0 29 0;
#X connect 14 0 8 0;
#X connect 15 0 32 0;
#X connect 16 0 1 0;
#X connect 17 0 6 0;
#X connect 18 0 21 0;
#X connect 18 1 34 0;
#X connect 19 0 27 0;
#X connect 20 0 19 1;
#X connect 21 0 8 0;
#X connect 22 0 21 1;
#X connect 23 0 30 0;
#X connect 23 1 7 1;
#X connect 23 2 20 0;
#X connect 23 3 29 1;
#X connect 24 0 8 0;
#X connect 24 1 25 0;
#X connect 25 0 8 0;
#X connect 26 1 38 0;
#X connect 26 2 24 1;
#X connect 26 3 13 1;
#X connect 26 4 11 0;
#X connect 27 0 28 0;
#X connect 28 0 1 0;
#X connect 29 0 5 0;
#X connect 29 4 24 0;
#X connect 30 0 1 0;
#X connect 31 1 32 0;
#X connect 31 2 42 0;
#X connect 32 0 8 0;
#X connect 33 0 14 0;
#X connect 34 0 9 0;
#X connect 34 1 35 0;
#X connect 35 0 9 0;
#X connect 35 1 36 0;
#X connect 36 0 8 0;
#X connect 37 0 22 0;
#X connect 38 0 37 0;
#X connect 39 0 38 1;
#X connect 40 0 52 0;
#X connect 41 0 40 0;
#X connect 42 0 43 0;
#X connect 43 0 15 0;
#X connect 43 1 42 1;
#X connect 44 0 38 0;
#X connect 45 0 26 0;
#X connect 46 0 34 1;
#X connect 47 0 10 0;
#X connect 47 0 3 0;
#X connect 47 0 6 1;
#X connect 47 0 32 1;
#X connect 48 0 42 2;
#X connect 49 0 40 2;
#X connect 50 0 25 1;
#X connect 51 0 19 0;
#X connect 52 0 53 0;
#X connect 52 1 33 0;
#X connect 53 0 14 0;
#X connect 54 0 23 0;
#X connect 55 0 39 0;
#X connect 56 0 6 0;
#X connect 56 0 32 0;
