#N canvas 542 222 641 365 10;
#X obj 98 119 mod;
#X obj 67 97 demux 0 1 2;
#X obj 130 119 clip 0;
#X obj 163 95 - 1;
#X obj 67 66 inlet;
#X obj 285 56 route bang;
#X obj 98 203 outlet;
#X obj 285 78 t b f;
#X msg 285 102 clear;
#X obj 434 265 f;
#X obj 434 287 + 1;
#X obj 434 309 t f f;
#X obj 434 120 t f;
#X obj 285 125 text define \$1-m\$2-;
#X obj 407 220 text fromlist \$1-m\$2-;
#X obj 312 149 s \$1-m\$2l;
#X obj 98 177 text get \$1-m\$2-;
#X obj 130 49 receive \$1-\$3;
#X obj 163 73 receive \$1-m\$2l;
#X obj 285 34 receive \$1-m\$2;
#X obj 407 149 list-abs/list-map;
#X obj 520 148 sel 124;
#X msg 520 171 59 32;
#X obj 407 97 t a b;
#X obj 407 175 moocow/bytes2any;
#X obj 407 197 list append \;;
#X connect 0 0 16 0;
#X connect 1 0 16 0;
#X connect 1 1 0 0;
#X connect 1 2 2 0;
#X connect 2 0 16 0;
#X connect 3 0 2 2;
#X connect 4 0 1 0;
#X connect 5 0 7 0;
#X connect 5 1 23 0;
#X connect 7 0 8 0;
#X connect 7 1 15 0;
#X connect 8 0 13 0;
#X connect 9 0 10 0;
#X connect 10 0 11 0;
#X connect 11 0 15 0;
#X connect 11 1 9 1;
#X connect 12 0 9 0;
#X connect 16 0 6 0;
#X connect 17 0 1 1;
#X connect 18 0 0 1;
#X connect 18 0 3 0;
#X connect 19 0 5 0;
#X connect 20 0 24 0;
#X connect 20 1 21 0;
#X connect 21 0 22 0;
#X connect 21 0 9 0;
#X connect 21 1 20 1;
#X connect 22 0 20 1;
#X connect 23 0 20 0;
#X connect 23 1 12 0;
#X connect 24 0 25 0;
#X connect 25 0 14 0;
