#N canvas 806 10 450 300 10;
#X obj 142 78 inlet;
#X obj 142 100 moses;
#X obj 184 34 inlet;
#X obj 184 56 * -1;
#X obj 184 78 + 1;
#X obj 169 123 moses;
#X obj 169 195 outlet;
#X obj 196 168 outlet;
#X obj 169 145 * -1;
#X obj 196 145 moses;
#X obj 223 101 inlet;
#X obj 223 123 - 1;
#X connect 0 0 1 0;
#X connect 1 1 5 0;
#X connect 2 0 3 0;
#X connect 3 0 4 0;
#X connect 4 0 1 1;
#X connect 5 0 8 0;
#X connect 5 1 9 0;
#X connect 8 0 6 0;
#X connect 9 0 7 0;
#X connect 10 0 11 0;
#X connect 11 0 9 1;
