#N canvas 612 283 473 300 10;
#X obj 181 -24 r \$1-\$2;
#X obj 181 -2 route bang;
#X obj 97 128 inlet;
#X obj 97 179 outlet;
#X obj 208 91 s \$1-\$2l;
#X obj 181 20 t b f;
#X obj 181 67 text define \$1-\$2-;
#X msg 181 44 clear;
#X obj 97 153 text get \$1-\$2-;
#X obj 322 85 cyclone/iter;
#X obj 322 107 sel |;
#X obj 322 155 symbol \; /;
#X obj 303 193 ex01;
#X obj 303 39 t b a b;
#X obj 303 215 text fromlist \$1-\$2-;
#X obj 413 112 f;
#X obj 413 134 + 1;
#X obj 413 156 t f f;
#X obj 342 62 t f;
#X obj 322 129 t b b;
#X connect 0 0 1 0;
#X connect 1 0 5 0;
#X connect 1 1 13 0;
#X connect 2 0 8 0;
#X connect 5 0 7 0;
#X connect 5 1 4 0;
#X connect 7 0 6 0;
#X connect 8 0 3 0;
#X connect 9 0 10 0;
#X connect 10 0 19 0;
#X connect 10 1 12 1;
#X connect 11 0 12 1;
#X connect 12 0 14 0;
#X connect 13 0 12 0;
#X connect 13 1 9 0;
#X connect 13 2 18 0;
#X connect 15 0 16 0;
#X connect 16 0 17 0;
#X connect 17 0 4 0;
#X connect 17 1 15 1;
#X connect 18 0 15 0;
#X connect 19 0 11 0;
#X connect 19 1 15 0;
