#N canvas 239 231 655 513 10;
#X obj 79 99 list split 1;
#X obj 24 146 list split 1;
#X obj 85 314 send;
#X obj 52 77 t a a;
#X obj 58 212 t a a;
#X obj 79 124 t a a;
#X obj 257 426 send;
#X msg 393 389 symbol c\$1;
#X msg 106 289 symbol \$2\$3\$3\$1;
#X obj 106 266 list append \$1 \$2;
#X obj 354 344 t f f;
#X obj 184 53 symbol \$2;
#X msg 184 99 1;
#X obj 184 30 sel 1;
#X obj 106 146 demux;
#X obj 160 176 route;
#X obj 184 75 sel y;
#X obj 160 199 f;
#X obj 160 245 list append \$1 \$4;
#X obj 327 248 route;
#X obj 58 178 list trim;
#X obj 257 403 spigot;
#X obj 354 366 moses 0;
#X obj 354 321 array get \$1-\$3arry 0 1;
#X obj 354 273 - 1;
#X obj 52 55 receive \$1-outlet\$2;
#X obj 184 8 receive \$1-xym;
#X obj 359 221 receive \$1-\$2size-2;
#X obj 200 176 receive \$1-xsize-2;
#X obj 187 149 receive \$1-ysize-2;
#X obj 327 297 v \$1-floate;
#X obj 290 377 >;
#X connect 0 0 5 0;
#X connect 1 1 20 0;
#X connect 3 0 1 0;
#X connect 3 1 0 0;
#X connect 4 0 21 0;
#X connect 4 1 2 0;
#X connect 5 0 19 0;
#X connect 5 1 14 0;
#X connect 7 0 6 1;
#X connect 8 0 2 1;
#X connect 9 0 8 0;
#X connect 10 0 22 0;
#X connect 10 1 31 0;
#X connect 11 0 16 0;
#X connect 12 0 14 1;
#X connect 13 0 11 0;
#X connect 13 1 14 1;
#X connect 14 0 9 0;
#X connect 14 1 15 0;
#X connect 15 0 17 0;
#X connect 15 1 9 0;
#X connect 16 0 12 0;
#X connect 17 0 18 0;
#X connect 18 0 8 0;
#X connect 19 0 30 0;
#X connect 19 1 24 0;
#X connect 20 0 4 0;
#X connect 21 0 6 0;
#X connect 22 1 7 0;
#X connect 23 0 10 0;
#X connect 24 0 23 0;
#X connect 25 0 3 0;
#X connect 26 0 13 0;
#X connect 27 0 19 1;
#X connect 28 0 17 1;
#X connect 29 0 15 1;
#X connect 30 0 10 0;
#X connect 31 0 21 1;
