#N canvas 158 88 1081 407 10;
#X obj 402 97 iemguts/sendcanvas 1;
#X obj 20 114 s \$1-overlay-save;
#X obj 20 66 iemguts/savebangs 1;
#X obj 13 352 iemguts/canvasname 1;
#X obj 20 257 f;
#X msg 20 301 symbol overlay-\$1.pd;
#X obj 20 146 iemguts/closebang;
#X obj 20 88 del 100;
#X msg 81 199 1;
#X obj 20 198 spigot;
#X msg 150 326 symbol tmp/\$1-overlay.pd;
#X obj 150 268 f \$1;
#X obj 453 248 outlet;
#X obj 539 248 outlet;
#X obj 637 248 outlet;
#X obj 825 248 outlet;
#X obj 733 248 outlet;
#X obj 402 75 receive \$1-overlay;
#X obj 150 239 receive \$1-lb;
#X obj 35 232 receive \$1-build2;
#X obj 453 206 receive \$1-inlet-in;
#X obj 539 226 receive \$1-outletx-in;
#X obj 637 206 receive \$1-outlety-in;
#X obj 825 206 receive \$1-everything;
#X obj 733 226 receive \$1-mousein;
#X obj 300 10 iemguts/savebangs 3;
#X obj 333 33 receive \$1-openeds;
#X obj 300 55 spigot;
#X msg 385 54 menusave;
#X obj 300 77 spigot 1;
#X msg 327 301 1;
#X obj 913 248 outlet;
#X obj 913 226 receive \$1-customs;
#X obj 327 192 spigot 1;
#X obj 345 129 s saveroo);
#X obj 327 150 receive saveroo);
#X obj 327 213 t b f;
#X obj 354 235 s sveroo));
#X obj 372 171 receive sveroo));
#X obj 300 102 t b b b b b f;
#X obj 327 279 t b b;
#X obj 327 323 s svero((;
#X obj 413 129 receive svero((;
#X obj 327 257 del 1000;
#X msg 354 345 menusave;
#X obj 354 367 iemguts/sendcanvas 3;
#X obj 20 168 t b b;
#X obj 58 169 s \$1-closing;
#X connect 2 0 7 0;
#X connect 4 0 5 0;
#X connect 5 0 3 1;
#X connect 6 0 46 0;
#X connect 7 0 1 0;
#X connect 8 0 9 1;
#X connect 9 0 4 0;
#X connect 10 0 3 1;
#X connect 11 0 10 0;
#X connect 17 0 0 0;
#X connect 18 0 8 0;
#X connect 18 0 11 0;
#X connect 19 0 4 1;
#X connect 20 0 12 0;
#X connect 21 0 13 0;
#X connect 22 0 14 0;
#X connect 23 0 15 0;
#X connect 24 0 16 0;
#X connect 25 0 27 0;
#X connect 26 0 27 1;
#X connect 27 0 29 0;
#X connect 28 0 0 0;
#X connect 29 0 39 0;
#X connect 30 0 41 0;
#X connect 32 0 31 0;
#X connect 33 0 36 0;
#X connect 35 0 33 0;
#X connect 36 0 43 0;
#X connect 36 1 37 0;
#X connect 38 0 33 1;
#X connect 39 3 34 0;
#X connect 39 4 28 0;
#X connect 39 5 29 1;
#X connect 40 0 30 0;
#X connect 40 1 44 0;
#X connect 42 0 29 1;
#X connect 42 0 33 1;
#X connect 43 0 40 0;
#X connect 44 0 45 0;
#X connect 46 0 9 0;
#X connect 46 1 47 0;
