#N canvas 760 356 563 300 10;
#X obj 13 129 s \$1-inlet-out;
#X obj 104 129 s \$1-outletx;
#X obj 183 129 s \$1-outlety;
#X obj 347 129 s \$1-everythingout;
#X obj 262 129 s \$1-mouseout;
#X obj 13 105 inlet;
#X obj 104 105 inlet;
#X obj 183 105 inlet;
#X obj 347 105 inlet;
#X obj 262 105 inlet;
#X obj 463 105 inlet;
#X obj 463 129 s \$1-customr;
#X connect 5 0 0 0;
#X connect 6 0 1 0;
#X connect 7 0 2 0;
#X connect 8 0 3 0;
#X connect 9 0 4 0;
#X connect 10 0 11 0;
