#N canvas 317 85 721 473 10;
#X obj 322 186 iemguts/canvasargs;
#X obj 322 162 loadbang;
#X obj 342 407 s \$0-labr;
#X obj 485 423 iemguts/sendcanvas;
#X obj 221 438 s \$1-\$2;
#X obj 322 210 list split 3;
#X obj 101 101 cnv 10 86 18 empty \$0-canv empty 20 12 0 14 -262134
-66577 0;
#X obj 286 437 s \$0-canv;
#X obj 105 102 hsl 79 16 0 127 0 0 \$0-labs \$0-labr \$4 -1 5 0 10
-262134 -262134 -1 0 1;
#X obj 156 213 t b b;
#X obj 156 259 t b f f;
#X obj 42 327 demux;
#X obj 42 305 list 11 -1.65798e+007 -1;
#X obj 42 259 t b a;
#X obj 156 191 sp01 1;
#X msg 485 402 donecanvasdialog 0 -1 2 0 -1 1 1 \$1 15 100 100 \, dirty
0;
#X msg 511 365 vis_size \$1 13;
#X msg 346 361 size \$1 11;
#X obj 356 233 list fromsymbol;
#X obj 356 255 list length;
#X obj 356 278 * 6;
#X text 234 34 arguments: \$0 \, send \, recieve \, label;
#X obj 346 333 - 2;
#X obj 464 334 + 7;
#X obj 511 337 + 5;
#X msg 43 349 color \$1;
#X msg 215 329 color \$1 \$1 \$3;
#X msg 143 349 color \$2;
#X obj 156 236 alter \$5;
#X obj 249 249 f \$5;
#X obj 249 271 > 0;
#X obj 535 226 ./config;
#X msg 535 276 pos \$1 102;
#X msg 535 249 105;
#X msg 580 250 102;
#X obj 63 166 receive \$1-\$3;
#X obj 156 166 receive \$0-labs;
#X obj 42 237 receive \$1-ocol;
#X obj 207 191 receive \$1-mup;
#X connect 0 0 5 0;
#X connect 1 0 0 0;
#X connect 1 0 29 0;
#X connect 1 0 31 0;
#X connect 5 1 18 0;
#X connect 9 0 28 0;
#X connect 9 1 14 1;
#X connect 10 0 12 0;
#X connect 10 1 11 1;
#X connect 10 2 4 0;
#X connect 11 0 25 0;
#X connect 11 1 27 0;
#X connect 12 0 11 0;
#X connect 12 0 26 0;
#X connect 13 0 12 0;
#X connect 13 1 12 1;
#X connect 14 0 9 0;
#X connect 15 0 3 0;
#X connect 16 0 7 0;
#X connect 17 0 2 0;
#X connect 18 0 19 0;
#X connect 19 0 20 0;
#X connect 20 0 23 0;
#X connect 20 0 22 0;
#X connect 20 0 24 0;
#X connect 22 0 17 0;
#X connect 23 0 15 0;
#X connect 24 0 16 0;
#X connect 25 0 7 0;
#X connect 26 0 2 0;
#X connect 27 0 7 0;
#X connect 28 0 10 0;
#X connect 29 0 30 0;
#X connect 30 0 11 1;
#X connect 31 0 33 0;
#X connect 31 1 34 0;
#X connect 32 0 2 0;
#X connect 33 0 32 0;
#X connect 34 0 32 0;
#X connect 35 0 10 0;
#X connect 35 0 28 0;
#X connect 36 0 14 0;
#X connect 37 0 13 0;
#X connect 38 0 14 2;
#X coords 0 -1 1 1 88 20 2 100 100;
