#N canvas 403 252 450 300 10;
#X obj 136 46 inlet;
#X obj 136 93 demux 0 1 2;
#X obj 199 69 t f a;
#X obj 226 93 route 1 2;
#X obj 167 119 list prepend;
#X obj 198 144 list append;
#X obj 136 174 outlet;
#X obj 277 115 t b;
#X obj 199 47 receive \$1-prepp\$2;
#X connect 0 0 1 0;
#X connect 1 0 6 0;
#X connect 1 1 4 0;
#X connect 1 2 5 0;
#X connect 2 0 1 1;
#X connect 2 1 3 0;
#X connect 3 0 4 1;
#X connect 3 1 5 1;
#X connect 3 2 7 0;
#X connect 4 0 6 0;
#X connect 5 0 6 0;
#X connect 7 0 4 1;
#X connect 7 0 5 1;
#X connect 8 0 2 0;
