#N canvas 241 67 450 300 10;
#X obj 85 25 receive paraquery";
#X obj 85 47 unpack;
#X obj 85 91 - 3;
#X obj 85 113 * 4;
#X obj 85 69 moses 12;
#X obj 278 130 spigot 1;
#X obj 278 152 t b f;
#X obj 250 105 t f b;
#X msg 278 174 read params.txt;
#X obj 278 196 array define params£;
#X obj 85 135 array get params£ 0 4;
#X msg 138 190 133 5 \$1 101;
#X obj 138 165 - 5;
#X obj 85 246 send;
#X obj 250 224 makefilename %d-paramy;
#X connect 0 0 1 0;
#X connect 1 0 4 0;
#X connect 1 1 7 0;
#X connect 2 0 3 0;
#X connect 3 0 10 0;
#X connect 4 0 2 0;
#X connect 4 1 12 0;
#X connect 5 0 6 0;
#X connect 6 0 8 0;
#X connect 6 1 5 1;
#X connect 7 0 14 0;
#X connect 7 1 5 0;
#X connect 8 0 9 0;
#X connect 10 0 13 0;
#X connect 11 0 13 0;
#X connect 12 0 11 0;
#X connect 14 0 13 1;
