#N canvas 100 145 469 466 10;
#X obj 100 100 bng 15 250 50 0 empty empty \$2 5 8 0 10 -262144 -1
-1;
#X obj 132 190 f;
#X obj 161 190 + 1;
#X obj 74 190 del 400;
#X obj 132 214 sel 1;
#X msg 155 259 stop;
#X obj 132 236 t b b f;
#X obj 74 214 t b f;
#X obj 49 363 list;
#X obj 74 236 f \$2;
#X obj 74 288 s \$1-presloads;
#X obj 263 27 r \$1-primary-col;
#X msg 263 95 color \$5 \$3 \$3;
#X obj 74 315 r \$1-presload\$2;
#X obj -21 125 r \$1-presundo\$2;
#X obj 183 39 s \$1-cough;
#X obj 263 71 demux;
#X obj 295 50 r \$1-cough;
#X msg 305 71 1;
#X obj 137 63 s \$1-colobang;
#X msg 295 121 color \$3 \$5 \$5;
#X obj 137 14 t b b f;
#X obj -21 147 t b b;
#X obj 100 126 t b b;
#X obj 74 337 t a b;
#X obj 49 385 s \$1-undonennno;
#X connect 0 0 23 0;
#X connect 1 0 2 0;
#X connect 1 0 4 0;
#X connect 2 0 1 1;
#X connect 3 0 7 0;
#X connect 4 0 6 0;
#X connect 5 0 3 0;
#X connect 6 0 8 0;
#X connect 6 1 5 0;
#X connect 6 2 1 1;
#X connect 7 0 9 0;
#X connect 7 1 1 1;
#X connect 8 0 25 0;
#X connect 9 0 10 0;
#X connect 11 0 16 0;
#X connect 12 0 0 0;
#X connect 13 0 24 0;
#X connect 14 0 22 0;
#X connect 16 0 12 0;
#X connect 16 1 20 0;
#X connect 17 0 16 1;
#X connect 18 0 16 1;
#X connect 20 0 0 0;
#X connect 21 0 19 0;
#X connect 21 1 18 0;
#X connect 21 2 15 0;
#X connect 22 0 8 0;
#X connect 22 1 21 0;
#X connect 23 0 3 0;
#X connect 23 1 1 0;
#X connect 24 0 8 1;
#X connect 24 1 21 0;
#X coords 0 -1 1 1 15 15 2 100 100;
