#N canvas 526 177 450 300 10;
#N canvas 882 225 450 373 guts 1;
#X obj 118 58 iemguts/canvasargs 1;
#X obj 191 126 zl iter 1;
#X obj 118 14 inlet;
#X obj 118 80 list split 1;
#X obj 191 156 t a b;
#X obj 218 201 + 1;
#X obj 235 247 - 1;
#X obj 260 247 * 50;
#X obj 191 317 iemguts/sendcanvas 1;
#X obj 218 179 f 3;
#X obj 218 223 t f f f f f;
#X obj 85 273 f;
#X obj 152 104 t b b a;
#X msg 85 295 connect \$1 0 2 0;
#X obj 46 138 iemguts/canvasdelete;
#X obj 191 271 pack s f f f \$1;
#X obj 146 224 route :u;
#X msg 191 295 obj 100 \$4 ctxfiles/pv \$5 \$1 \, connect \$3 0 \$2
0;
#X connect 0 0 3 0;
#X connect 1 0 4 0;
#X connect 2 0 0 0;
#X connect 3 1 12 0;
#X connect 4 0 16 0;
#X connect 4 1 9 0;
#X connect 5 0 10 0;
#X connect 6 0 15 2;
#X connect 7 0 15 3;
#X connect 9 0 5 0;
#X connect 10 0 15 1;
#X connect 10 1 6 0;
#X connect 10 2 7 0;
#X connect 10 3 11 1;
#X connect 10 4 9 1;
#X connect 11 0 13 0;
#X connect 12 1 11 0;
#X connect 12 2 1 0;
#X connect 13 0 8 0;
#X connect 15 0 17 0;
#X connect 16 1 15 0;
#X connect 17 0 8 0;
#X restore 244 71 pd guts;
#X obj 244 43 iemguts/initbang;
#X obj 182 153 s \$1-presetlist;
#X obj 105 153 r \$1-listr1;
#X connect 1 0 0 0;
