#N canvas 398 291 543 299 10;
#X obj 176 159 inlet;
#X obj 176 208 outlet;
#X obj 176 184 list append;
#X obj 212 89 list trim;
#X obj 212 65 change;
#X obj 212 113 t b a;
#X obj 212 136 s \$1-listr1;
#X obj 212 42 route float bang;
#X obj 258 65 t f;
#X obj 212 19 receive \$1-sv-\$2;
#X connect 0 0 2 0;
#X connect 2 0 1 0;
#X connect 3 0 5 0;
#X connect 4 0 3 0;
#X connect 5 0 6 0;
#X connect 5 1 2 1;
#X connect 7 0 4 0;
#X connect 7 1 8 0;
#X connect 7 2 3 0;
#X connect 8 0 5 0;
#X connect 9 0 7 0;
