#N canvas 340 83 482 661 10;
#X msg 143 107 1;
#X msg 170 107 2;
#X obj 80 177 demux 0 1 2;
#X obj 80 245 f;
#X obj 111 277 random;
#X obj 111 384 +;
#X obj 111 476 mod;
#X obj 111 500 + 1;
#X obj 80 151 inlet main;
#X obj 111 588 outlet;
#X obj 111 450 - 1;
#X obj 271 12 inlet;
#X obj 111 406 +;
#X obj 143 201 t f b b;
#X obj 20 550 s \$1-bu-bump;
#X obj 182 291 demux;
#X obj 20 524 del 199;
#X obj 287 224 f;
#X obj 77 33 t b f f f;
#X obj 287 133 change;
#X msg 314 179 1;
#X obj 287 156 sel 0;
#N canvas 544 235 743 502 gauss 0;
#X obj 157 277 inlet;
#X obj 157 344 outlet;
#X obj 304 108 until;
#X obj 304 82 t f b;
#X obj 304 130 f;
#X obj 331 130 + 1;
#X obj 304 153 t f f;
#X obj 304 185 demux 0 1 2;
#X msg 335 243 1;
#X obj 304 59 f 64;
#X obj 335 282 expr exp(-($f1-32)*($f1-32)/(2*$f2*$f2));
#X obj 304 208 == 32;
#X obj 157 322 - 32;
#X obj 341 108 t f;
#X obj 545 131 inlet;
#X obj 320 317 tabwrite \$1-rand\$2rry;
#X obj 157 300 array random \$1-rand\$2rry;
#X obj 481 92 inlet;
#X obj 545 163 t b f;
#X connect 0 0 16 0;
#X connect 2 0 4 0;
#X connect 3 0 2 0;
#X connect 3 1 13 0;
#X connect 4 0 5 0;
#X connect 4 0 6 0;
#X connect 5 0 4 1;
#X connect 6 0 7 0;
#X connect 6 1 15 1;
#X connect 7 0 11 0;
#X connect 7 1 8 0;
#X connect 7 2 10 0;
#X connect 8 0 15 0;
#X connect 9 0 3 0;
#X connect 10 0 15 0;
#X connect 11 0 15 0;
#X connect 12 0 1 0;
#X connect 13 0 4 1;
#X connect 14 0 18 0;
#X connect 16 0 12 0;
#X connect 17 0 7 1;
#X connect 18 0 9 0;
#X connect 18 1 10 1;
#X restore 182 226 pd gauss;
#X obj 95 223 route float;
#X obj 116 107 t f;
#X obj 143 134 t f f;
#X obj 111 349 + 1;
#X obj 116 83 sel 0 63.36;
#X obj 280 435 moses;
#X msg 280 459 0;
#X obj 287 111 == 63.36;
#X obj 182 374 clip;
#X obj 287 248 t f f;
#X obj 287 305 demux;
#X obj 280 482 t b f;
#X obj 111 533 t f f;
#X obj 287 333 switch-\$2;
#X obj 75 6 receive \$1-rand\$2;
#X obj 287 202 receive \$1-\$3wrap;
#X obj 280 413 receive \$1-prog\$2;
#X obj 144 249 receive \$1-burstl;
#X obj 11 129 receive \$1seed\$4;
#X connect 0 0 25 0;
#X connect 1 0 25 0;
#X connect 2 0 3 0;
#X connect 2 1 4 0;
#X connect 2 2 13 0;
#X connect 3 0 5 0;
#X connect 4 0 26 0;
#X connect 5 0 12 0;
#X connect 6 0 7 0;
#X connect 7 0 35 0;
#X connect 8 0 2 0;
#X connect 10 0 6 0;
#X connect 11 0 23 0;
#X connect 12 0 10 0;
#X connect 13 0 12 1;
#X connect 13 1 3 0;
#X connect 13 2 22 0;
#X connect 15 0 31 0;
#X connect 15 1 12 1;
#X connect 16 0 14 0;
#X connect 17 0 32 0;
#X connect 18 0 16 0;
#X connect 18 1 22 2;
#X connect 18 2 27 0;
#X connect 18 3 30 0;
#X connect 19 0 21 0;
#X connect 20 0 32 0;
#X connect 21 0 17 0;
#X connect 21 1 20 0;
#X connect 22 0 15 0;
#X connect 23 0 3 1;
#X connect 24 0 25 0;
#X connect 25 0 2 1;
#X connect 25 1 22 1;
#X connect 26 0 5 0;
#X connect 27 0 24 0;
#X connect 27 1 0 0;
#X connect 27 2 1 0;
#X connect 28 0 29 0;
#X connect 28 1 34 0;
#X connect 29 0 34 0;
#X connect 30 0 19 0;
#X connect 31 0 12 1;
#X connect 32 0 15 1;
#X connect 32 1 33 1;
#X connect 33 0 36 0;
#X connect 34 0 16 0;
#X connect 34 1 5 1;
#X connect 35 0 9 0;
#X connect 35 1 33 0;
#X connect 36 0 31 1;
#X connect 36 1 31 2;
#X connect 37 0 18 0;
#X connect 38 0 17 0;
#X connect 39 0 28 0;
#X connect 40 0 4 1;
#X connect 40 0 6 1;
#X connect 40 0 36 1;
#X connect 41 0 4 0;
#X connect 41 0 22 0;
