#N canvas 570 177 699 567 10;
#X obj 287 448 outlet;
#X obj 287 423 list trim;
#X obj 190 79 inlet done;
#X obj 450 316 outlet;
#X obj 450 293 f;
#X msg 499 128 1;
#X obj 225 213 spigot;
#X msg 190 128 0;
#X obj 281 150 demux;
#X obj 334 212 route float;
#X obj 397 242 print command not recognized;
#X obj 190 105 t b b;
#X obj 287 396 ex01;
#X obj 281 126 receive \$1-othr;
#X obj 465 79 receive \$1-rnum;
#X obj 374 268 alter;
#X obj 347 292 demux;
#X obj 353 398 ex01;
#X obj 410 523 list trim;
#X obj 465 104 t f f b b;
#X obj 410 447 t a b;
#X obj 410 545 send;
#X msg 431 498 symbol \$1-\$2-refeed;
#X obj 431 476 pack \$1 f;
#X obj 353 339 receive \$1-feedme;
#X obj 308 362 spigot 1;
#X msg 304 278 1;
#X obj 353 425 sp01;
#X obj 217 251 t b b b b f f b;
#X obj 347 242 t b b;
#X obj 374 374 t a a;
#X obj 308 176 route :;
#X connect 1 0 0 0;
#X connect 2 0 11 0;
#X connect 4 0 3 0;
#X connect 5 0 6 1;
#X connect 5 0 8 1;
#X connect 6 0 28 0;
#X connect 7 0 6 1;
#X connect 7 0 8 1;
#X connect 8 0 9 0;
#X connect 8 1 31 0;
#X connect 9 1 10 0;
#X connect 11 0 7 0;
#X connect 11 1 28 0;
#X connect 12 0 1 0;
#X connect 13 0 8 0;
#X connect 14 0 19 0;
#X connect 15 0 16 1;
#X connect 16 0 25 0;
#X connect 16 1 30 0;
#X connect 17 0 27 0;
#X connect 18 0 21 0;
#X connect 19 0 4 1;
#X connect 19 1 23 1;
#X connect 19 2 5 0;
#X connect 19 3 6 0;
#X connect 20 0 18 0;
#X connect 20 1 23 0;
#X connect 22 0 21 1;
#X connect 23 0 22 0;
#X connect 24 0 25 1;
#X connect 25 0 12 1;
#X connect 26 0 25 1;
#X connect 27 0 20 0;
#X connect 28 0 27 1;
#X connect 28 1 12 0;
#X connect 28 2 4 0;
#X connect 28 3 17 0;
#X connect 28 4 16 1;
#X connect 28 5 15 0;
#X connect 28 6 26 0;
#X connect 29 0 27 2;
#X connect 29 1 15 0;
#X connect 30 0 17 1;
#X connect 30 1 12 1;
#X connect 31 0 29 0;
#X connect 31 1 16 0;
