#N canvas 65 82 450 350 10;
#X obj 111 76 route bang;
#X msg 111 98 1;
#X obj 92 50 t b a b;
#X obj 197 50 t b a b;
#X msg 236 73 1;
#X msg 143 51 0;
#X obj 191 211 demux;
#X obj 191 238 +;
#X obj 218 238 -;
#X obj 92 186 list-abs/list-map;
#X obj 191 261 - 1;
#X obj 191 307 + 1;
#X obj 191 285 mod 5;
#X obj 235 210 t b f f;
#X obj 92 154 list;
#X obj 92 209 s \$1-shifted\$4;
#X obj 92 8 receive \$1-shift\$2;
#X obj 197 28 receive \$1-shift\$3;
#X obj 235 188 receive \$1-\$4size-2;
#X obj 107 132 receive \$0-togs\$4;
#X connect 0 0 1 0;
#X connect 0 1 7 1;
#X connect 0 1 8 1;
#X connect 1 0 7 1;
#X connect 1 0 8 1;
#X connect 2 0 14 0;
#X connect 2 1 0 0;
#X connect 2 2 5 0;
#X connect 3 0 14 0;
#X connect 3 1 0 0;
#X connect 3 2 4 0;
#X connect 4 0 6 1;
#X connect 5 0 6 1;
#X connect 6 0 7 0;
#X connect 6 1 8 0;
#X connect 7 0 10 0;
#X connect 8 0 10 0;
#X connect 9 0 15 0;
#X connect 9 1 6 0;
#X connect 10 0 12 0;
#X connect 11 0 9 1;
#X connect 12 0 11 0;
#X connect 13 1 12 1;
#X connect 14 0 9 0;
#X connect 16 0 2 0;
#X connect 17 0 3 0;
#X connect 18 0 13 0;
#X connect 19 0 14 1;
