#N canvas 747 271 450 420 10;
#X obj 215 162 div \$4;
#X obj 215 104 - \$1;
#X obj 183 321 +;
#X obj 183 261 mod \$4;
#X obj 215 187 + 13;
#X obj 282 172 div \$4;
#X obj 192 80 t f f f;
#X obj 282 194 + 12;
#X obj 282 216 * \$5;
#X obj 183 292 clip 0 \$5;
#X obj 215 236 outlet;
#X obj 183 365 outlet;
#X obj 183 343 + \$6;
#X obj 306 107 f \$1;
#X obj 281 68 t f b;
#X obj 32 80 t f f f;
#X obj 32 58 receive \$2-\$3size-22;
#X obj 192 17 receive \$2-\$3zoom;
#X obj 281 46 receive \$2-\$3zoom\$1;
#X connect 0 0 4 0;
#X connect 1 0 0 0;
#X connect 2 0 12 0;
#X connect 3 0 9 0;
#X connect 4 0 10 0;
#X connect 5 0 7 0;
#X connect 6 0 3 0;
#X connect 6 1 1 0;
#X connect 6 2 5 0;
#X connect 7 0 8 0;
#X connect 8 0 2 1;
#X connect 9 0 2 0;
#X connect 12 0 11 0;
#X connect 13 0 5 1;
#X connect 13 0 0 1;
#X connect 13 0 3 1;
#X connect 14 0 6 0;
#X connect 14 1 13 0;
#X connect 15 0 3 1;
#X connect 15 1 0 1;
#X connect 15 2 5 1;
#X connect 16 0 15 0;
#X connect 17 0 6 0;
#X connect 18 0 14 0;
