#N canvas 379 158 450 300 10;
#X obj 187 64 inlet;
#X obj 186 161 outlet;
#X obj 187 108 s \$1-;
#X obj 186 135 receive \$1;
#X obj 277 125 share \$1 1 cr \$1 \$2;
#X obj 58 64 receive \$2-und-n;
#X obj 58 86 s \$1-und-n;
#X obj 58 114 receive \$2-und-l;
#X obj 58 196 s \$1-und-l;
#X obj 58 166 list append;
#X obj 46 139 receive \$2nnumber;
#X connect 0 0 2 0;
#X connect 3 0 1 0;
#X connect 5 0 6 0;
#X connect 7 0 9 0;
#X connect 9 0 8 0;
#X connect 10 0 9 1;
