#N canvas 95 404 450 300 10;
#X obj 147 57 inlet;
#X obj 168 100 inlet;
#X obj 147 146 route bang;
#X obj 204 170 moocow/bytes2any;
#X msg 147 170 %t^h&j;
#X obj 147 124 ex01;
#X obj 126 194 ex01;
#X obj 109 170 inlet;
#X obj 126 216 s \$1;
#X obj 147 79 cyclone/onebang;
#X obj 234 36 inlet;
#X obj 234 58 t b;
#X connect 0 0 9 0;
#X connect 1 0 5 1;
#X connect 2 0 4 0;
#X connect 2 1 3 0;
#X connect 3 0 6 1;
#X connect 4 0 6 1;
#X connect 5 0 2 0;
#X connect 6 0 8 0;
#X connect 7 0 6 0;
#X connect 9 0 5 0;
#X connect 10 0 11 0;
#X connect 11 0 9 1;
