#N canvas 291 231 450 300 10;
#X obj 152 184 until;
#X obj 144 44 receive \$1-lb;
#X obj 144 113 change;
#X obj 144 135 t f f f f;
#X obj 152 159 -;
#X obj 144 91 max \$3;
#X obj 152 206 s \$1-\$2ibang;
#X obj 178 159 s \$1-\$2incr;
#X obj 156 65 receive \$1-\$2start;
#X obj 156 23 receive \$1-\$4;
#X connect 0 0 6 0;
#X connect 1 0 5 0;
#X connect 2 0 3 0;
#X connect 3 0 4 1;
#X connect 3 1 4 0;
#X connect 3 2 7 0;
#X connect 3 3 5 1;
#X connect 4 0 0 0;
#X connect 5 0 2 0;
#X connect 8 0 5 0;
#X connect 9 0 5 0;
