#N canvas 482 119 450 300 10;
#X obj 137 170 + 1;
#X obj 137 238 outlet;
#X obj 227 72 t a b;
#X msg 296 102 clear;
#X obj 227 146 cyclone/iter;
#X obj 104 146 sel -1;
#X obj 104 204 t f;
#X obj 77 79 inlet;
#X obj 77 101 t b a;
#X obj 227 47 receive \$1-\$2store;
#X obj 227 168 text set \$1-\$2st 1e+06;
#X obj 104 124 text search \$1-\$2st;
#X obj 137 194 text get \$1-\$2st;
#X obj 296 124 text define \$1-\$2st;
#X connect 0 0 12 0;
#X connect 2 0 4 0;
#X connect 2 1 3 0;
#X connect 3 0 13 0;
#X connect 4 0 10 0;
#X connect 5 0 6 0;
#X connect 5 1 0 0;
#X connect 6 0 1 0;
#X connect 7 0 8 0;
#X connect 8 0 6 0;
#X connect 8 1 11 0;
#X connect 9 0 2 0;
#X connect 11 0 5 0;
#X connect 12 0 1 0;
