#N canvas 690 85 560 626 10;
#X obj 188 328 inlet;
#X obj 176 517 outlet;
#X obj 188 356 list append;
#X obj 96 186 s \$1-lstr;
#X obj 231 258 route \$3;
#X obj 224 74 list trim;
#X obj 251 308 t a a;
#X obj 231 187 list prepend \$4;
#X obj 231 211 route 0 1;
#X obj 256 233 outlet;
#X obj 300 233 inlet;
#X obj 161 51 route float;
#X obj 161 74 change;
#X obj 220 402 route \$2;
#X obj 251 283 list prepend :\$2;
#X msg 294 447 1;
#X obj 220 447 t f;
#X obj 225 492 route bang;
#X obj 225 540 list trim;
#X msg 271 162 set -1;
#X obj 271 119 sp01 1;
#X obj 224 96 t a b;
#X obj 271 141 t b b;
#X obj 161 96 t f b;
#X obj 292 330 s \$1-sv-:\$2;
#X obj 238 51 inlet;
#X obj 161 28 receive \$1-:\$2;
#X obj 219 380 receive \$1-printyou;
#X obj 225 517 list prepend :\$2 \$3;
#X obj 269 562 s \$1-printmee;
#X obj 225 586 s \$1-und-l;
#X obj 188 470 demux;
#X obj 225 562 demux;
#X obj 220 425 t b b b b b;
#X msg 265 447 1;
#X obj 247 469 t f;
#X obj 293 308 s \$1-und-n;
#X obj 250 330 t a a;
#X obj 161 135 t b a a b b b;
#X connect 0 0 2 0;
#X connect 2 0 31 0;
#X connect 4 0 37 0;
#X connect 5 0 21 0;
#X connect 6 0 37 0;
#X connect 6 1 36 0;
#X connect 7 0 8 0;
#X connect 8 0 4 0;
#X connect 8 1 9 0;
#X connect 10 0 37 0;
#X connect 11 0 12 0;
#X connect 11 1 5 0;
#X connect 12 0 23 0;
#X connect 13 0 33 0;
#X connect 14 0 6 0;
#X connect 15 0 31 1;
#X connect 16 0 31 1;
#X connect 17 0 28 0;
#X connect 17 1 18 0;
#X connect 18 0 32 0;
#X connect 19 0 12 0;
#X connect 20 0 22 0;
#X connect 21 0 38 0;
#X connect 21 1 20 0;
#X connect 22 0 19 0;
#X connect 22 1 20 1;
#X connect 23 0 38 0;
#X connect 23 1 20 2;
#X connect 25 0 12 0;
#X connect 26 0 11 0;
#X connect 27 0 13 0;
#X connect 28 0 18 0;
#X connect 31 0 1 0;
#X connect 31 1 17 0;
#X connect 32 0 30 0;
#X connect 32 1 29 0;
#X connect 33 0 16 0;
#X connect 33 1 35 0;
#X connect 33 2 2 0;
#X connect 33 3 34 0;
#X connect 33 4 15 0;
#X connect 34 0 32 1;
#X connect 35 0 32 1;
#X connect 37 0 2 1;
#X connect 37 1 24 0;
#X connect 38 0 3 0;
#X connect 38 1 7 0;
#X connect 38 2 14 0;
#X connect 38 3 16 0;
#X connect 38 4 2 0;
#X connect 38 5 15 0;
