#N canvas 176 343 450 300 10;
#X obj 133 80 unpack;
#X obj 133 132 t f f;
#X obj 170 132 t f f;
#X obj 133 203 pack f f f f;
#X obj 160 157 array get \$2-\$1o 0 1;
#X obj 197 180 array get \$2-\$1o 0 1;
#X obj 133 107 - 1;
#X obj 170 107 - 1;
#X obj 133 228 s \$2-\$1s;
#X obj 133 58 receive \$2-\$1r;
#X connect 0 0 6 0;
#X connect 0 1 7 0;
#X connect 1 0 3 0;
#X connect 1 1 4 0;
#X connect 2 0 3 2;
#X connect 2 1 5 0;
#X connect 3 0 8 0;
#X connect 4 0 3 3;
#X connect 5 0 3 1;
#X connect 6 0 1 0;
#X connect 7 0 2 0;
#X connect 9 0 0 0;
