#N canvas 414 396 493 355 10;
#X obj 138 77 inlet;
#X obj 138 184 outlet;
#X obj 201 268 s \$1-undone2;
#X obj 201 56 moses 1;
#X obj 138 126 demux;
#X obj 212 325 outlet;
#X obj 266 79 t b f;
#X obj 201 79 t b f;
#X obj 270 178 - 1;
#X obj 201 156 list 0 0 0;
#X obj 201 200 list split 3;
#X obj 270 223 list append 0;
#X obj 220 130 t b a;
#X obj 201 246 list prepend :\$4;
#X obj 266 101 s \$1-\$5;
#X obj 133 156 s \$1-\$5col;
#X obj 201 33 receive \$1-\$2;
#X obj 270 156 receive \$1-\$3size-2;
#X obj 258 130 receive \$1-:\$4;
#X connect 0 0 4 0;
#X connect 3 0 7 0;
#X connect 3 1 6 0;
#X connect 4 0 1 0;
#X connect 4 1 15 0;
#X connect 6 0 14 0;
#X connect 6 1 4 1;
#X connect 7 0 9 0;
#X connect 7 1 4 1;
#X connect 8 0 10 1;
#X connect 9 0 10 0;
#X connect 10 0 13 0;
#X connect 10 2 11 0;
#X connect 11 0 12 0;
#X connect 12 0 9 0;
#X connect 12 1 9 1;
#X connect 13 0 2 0;
#X connect 16 0 3 0;
#X connect 17 0 8 0;
#X connect 18 0 9 1;
