#N canvas 316 221 493 438 10;
#X obj 138 77 inlet;
#X obj 138 184 outlet;
#X obj 344 247 s \$1-undone2;
#X obj 201 56 moses 1;
#X obj 218 222 outlet;
#X msg 292 98 2;
#X obj 138 126 demux 0 1 2;
#X obj 201 79 t f b b b;
#X obj 218 146 list;
#X obj 218 168 t b a;
#X msg 218 194 1;
#X obj 327 57 t f b b b;
#X obj 361 82 s \$1-togsoff\$3;
#X obj 344 225 list prepend :\$3;
#X obj 169 270 switch-\$5 \$1;
#X obj 344 144 list \$6;
#X obj 201 33 receive \$1-\$2;
#X obj 383 119 receive \$1-\$4;
#X obj 239 123 receive \$1-\$3flt;
#X connect 0 0 6 0;
#X connect 3 0 7 0;
#X connect 3 1 11 0;
#X connect 5 0 6 1;
#X connect 6 0 1 0;
#X connect 6 1 14 0;
#X connect 7 0 6 1;
#X connect 7 1 8 0;
#X connect 7 2 12 0;
#X connect 7 3 5 0;
#X connect 8 0 9 0;
#X connect 9 0 10 0;
#X connect 9 1 13 0;
#X connect 10 0 4 0;
#X connect 11 0 6 1;
#X connect 11 1 15 0;
#X connect 11 2 12 0;
#X connect 11 3 5 0;
#X connect 13 0 2 0;
#X connect 14 0 6 1;
#X connect 14 1 2 0;
#X connect 14 2 12 0;
#X connect 15 0 13 0;
#X connect 16 0 3 0;
#X connect 17 0 15 1;
#X connect 18 0 8 1;
