#N canvas 744 230 450 300 10;
#X obj 123 63 route 0;
#X msg 196 203 1;
#X obj 271 203 t f;
#X msg 123 86 1 \$1;
#X obj 247 77 inlet;
#X msg 241 203 2;
#X obj 196 246 outlet;
#X obj 162 86 list split 1;
#X obj 256 246 outlet;
#X obj 307 246 outlet;
#X obj 196 120 t b a b b a b;
#X msg 256 146 :u \$2;
#X msg 211 146 :y \$2;
#X connect 0 0 3 0;
#X connect 0 1 7 0;
#X connect 1 0 6 0;
#X connect 2 0 6 0;
#X connect 3 0 7 0;
#X connect 4 0 10 0;
#X connect 5 0 6 0;
#X connect 7 1 10 0;
#X connect 10 0 1 0;
#X connect 10 1 12 0;
#X connect 10 2 9 0;
#X connect 10 3 5 0;
#X connect 10 4 11 0;
#X connect 10 5 2 0;
#X connect 11 0 8 0;
#X connect 12 0 8 0;
