#N canvas 387 199 450 300 10;
#X obj 162 46 inlet;
#X obj 189 93 f \$2;
#X obj 189 115 s \$1-rnum;
#X obj 177 152 receive \$1-\$2-refeed;
#X obj 162 68 t b b;
#X obj 162 242 s \$1-feedme;
#X obj 177 174 t b;
#X obj 177 196 alter 1;
#X obj 162 220 f 1;
#X connect 0 0 4 0;
#X connect 1 0 2 0;
#X connect 3 0 6 0;
#X connect 4 0 8 0;
#X connect 4 1 1 0;
#X connect 6 0 7 0;
#X connect 7 0 8 1;
#X connect 8 0 5 0;
