#N canvas 0 86 1276 686 10;
#X obj 627 151 iemguts/canvasargs;
#X obj 611 300 cyclone/zl iter 1;
#X obj 610 528 list append;
#X obj 627 219 list split 6;
#X obj 713 220 list split 6;
#X obj 713 246 t a a;
#X obj 713 270 list split 4;
#X obj 797 477 iemguts/sendcanvas;
#X obj 740 295 list split 1;
#X obj 774 319 unpack f f f f f;
#X obj 638 346 f;
#X obj 664 346 + 1;
#X obj 638 280 list length;
#X obj 638 370 *;
#X obj 638 392 /;
#X obj 611 322 t a b;
#X obj 610 506 list append;
#X obj 711 371 pack f f;
#X obj 711 393 cyclone/zl rev;
#X obj 711 415 /;
#X obj 610 550 list append;
#X obj 611 259 t a a b;
#X obj 652 323 t f;
#X msg 565 219 dirty 0;
#X obj 980 338 + 4;
#X msg 711 442 1 \$1;
#X obj 613 417 list prepend 0;
#X obj 820 407 spigot;
#X obj 610 572 list append 4;
#X obj 736 536 * -0.8;
#X obj 627 173 t b b a a;
#X obj 952 391 pack f f 2;
#X msg 900 357 1 1 0;
#X msg 797 452 donecanvasdialog 1 1 \$3 1 -1 1 1 \$2 \$1 -1 -1;
#X msg 1022 335 menu-open;
#X msg 953 420 vis 0;
#X obj 952 365 + 4;
#X obj 952 331 f;
#X obj 952 272 sel 0;
#X obj 974 298 t b;
#X obj 925 247 t b b f b;
#X obj 610 594 list append \$1;
#X obj 1008 548 s \$1-propr;
#X msg 610 617 obj \$2 \$3 cnv 1 \$8 \$9 \$11-props \$11-propr \$1
\$10 8 \$7 \$6 10 20 30;
#X obj 627 127 receive \$1-lb;
#X obj 925 216 receive \$1-flow;
#X obj 1008 526 receive \$1-tcol;
#X connect 0 0 30 0;
#X connect 1 0 15 0;
#X connect 2 0 20 0;
#X connect 3 1 21 0;
#X connect 4 0 5 0;
#X connect 5 0 6 0;
#X connect 5 1 8 0;
#X connect 6 0 2 1;
#X connect 8 1 9 0;
#X connect 9 1 24 0;
#X connect 9 1 27 0;
#X connect 9 3 13 1;
#X connect 9 3 17 1;
#X connect 9 3 37 1;
#X connect 9 4 27 1;
#X connect 10 0 11 0;
#X connect 10 0 13 0;
#X connect 11 0 10 1;
#X connect 12 0 14 1;
#X connect 12 0 17 0;
#X connect 13 0 14 0;
#X connect 14 0 26 0;
#X connect 15 0 16 0;
#X connect 15 1 10 0;
#X connect 16 0 2 0;
#X connect 17 0 18 0;
#X connect 18 0 19 0;
#X connect 19 0 25 0;
#X connect 20 0 28 0;
#X connect 21 0 1 0;
#X connect 21 1 12 0;
#X connect 21 2 22 0;
#X connect 22 0 10 1;
#X connect 23 0 7 0;
#X connect 24 0 31 1;
#X connect 25 0 20 1;
#X connect 26 0 16 1;
#X connect 27 0 26 1;
#X connect 27 0 29 0;
#X connect 28 0 41 0;
#X connect 29 0 28 1;
#X connect 30 0 23 0;
#X connect 30 2 3 0;
#X connect 30 3 4 0;
#X connect 31 0 33 0;
#X connect 32 0 33 0;
#X connect 33 0 7 0;
#X connect 34 0 7 0;
#X connect 35 0 7 0;
#X connect 36 0 31 0;
#X connect 37 0 36 0;
#X connect 38 0 32 0;
#X connect 38 1 39 0;
#X connect 39 0 37 0;
#X connect 40 0 23 0;
#X connect 40 1 35 0;
#X connect 40 2 38 0;
#X connect 40 3 34 0;
#X connect 41 0 43 0;
#X connect 43 0 7 0;
#X connect 44 0 0 0;
#X connect 45 0 40 0;
#X connect 46 0 42 0;
#X coords 0 686 1 685 0 0 0;
