#N canvas 268 406 1020 338 10;
#X obj 91 6 ol-config \$1;
#X obj 280 26 list split 1;
#X obj 670 37 list trim;
#X obj 280 1 r \$1-inlet-in;
#X obj 320 50 s \$1-inlet-out;
#X obj 426 3 r \$1-outletx-in;
#X obj 426 42 s \$1-outletx;
#X obj 540 3 r \$1-outlety-in;
#X obj 540 42 s \$1-outlety;
#X obj 670 3 r \$1-everything;
#X obj 670 61 s \$1-everythingout;
#X obj 800 3 r \$1-mousein;
#X obj 800 42 s \$1-mouseout;
#X connect 1 1 4 0;
#X connect 2 0 10 0;
#X connect 3 0 1 0;
#X connect 5 0 6 0;
#X connect 7 0 8 0;
#X connect 9 0 2 0;
#X connect 11 0 12 0;
#X coords 0 -1 1 1 48 36 2 100 98;
