#N canvas 749 325 450 300 10;
#X obj 173 47 inlet;
#X obj 212 127 list length;
#X obj 212 149 array size \$1-\$2arry;
#X obj 192 172 array set \$1-\$2arry;
#X obj 174 234 array define \$1-\$2arry \$4;
#X obj 173 74 switch-\$3 \$1 \$5;
#X obj 173 100 t b a a;
#X obj 173 195 s \$1-\$2doned;
#X connect 0 0 5 0;
#X connect 1 0 2 0;
#X connect 5 0 6 0;
#X connect 6 0 7 0;
#X connect 6 1 3 0;
#X connect 6 2 1 0;
