#N canvas 302 193 450 374 10;
#X obj 117 6 inlet;
#X obj 191 283 s \$1-\$2;
#X obj 211 259 outlet;
#X obj 207 25 receive \$3-retime;
#X obj 43 130 t f;
#X msg 43 107 1;
#X obj 172 333 s \$1-:\$4;
#X obj 43 156 s \$1-stop\$4;
#X obj 172 308 * 0.001;
#X obj 172 229 t f f f;
#X obj 172 148 t f f;
#X obj 214 148 *;
#X obj 117 30 t b f f b;
#X obj 238 95 ==;
#X obj 134 107 demux;
#X obj 161 184 t b;
#X obj 222 120 demux;
#X obj 207 50 t b f b f b;
#X obj 238 73 * 1;
#X connect 0 0 12 0;
#X connect 3 0 17 0;
#X connect 4 0 7 0;
#X connect 5 0 7 0;
#X connect 8 0 6 0;
#X connect 9 0 8 0;
#X connect 9 1 1 0;
#X connect 9 2 2 0;
#X connect 10 0 9 0;
#X connect 10 1 11 1;
#X connect 11 0 10 0;
#X connect 12 0 5 0;
#X connect 12 1 14 0;
#X connect 12 2 18 0;
#X connect 12 3 4 0;
#X connect 13 0 16 1;
#X connect 13 0 14 1;
#X connect 14 0 10 0;
#X connect 14 1 15 0;
#X connect 15 0 9 0;
#X connect 16 0 11 0;
#X connect 16 1 15 0;
#X connect 17 0 5 0;
#X connect 17 1 16 0;
#X connect 17 2 18 0;
#X connect 17 3 18 1;
#X connect 17 4 4 0;
#X connect 18 0 13 0;
