#N canvas 194 274 450 300 10;
#X obj 171 58 inlet;
#X obj 190 143 f \$1;
#X obj 240 143 f \$2;
#X msg 210 58 s \$1;
#X obj 190 195 s \$3-owhich;
#X obj 240 165 s \$3-osome;
#X obj 111 165 s \$3-ovalue;
#X obj 210 12 r \$5-:\$4;
#X obj 268 12 r \$5-stop\$4;
#X obj 210 34 spigot 1;
#X obj 171 90 t a b b;
#X connect 0 0 10 0;
#X connect 1 0 4 0;
#X connect 2 0 5 0;
#X connect 3 0 10 0;
#X connect 7 0 9 0;
#X connect 8 0 9 1;
#X connect 9 0 3 0;
#X connect 10 0 6 0;
#X connect 10 1 1 0;
#X connect 10 2 2 0;
