#N canvas 106 228 450 300 10;
#X obj 210 131 r \$1-\$2;
#X obj 236 41 r \$1-\$3;
#X obj 198 69 demux;
#X obj 198 41 inlet;
#X obj 225 94 t a b;
#X obj 210 157 sp01;
#X obj 178 94 t a b;
#X obj 178 226 outlet;
#X obj 210 188 \$4;
#X connect 0 0 5 0;
#X connect 1 0 2 1;
#X connect 2 0 6 0;
#X connect 2 1 4 0;
#X connect 3 0 2 0;
#X connect 4 0 8 1;
#X connect 4 1 5 2;
#X connect 5 0 8 0;
#X connect 6 0 7 0;
#X connect 6 1 5 1;
#X connect 8 0 7 0;
