#N canvas 187 314 621 299 10;
#X obj 506 193 iemguts/canvasselect;
#X obj 506 219 print fo;
#X obj 506 170 bng 15 250 50 0 empty empty empty 17 7 0 10 -262144
-1 -1;
#N canvas 760 81 372 392 workings 1;
#X msg 63 75 vis 1;
#X obj 63 97 iemguts/sendcanvas;
#X obj 63 53 r cntent;
#N canvas 96 132 1011 548 c-movement 0;
#X obj 331 -7 inlet height;
#X obj 256 -9 inlet;
#X obj 183 525 iemguts/canvasobjectposition 3;
#X obj 183 411 pack f f;
#X obj 224 343 iemguts/canvasindex 2;
#X obj 457 516 iemguts/sendcanvas 2;
#X obj 376 442 s \$0-arrsize;
#X msg 786 413 vis_size \$1 \$2;
#X obj 843 368 - 1;
#X obj 786 390 pack 61 15;
#X obj 786 368 - 1;
#X obj 224 319 loadbang;
#X obj 164 322 t b f b;
#X obj 306 233 -;
#X obj 297 285 moses 1;
#X obj 256 364 r \$0-mypos;
#X obj 256 21 demux 0 1 2 3;
#N canvas 492 180 606 528 protector 0;
#X obj 33 238 -;
#X obj 14 167 t b f f;
#X obj 53 214 s \$0-xlay100;
#X obj 64 109 ctxfiles/lm \$0 x;
#X obj 313 165 -;
#X obj 367 179 t b b b;
#N canvas 599 230 450 321 plusminus 0;
#X obj 141 54 inlet;
#X obj 251 54 inlet;
#X obj 140 137 -;
#X obj 184 182 s \$0-ylay100;
#X obj 251 77 t f f;
#X obj 251 99 + 1;
#X obj 184 159 * -0.5;
#X obj 125 169 /;
#X obj 111 258 /;
#X obj 167 258 /;
#X obj 111 280 outlet;
#X obj 167 280 outlet;
#X obj 141 76 t b b f;
#X obj 94 54 inlet;
#X obj 121 104 t f f f;
#X obj 278 99 + -1;
#X obj 334 55 unpack f f;
#X obj 295 31 t b b a;
#X obj 295 9 receive \$0-:y;
#X connect 0 0 12 0;
#X connect 1 0 4 0;
#X connect 2 0 7 1;
#X connect 4 0 5 0;
#X connect 4 1 15 0;
#X connect 5 0 8 0;
#X connect 6 0 3 0;
#X connect 7 0 8 1;
#X connect 7 0 9 1;
#X connect 8 0 10 0;
#X connect 9 0 11 0;
#X connect 12 0 7 0;
#X connect 12 1 2 0;
#X connect 12 2 2 1;
#X connect 13 0 14 0;
#X connect 14 0 7 0;
#X connect 14 1 2 0;
#X connect 14 2 6 0;
#X connect 15 0 9 0;
#X connect 16 0 5 1;
#X connect 16 1 15 1;
#X connect 17 0 5 0;
#X connect 17 1 15 0;
#X connect 17 2 16 0;
#X connect 18 0 17 0;
#X restore 474 255 pd plusminus;
#X obj 434 220 t b f f;
#X obj 436 268 -;
#X obj 513 134 abs;
#X obj 14 136 inlet x;
#X obj 64 70 inlet l;
#X obj 220 86 inlet r;
#X obj 467 73 inlet top;
#X obj 434 153 inlet y;
#X obj 144 451 outlet;
#X obj 144 360 t b;
#X msg 415 428 resize \$1;
#X obj 386 406 moses 1;
#X msg 386 428 1;
#X obj 415 450 send;
#X obj 313 143 swap 100;
#X obj 53 192 / 100;
#X obj 367 381 t b f f f f;
#X obj 205 198 - 1;
#X obj 144 392 pack 62 30 100 1 -1 0 1;
#X obj 144 428 spigot;
#X msg 198 446 1;
#X obj 162 241 receive \$0-arrayoff;
#X obj 220 120 ctxfiles/lm \$0 x;
#X obj 467 106 ctxfiles/lm \$0 y;
#X obj 144 338 receive \$0-:y;
#X obj 480 406 receive \$0-name;
#X obj 198 424 receive \$0-lb2;
#X obj 162 263 t b f;
#X obj 367 357 receive \$0-size2;
#X connect 0 0 25 0;
#X connect 1 0 25 0;
#X connect 1 1 0 0;
#X connect 1 2 22 0;
#X connect 3 0 0 0;
#X connect 3 1 0 1;
#X connect 3 2 24 0;
#X connect 4 0 25 2;
#X connect 5 0 25 0;
#X connect 5 2 8 0;
#X connect 6 0 25 3;
#X connect 6 1 25 4;
#X connect 7 0 25 0;
#X connect 7 1 8 0;
#X connect 7 2 6 0;
#X connect 8 0 25 1;
#X connect 9 0 8 1;
#X connect 9 0 6 1;
#X connect 10 0 1 0;
#X connect 11 0 3 0;
#X connect 12 0 29 0;
#X connect 13 0 30 0;
#X connect 14 0 7 0;
#X connect 16 0 25 0;
#X connect 17 0 20 0;
#X connect 18 0 19 0;
#X connect 18 1 25 2;
#X connect 19 0 25 2;
#X connect 21 0 4 0;
#X connect 21 1 4 1;
#X connect 22 0 2 0;
#X connect 23 0 25 0;
#X connect 23 1 18 0;
#X connect 23 2 17 0;
#X connect 23 3 21 1;
#X connect 23 4 22 1;
#X connect 24 0 25 5;
#X connect 25 0 26 0;
#X connect 26 0 15 0;
#X connect 27 0 26 1;
#X connect 28 0 34 0;
#X connect 29 0 0 0;
#X connect 29 1 0 1;
#X connect 29 2 21 0;
#X connect 30 0 5 0;
#X connect 30 1 9 0;
#X connect 30 2 6 2;
#X connect 31 0 16 0;
#X connect 32 0 20 1;
#X connect 33 0 27 0;
#X connect 34 0 25 0;
#X connect 34 1 25 6;
#X connect 35 0 23 0;
#X restore 376 328 pd protector;
#X obj 316 76 -;
#X obj 251 165 t f;
#X obj 137 140 t b f;
#X obj 307 199 t f f f;
#X obj 345 234 moses;
#X msg 345 256 0;
#X obj 372 256 -;
#X obj 137 116 ctxfiles/mp;
#X obj 197 293 t b f;
#X obj 562 116 moses;
#X obj 589 139 -;
#X msg 558 138 0;
#X obj 521 363 list split 2;
#X obj 786 344 unpack f f;
#X obj 200 140 t f f f b;
#X obj 234 208 +;
#X obj 371 192 +;
#X obj 589 161 * -1;
#X obj 281 168 t b f;
#X obj 344 169 t f f;
#X obj 281 44 t f f;
#X obj 281 146 ctxfiles/mp;
#X obj 331 44 t f f;
#X obj 316 98 moses 1;
#X obj 524 449 s \$0-pixsize;
#X obj 786 437 s \$0-block;
#X obj 575 55 ctxfiles/dv \$0 r cursorsz;
#X obj 756 113 unpack;
#X obj 756 91 iemguts/canvasposition 2;
#X obj 756 135 t f f;
#X obj 793 135 t f f;
#X obj 793 157 + 30;
#X obj 756 157 + 62;
#X obj 575 77 unpack;
#X obj 256 386 unpack;
#X obj 355 120 t f f f;
#X obj 756 68 receive \$0-lb1;
#X obj 637 262 receive \$0-cnvmorph;
#X msg 376 418 coords \$6 \$4 \$3 \$5 \$1 \$2 \$7 0 0;
#X obj 521 385 t b a a a;
#X msg 417 469 dirty 0;
#X msg 457 493 donecanvasdialog 0 0 2 1 -1 1 1 \$1 \$2 0 3;
#X obj 498 470 receive \$0-dirty;
#X obj 351 494 receive \$0-com;
#X obj 376 351 demux;
#X obj 469 328 receive \$0-reface;
#X text 545 216 xfrom yfrom xto yto xsize ysize GOP xmargin ymargin
;
#X msg 297 397 coords \$6 \$4 \$3 \$5 221 76 \$7 0 0;
#X connect 0 0 16 1;
#X connect 1 0 16 0;
#X connect 3 0 2 0;
#X connect 4 0 2 1;
#X connect 7 0 43 0;
#X connect 8 0 9 1;
#X connect 9 0 7 0;
#X connect 10 0 9 0;
#X connect 11 0 4 0;
#X connect 12 1 3 0;
#X connect 12 2 4 0;
#X connect 13 0 14 0;
#X connect 13 0 33 1;
#X connect 13 0 25 1;
#X connect 14 1 17 0;
#X connect 15 0 52 0;
#X connect 16 0 25 0;
#X connect 16 1 38 0;
#X connect 16 2 21 0;
#X connect 16 3 40 0;
#X connect 17 0 62 0;
#X connect 18 0 41 0;
#X connect 19 0 17 1;
#X connect 20 0 12 0;
#X connect 20 1 17 1;
#X connect 21 0 13 0;
#X connect 21 2 22 0;
#X connect 22 0 23 0;
#X connect 22 1 24 0;
#X connect 23 0 17 2;
#X connect 24 0 17 2;
#X connect 25 0 20 0;
#X connect 25 1 32 0;
#X connect 26 0 3 0;
#X connect 26 1 3 1;
#X connect 27 0 29 0;
#X connect 27 1 28 0;
#X connect 28 0 35 0;
#X connect 29 0 17 4;
#X connect 30 0 57 0;
#X connect 31 0 10 0;
#X connect 31 1 8 0;
#X connect 32 0 12 0;
#X connect 32 1 13 1;
#X connect 32 2 33 0;
#X connect 32 3 19 0;
#X connect 33 0 22 0;
#X connect 34 0 27 0;
#X connect 35 0 17 4;
#X connect 36 0 26 0;
#X connect 36 1 17 4;
#X connect 37 0 26 0;
#X connect 37 1 34 0;
#X connect 38 0 39 0;
#X connect 38 1 18 1;
#X connect 39 0 36 0;
#X connect 39 1 37 0;
#X connect 40 0 18 0;
#X connect 40 1 27 0;
#X connect 41 1 53 0;
#X connect 44 0 51 0;
#X connect 45 0 47 0;
#X connect 45 1 48 0;
#X connect 46 0 45 0;
#X connect 47 0 50 0;
#X connect 47 1 13 1;
#X connect 48 0 49 0;
#X connect 49 0 34 1;
#X connect 50 0 33 1;
#X connect 51 0 22 1;
#X connect 51 0 24 1;
#X connect 51 0 25 2;
#X connect 51 1 27 1;
#X connect 51 1 28 1;
#X connect 51 1 39 2;
#X connect 52 1 3 1;
#X connect 53 0 39 1;
#X connect 53 1 34 1;
#X connect 53 2 17 3;
#X connect 55 0 59 0;
#X connect 55 0 31 0;
#X connect 56 0 6 0;
#X connect 57 0 58 0;
#X connect 57 1 31 0;
#X connect 57 2 42 0;
#X connect 57 3 59 0;
#X connect 58 0 5 0;
#X connect 59 0 5 0;
#X connect 60 0 58 0;
#X connect 61 0 5 0;
#X connect 62 0 56 0;
#X connect 62 0 30 0;
#X connect 62 1 65 0;
#X connect 63 0 62 1;
#X connect 65 0 6 0;
#X restore 23 258 pd c-movement;
#N canvas 444 123 701 411 audio 1;
#N canvas 555 421 536 300 receive 0;
#X obj 225 37 r \$0-dvstart;
#X obj 225 111 iemguts/sendcanvas;
#X obj 225 65 ctxfiles/myinit 4;
#X msg 225 90 obj 0 100 receive~ \$1-myline \, connect 5 0 4 0;
#X obj 82 156 outlet~;
#X connect 0 0 2 0;
#X connect 2 0 3 0;
#X connect 3 0 1 0;
#X restore 54 48 pd receive;
#X obj 53 128 -~;
#X obj 53 150 clip~ 0;
#X obj 530 124 unpack f f f;
#X obj 578 146 * 44100;
#X obj 530 146 * 44100;
#X obj 530 238 /;
#X obj 530 173 -;
#X obj 530 305 /;
#X obj 530 260 route 0;
#X msg 530 283 1 \$1;
#X obj 530 195 * -1;
#X obj 549 351 *;
#X obj 549 374 s \$0-xer;
#X obj 530 327 t f f f;
#X obj 117 137 pack f f;
#X obj 117 159 -;
#X obj 117 203 swap 100;
#X obj 117 225 /;
#X obj 53 172 *~ 1;
#X obj 54 312 s~ \$0-too;
#X obj 81 377 dac~;
#X obj 54 290 tabread4~ c\$0;
#X obj 530 217 t f f;
#X obj 530 102 receive \$0-relpos;
#X obj 135 54 receive \$0-xend;
#X obj 68 102 receive \$0-xstart;
#X obj 142 159 receive \$0-size;
#X obj 13 250 receive \$0-sname;
#X obj 315 128 iemguts/oreceive;
#X obj 315 104 makefilename ~get-%s;
#X obj 315 80 receive \$0-myname;
#X obj 279 58 ctxfiles/dv \$0 r intget;
#X obj 315 152 unpack f f;
#X obj 315 196 -;
#X obj 315 174 * 44.1;
#X obj 342 268 * 1;
#X obj 342 290 tabread c\$0;
#X obj 342 312 send;
#X obj 372 268 makefilename %d-fetch;
#X obj 315 219 moses;
#X obj 342 242 moses;
#X msg 313 268 0;
#X obj 200 88 r gio;
#X msg 200 110 vis 1;
#X obj 200 132 iemguts/sendcanvas;
#X obj 142 181 t b f;
#X obj 54 70 *~ 44.1;
#X obj 554 173 receive \$0-size;
#X obj 89 345 hip~ 100;
#X connect 0 0 47 0;
#X connect 1 0 2 0;
#X connect 2 0 19 0;
#X connect 3 0 5 0;
#X connect 3 1 4 0;
#X connect 4 0 7 1;
#X connect 5 0 7 0;
#X connect 6 0 9 0;
#X connect 7 0 11 0;
#X connect 8 0 14 0;
#X connect 9 1 10 0;
#X connect 10 0 8 0;
#X connect 11 0 23 0;
#X connect 12 0 13 0;
#X connect 14 1 12 0;
#X connect 15 0 16 0;
#X connect 16 0 17 0;
#X connect 17 0 18 0;
#X connect 17 1 18 1;
#X connect 18 0 19 1;
#X connect 18 0 36 1;
#X connect 19 0 22 0;
#X connect 22 0 20 0;
#X connect 22 0 49 0;
#X connect 23 0 6 0;
#X connect 23 1 12 1;
#X connect 24 0 3 0;
#X connect 25 0 15 0;
#X connect 25 0 2 2;
#X connect 25 0 41 1;
#X connect 26 0 1 1;
#X connect 26 0 15 1;
#X connect 26 0 34 1;
#X connect 27 0 46 0;
#X connect 28 0 22 0;
#X connect 28 0 37 0;
#X connect 29 0 33 0;
#X connect 30 0 29 0;
#X connect 31 0 30 0;
#X connect 32 0 33 0;
#X connect 33 0 35 0;
#X connect 33 1 39 0;
#X connect 34 0 40 0;
#X connect 35 0 34 0;
#X connect 36 0 37 0;
#X connect 37 0 38 0;
#X connect 39 0 38 1;
#X connect 40 0 42 0;
#X connect 40 1 41 0;
#X connect 41 0 36 0;
#X connect 41 1 42 0;
#X connect 42 0 38 0;
#X connect 43 0 44 0;
#X connect 44 0 45 0;
#X connect 46 0 17 0;
#X connect 46 1 17 1;
#X connect 47 0 1 0;
#X connect 48 0 6 1;
#X connect 49 0 21 0;
#X connect 49 0 21 1;
#X restore 155 249 pd audio;
#X msg 188 41 normalize \$1;
#X obj 188 63 send;
#N canvas 681 170 450 300 curve 0;
#X obj 209 102 * 2;
#X obj 209 124 pack f 100 s;
#X msg 209 147 arraydialog \$3 \$2 \$1 0;
#X obj 209 169 send;
#X obj 290 56 receive \$0-name;
#X obj 209 80 receive \$0-:ts;
#X obj 243 102 receive \$0-size2;
#X connect 0 0 1 0;
#X connect 1 0 2 0;
#X connect 2 0 3 0;
#X connect 4 0 1 2;
#X connect 4 0 3 1;
#X connect 5 0 0 0;
#X connect 6 0 1 1;
#X restore 210 157 pd curve;
#X obj 23 190 ctxfiles/m-interface \$0 2 62 30;
#X obj 188 19 receive \$0-:n;
#X obj 220 63 receive \$0-name;
#N canvas 617 183 596 471 morph 0;
#X obj 216 66 demux;
#X msg 216 89 1;
#X obj 216 111 t f f f;
#X obj 190 89 t f;
#X obj 216 160 sel 0 1;
#X obj 121 304 list 72 30;
#X obj 235 137 s \$0-cmorphon;
#X obj 214 323 s \$0-face;
#X obj 302 343 sin;
#X msg 302 297 0 \, 1.5708 700;
#X obj 302 320 line 0 50;
#X obj 302 365 t f f;
#X obj 302 398 ctxfiles/sf 72;
#X obj 397 398 ctxfiles/sf 30;
#X obj 121 352 unpack f f;
#X obj 382 226 unpack f f;
#X obj 235 231 del 701;
#X obj 104 223 del 701;
#X obj 302 424 pack f f;
#X obj 302 446 s \$0-cnvmorph;
#X obj 235 206 t b b b f;
#X msg 214 300 2;
#X obj 166 417 s \$0-arrayoff;
#X msg 124 270 1;
#X obj 38 279 s \$0-cmdone;
#X obj 152 24 receive \$0-done;
#X obj 216 44 receive \$0-prop;
#X obj 382 161 receive \$0-pixsize;
#X obj 104 245 t b b b f;
#X msg 121 327 221 200;
#X obj 235 253 t b b b;
#X msg 258 291 1;
#X obj 77 427 s \$0-reface;
#X obj 104 201 t b b b f f f;
#X obj 302 274 s \$0-dirty;
#X connect 0 0 1 0;
#X connect 0 1 3 0;
#X connect 1 0 2 0;
#X connect 2 0 4 0;
#X connect 2 1 6 0;
#X connect 2 2 0 1;
#X connect 3 0 2 0;
#X connect 4 0 33 0;
#X connect 4 1 20 0;
#X connect 5 0 14 0;
#X connect 8 0 11 0;
#X connect 9 0 10 0;
#X connect 10 0 8 0;
#X connect 11 0 12 0;
#X connect 11 1 13 0;
#X connect 12 0 18 0;
#X connect 13 0 18 1;
#X connect 14 0 12 1;
#X connect 14 1 13 1;
#X connect 15 0 12 2;
#X connect 15 1 13 2;
#X connect 16 0 30 0;
#X connect 17 0 28 0;
#X connect 18 0 19 0;
#X connect 20 0 16 0;
#X connect 20 1 9 0;
#X connect 20 2 29 0;
#X connect 20 3 22 0;
#X connect 21 0 7 0;
#X connect 23 0 22 0;
#X connect 25 0 3 0;
#X connect 26 0 0 0;
#X connect 27 0 5 1;
#X connect 27 0 15 0;
#X connect 28 0 24 0;
#X connect 28 1 23 0;
#X connect 29 0 14 0;
#X connect 30 0 21 0;
#X connect 30 1 31 0;
#X connect 30 2 34 0;
#X connect 31 0 32 0;
#X connect 31 0 22 0;
#X connect 33 0 17 0;
#X connect 33 1 9 0;
#X connect 33 2 5 0;
#X connect 33 3 7 0;
#X connect 33 4 32 0;
#X connect 33 5 22 0;
#X restore 221 122 pd morph;
#N canvas 638 125 450 300 open 0;
#X obj 289 107 receive \$0-pixsize;
#X obj 289 129 unpack;
#X obj 111 81 receive \$0-openup;
#X obj 111 103 unpack;
#X connect 0 0 1 0;
#X connect 2 0 3 0;
#X restore 230 94 pd open;
#X text 127 304 name: the actual array name;
#X text 113 318 myname: my tag;
#X text 100 334 tname: number count;
#X text 104 352 sname: the right table to read (prepd by snamep);
#X connect 0 0 1 0;
#X connect 2 0 0 0;
#X connect 5 0 6 0;
#X connect 8 0 3 0;
#X connect 8 1 3 1;
#X connect 9 0 5 0;
#X connect 10 0 6 1;
#X restore 406 71 pd workings;
#X obj 406 126 outlet~;
#X obj 261 27 inlet;
#N canvas 438 206 792 377 message 0;
#X obj 243 87 inlet;
#X obj 243 238 ctxfiles/recompile \$0;
#X obj 270 135 cyclone/zl iter 1;
#X obj 243 109 t b a;
#X text 367 341 l = load x = x length c = colour y = height n = normalize
y = y scale m = mode b = bitrate;
#X obj 270 159 ctxfiles/br route :l " tf1 \$0 ##f " load #l :x1 " tf1
\$0 ##f " :x2 " tf1 \$0 ##f " :c " tf1 \$0 ##f " color #l colour #l
:y " tf1 \$0 ##f " :y1 " tf1 \$0 ##f " :y2 " tf1 \$0 ##f " :n " tf1
\$0 ##f " normalize #l :t " tf1 \$0 ##f " :b " tf1 \$0 ##f " bitrate
#l #n " s \$0-othr ";
#X obj 227 264 ctxfiles/br demux #f t #f " ctxfiles/ll \$0 " #f " s
\$0-:x1 " #f " s \$0-:x2 " #f " s \$0-:c " #f " s \$0-:ys " #f " s
\$0-:y1 " #f " s \$0-:y2 " #f " s \$0-:n " #f " s \$0-:t " #f " s \$0-:br
";
#X connect 0 0 3 0;
#X connect 1 0 6 0;
#X connect 1 1 6 1;
#X connect 2 0 5 0;
#X connect 3 0 1 0;
#X connect 3 1 2 0;
#X restore 261 52 pd message;
#X obj 261 96 iemguts/canvasargs;
#X obj 469 126 outlet;
#X obj 406 100 r~ \$0-too;
#X obj 108 39 iemguts/canvasargs;
#N canvas 706 220 450 351 saving 0;
#X obj 137 304 s \$0-canvasr;
#X obj 137 36 ctxfiles/sv \$0 l bang;
#X obj 137 58 ctxfiles/sv \$0 x1 bang;
#X obj 137 80 ctxfiles/sv \$0 x2 bang;
#X obj 137 146 ctxfiles/sv \$0 c 0;
#X obj 137 168 ctxfiles/sv \$0 y 0 1;
#X obj 327 115 unpack f f;
#X obj 327 159 +;
#X obj 137 190 ctxfiles/sv \$0 n 1;
#X obj 250 285 print save;
#X obj 137 102 ctxfiles/sv \$0 y1 bang;
#X obj 137 124 ctxfiles/sv \$0 y2 bang;
#X obj 137 282 ctxfiles/sp01;
#N canvas 441 243 549 501 arraysave 0;
#X obj 111 56 f;
#X obj 111 78 moses 128;
#X obj 162 103 t b b;
#X obj 189 169 mod 2;
#X obj 189 125 f;
#X obj 189 147 + 1;
#X obj 162 194 demux;
#X msg 189 218 saving large arrays is not recommended. Click again
to save anyway.;
#X obj 189 253 print Content;
#X msg 111 230 1;
#X obj 55 276 demux;
#X obj 45 242 inlet;
#X obj 55 460 outlet;
#X obj 97 196 s \$0-lstr;
#X obj 82 303 t a a;
#X obj 109 327 list length;
#X obj 82 352 list prepend;
#X obj 82 396 list append;
#X obj 38 148 t b f b;
#X obj 97 174 t b b b;
#X obj 184 327 array get c\$0;
#X obj 340 334 t a a;
#X obj 367 357 list length;
#X obj 367 379 s \$0-sizer;
#X obj 279 379 array set c\$0;
#X obj 259 285 receive \$0-name;
#X obj 340 312 receive \$0-myvals;
#X obj 187 34 receive \$0-size;
#X obj 111 14 receive \$0-saveme;
#X obj 38 126 receive \$0-clerame;
#X obj 82 374 list prepend :H;
#X connect 0 0 1 0;
#X connect 1 0 19 0;
#X connect 1 1 2 0;
#X connect 2 0 6 0;
#X connect 2 1 4 0;
#X connect 3 0 6 1;
#X connect 4 0 5 0;
#X connect 5 0 4 1;
#X connect 5 0 3 0;
#X connect 6 0 19 0;
#X connect 6 1 7 0;
#X connect 7 0 8 0;
#X connect 9 0 10 1;
#X connect 10 0 12 0;
#X connect 10 1 14 0;
#X connect 11 0 10 0;
#X connect 14 0 16 0;
#X connect 14 1 15 0;
#X connect 15 0 16 1;
#X connect 16 0 30 0;
#X connect 17 0 12 0;
#X connect 18 0 13 0;
#X connect 18 1 10 1;
#X connect 18 2 17 1;
#X connect 19 0 13 0;
#X connect 19 1 9 0;
#X connect 19 2 20 0;
#X connect 20 0 17 1;
#X connect 21 0 24 0;
#X connect 21 1 22 0;
#X connect 22 0 23 0;
#X connect 25 0 20 2;
#X connect 25 0 24 2;
#X connect 26 0 21 0;
#X connect 27 0 0 1;
#X connect 28 0 0 0;
#X connect 29 0 18 0;
#X connect 30 0 17 0;
#X restore 137 238 pd arraysave;
#X obj 137 14 receive \$0-lstr;
#X obj 212 259 receive \$0-savestart;
#X obj 327 181 sel 2;
#X obj 327 137 == -1;
#X obj 384 137 == 1;
#X obj 137 212 ctxfiles/sv \$0 b 44100;
#X connect 1 0 2 0;
#X connect 2 0 3 0;
#X connect 3 0 10 0;
#X connect 4 0 5 0;
#X connect 5 0 8 0;
#X connect 5 1 6 0;
#X connect 6 0 17 0;
#X connect 6 1 18 0;
#X connect 7 0 16 0;
#X connect 8 0 19 0;
#X connect 10 0 11 0;
#X connect 11 0 4 0;
#X connect 12 0 0 0;
#X connect 13 0 12 0;
#X connect 14 0 1 0;
#X connect 15 0 12 2;
#X connect 16 0 5 2;
#X connect 17 0 7 0;
#X connect 18 0 7 1;
#X connect 19 0 13 0;
#X restore 261 74 pd saving;
#N canvas 497 335 450 372 loadbang 0;
#X obj 180 187 s \$0-lb;
#X obj 196 210 s \$0-canvasr;
#X obj 152 96 ctxfiles/myinit 3;
#X obj 152 71 ctxfiles/dvi \$0 4;
#X obj 152 49 bng 15 250 50 0 empty empty empty 17 7 0 10 -262144 -1
-1;
#X obj 252 309 ctxfiles/dv \$0 s backsplash;
#X obj 237 284 ctxfiles/dv \$0 s cbeep;
#X obj 166 164 s \$0-savestart;
#X obj 166 141 del 1000;
#X obj 223 259 s \$0-lb1;
#X obj 208 236 s \$0-lb2;
#X obj 32 252 ctxfiles/dv \$0 r cbee;
#X obj 32 274 spigot 1;
#X obj 152 119 t f b b b b b b b;
#X obj 32 296 s \$0-created;
#X connect 2 0 13 0;
#X connect 3 0 2 0;
#X connect 4 0 3 0;
#X connect 8 0 7 0;
#X connect 11 0 12 0;
#X connect 12 0 14 0;
#X connect 13 0 12 1;
#X connect 13 1 8 0;
#X connect 13 2 0 0;
#X connect 13 3 1 0;
#X connect 13 4 10 0;
#X connect 13 5 9 0;
#X connect 13 6 6 0;
#X connect 13 7 5 0;
#X restore 491 10 pd loadbang;
#X obj 108 17 r \$0-canvasr;
#X obj 108 61 s \$0-canvass;
#N canvas 373 50 801 512 tabload 0;
#X obj 341 324 soundfiler;
#X obj 7 379 s \$0-block;
#X obj 7 356 ctxfiles/sp 13;
#X obj 341 392 s \$0-sizer;
#X obj 88 333 receive \$0-pixsize;
#X obj 309 31 receive \$0-:l;
#X obj 443 255 receive \$0-name;
#X obj 220 142 receive \$0-tname;
#X obj 282 216 s \$0-myname;
#X obj 341 76 s2l /;
#X obj 341 98 cyclone/zl rev;
#X obj 341 120 unpack s;
#X obj 341 142 s2l .;
#X obj 309 54 t s s;
#X obj 341 164 t a a;
#X obj 373 187 list length;
#X obj 373 209 > 1;
#X obj 309 246 demux;
#X obj 282 192 unpack s;
#X obj 220 164 l2s;
#X obj 7 273 receive \$0-myname;
#X msg 341 370 set \$1;
#X obj 341 277 list append c\$0;
#X msg 341 300 read -resize \$1 \$2;
#X obj 222 286 t s b s;
#X obj 245 314 array size;
#X obj 467 328 symbol;
#X obj 391 254 sel 1;
#X msg 467 350 set \$1;
#X obj 467 372 s \$0-sname;
#X obj 373 231 t f f f;
#X obj 429 231 s \$0-tabmode;
#X obj 341 346 t f f f;
#X obj 364 416 s \$0-size;
#X obj 387 438 s \$0-size2;
#X obj 245 336 t f f b;
#X msg 285 362 15;
#X obj 490 297 receive \$0-snamep;
#X connect 0 0 32 0;
#X connect 2 0 1 0;
#X connect 4 0 2 1;
#X connect 5 0 13 0;
#X connect 6 0 22 1;
#X connect 7 0 19 0;
#X connect 9 0 10 0;
#X connect 10 0 11 0;
#X connect 11 0 12 0;
#X connect 12 0 14 0;
#X connect 13 0 17 0;
#X connect 13 1 9 0;
#X connect 14 0 18 0;
#X connect 14 1 15 0;
#X connect 15 0 16 0;
#X connect 16 0 30 0;
#X connect 17 0 24 0;
#X connect 17 1 22 0;
#X connect 18 0 8 0;
#X connect 19 0 8 0;
#X connect 20 0 2 0;
#X connect 21 0 3 0;
#X connect 22 0 23 0;
#X connect 23 0 0 0;
#X connect 24 0 28 0;
#X connect 24 1 25 0;
#X connect 24 2 25 1;
#X connect 25 0 35 0;
#X connect 26 0 28 0;
#X connect 27 0 26 0;
#X connect 28 0 29 0;
#X connect 30 0 17 1;
#X connect 30 1 27 0;
#X connect 30 2 31 0;
#X connect 32 0 21 0;
#X connect 32 1 33 0;
#X connect 32 2 34 0;
#X connect 35 0 21 0;
#X connect 35 1 33 0;
#X connect 35 2 36 0;
#X connect 36 0 34 0;
#X connect 37 0 26 0;
#X restore 336 173 pd tabload;
#N canvas 785 223 466 381 tablelable 0;
#X msg 239 308 rename \$1;
#X obj 207 284 s \$0-name;
#X obj 160 76 + 1;
#X obj 160 54 v cntnt;
#X obj 192 239 l2s;
#X msg 207 217 symbol;
#X msg 191 145 symbol  ;
#X obj 191 122 until;
#X obj 160 169 list-abs/list-extend;
#X obj 239 354 send;
#X obj 255 330 symbol c\$0;
#X obj 160 191 ctxfiles/sp01;
#X obj 192 261 t s s s s b;
#X obj 160 30 receive \$0-lb1;
#X obj 160 99 t b b f b f f;
#X obj 310 169 s \$0-tname;
#X obj 152 354 s \$0-snamep;
#X connect 0 0 9 0;
#X connect 2 0 14 0;
#X connect 3 0 2 0;
#X connect 4 0 12 0;
#X connect 5 0 4 1;
#X connect 6 0 8 0;
#X connect 7 0 6 0;
#X connect 8 0 11 0;
#X connect 10 0 9 1;
#X connect 11 0 4 0;
#X connect 12 0 16 0;
#X connect 12 1 1 0;
#X connect 12 2 10 1;
#X connect 12 3 0 0;
#X connect 12 4 10 0;
#X connect 13 0 3 0;
#X connect 14 0 8 0;
#X connect 14 1 11 2;
#X connect 14 2 7 0;
#X connect 14 3 5 0;
#X connect 14 4 3 0;
#X connect 14 5 15 0;
#X restore 335 151 pd tablelable;
#N canvas 797 294 450 300 colour 0;
#X obj 161 57 pack f \$0;
#X obj 161 147 s \$0-block;
#X msg 161 125 color \$1 \$4 \$4;
#X obj 161 35 receive \$0-:c;
#X obj 161 79 s colourquery";
#X obj 161 103 receive \$0-primary-col;
#X connect 0 0 4 0;
#X connect 2 0 1 0;
#X connect 3 0 0 0;
#X connect 5 0 2 0;
#X restore 398 29 pd colour;
#X obj 0 3 cnv 2 2 2 empty \$0-block2 empty 7 -10 1 14 -233017 -66577
0;
#X obj 1 4 cnv 3 61 29 empty \$0-block empty 2 3 0 8 -203904 -1 0;
#N canvas 65 93 1280 687 (subpatch) 0;
#X array c\$0 100 float 2;
#X obj 227 250 r \$0-arrsize;
#X obj 227 266 iemguts/sendcanvas;
#N canvas 386 223 293 300 toggle 0;
#X obj 137 107 t f f;
#X obj 164 130 sel 0 1;
#X msg 164 151 1;
#X msg 183 151 0;
#X obj 137 194 outlet;
#X obj 137 85 f 1;
#X obj 137 65 r \$0-vis;
#X msg 137 173 vis \$1;
#X connect 0 0 7 0;
#X connect 0 1 1 0;
#X connect 1 0 2 0;
#X connect 1 1 3 0;
#X connect 1 2 3 0;
#X connect 2 0 5 1;
#X connect 3 0 5 1;
#X connect 5 0 0 0;
#X connect 6 0 5 0;
#X connect 7 0 4 0;
#X restore 227 250 pd toggle;
#X obj 199 222 cnv 15 140 90 empty empty empty 20 12 0 14 -262144 -66577
0;
#X connect 1 0 2 0;
#X connect 3 0 2 0;
#X coords 1 1 100 -1 62 30 1 0 0;
#X restore 0 3 graph;
#N canvas 656 125 450 364 creation 0;
#X obj 150 145 list;
#X obj 123 71 ctxfiles/dv \$0 r cntstrt;
#X obj 123 118 t b b;
#X obj 171 117 demux;
#X msg 276 43 1;
#X obj 123 93 demux;
#X obj 150 170 t a a;
#X obj 177 192 list split 2;
#X obj 90 269 list split 1000;
#X obj 90 307 outlet;
#X obj 133 307 s \$0-myvals;
#X obj 62 244 list split;
#X obj 177 218 list trim;
#X msg 119 221 2;
#X obj 276 21 receive \$0-created;
#X obj 177 244 route :H;
#X obj 171 93 receive \$0-canvass;
#X connect 0 0 6 0;
#X connect 1 0 5 0;
#X connect 2 0 0 1;
#X connect 2 1 0 0;
#X connect 3 0 0 1;
#X connect 3 1 6 0;
#X connect 4 0 3 1;
#X connect 4 0 5 1;
#X connect 5 0 2 0;
#X connect 6 0 11 0;
#X connect 6 1 7 0;
#X connect 7 0 12 0;
#X connect 8 0 9 0;
#X connect 8 1 10 0;
#X connect 8 2 9 0;
#X connect 11 1 8 0;
#X connect 12 0 15 0;
#X connect 13 0 11 1;
#X connect 14 0 4 0;
#X connect 15 0 8 1;
#X connect 15 0 13 0;
#X connect 16 0 3 0;
#X restore 299 27 pd creation;
#N canvas 514 214 667 457 face 0;
#X obj 247 143 nbx 7 14 -1e+37 1e+37 0 0 \$0-:c \$0-:cs colour -38
6 0 10 -262144 -1 -1 0 256;
#X obj 151 164 nbx 5 14 -1e+37 1e+37 0 1 \$0-yy1s \$0-yy1r y-range
-44 7 0 10 -262144 -1 -1 -1 256;
#X obj 209 164 nbx 5 14 -1e+37 1e+37 0 1 \$0-yy2s \$0-yy2r empty 0
-8 0 10 -262144 -1 -1 1 256;
#X obj 142 424 s \$0-:y;
#X obj 199 257 unpack f f;
#X obj 199 279 s \$0-yy1r;
#X obj 256 279 s \$0-yy2r;
#X obj 166 185 nbx 4 14 -1e+37 1e+37 0 1 \$0-:n \$0-:ns normalize -58
6 0 10 -262144 -1 -1 1 256;
#X obj 353 347 t b;
#X symbolatom 176 105 20 0 0 0 file #0-filer #0-:l, f 20;
#X obj 247 125 nbx 7 14 0 1e+37 0 1 \$0-size \$0-sizer size -26 6 0
10 -262144 -1 -1 100 256;
#X obj 300 185 bng 15 250 50 0 \$0-saveme \$0-colorme save_contents
-82 7 0 10 -262144 -1 -1;
#X obj 109 123 bng 38 250 50 0 \$0-done empty DONE 8 19 0 10 -262144
-1 -1;
#X obj 401 201 iemguts/sendcanvas;
#X obj 353 302 iemguts/receivecanvas 2;
#X text 291 256 ctxfiles/menu \$0 :ts :t 40 15 points polygon curve
;
#X floatatom 312 44 11 0 0 0 - - -, f 11;
#X obj 471 124 tgl 15 0 empty empty empty 17 7 0 10 -262144 -1 -1 0
1;
#X obj 175 397 ctxfiles/wt \$0 cmdone cmorphon list;
#X obj 142 372 pack f f;
#X obj 202 349 t b f;
#X obj 300 205 bng 15 250 50 0 \$0-clearme \$0-colorme clear -34 7
0 10 -262144 -1 -1;
#X obj 269 163 ctxfiles/menu \$0 :ts :t   points polygon curve;
#X msg 401 174 coords 0 -1 1 1 221 124 \$1 100 100 \;;
#X obj 199 233 receive \$0-:ys;
#X obj 142 307 receive \$0-yy1s;
#X obj 202 327 receive \$0-yy2s;
#X obj 401 149 receive \$0-face;
#X obj 474 368 route 1;
#X obj 353 369 s \$0-mup;
#X obj 353 325 route mouseup done-popup;
#X obj 474 390 s \$0-openup;
#X obj 130 106 bng 15 250 50 0 \$0-obang \$0-obangr empty 17 7 0 10
-262144 -1 -1;
#X obj 160 205 nbx 7 14 0 1e+37 0 1 \$0-:b \$0-:br bit-rate -52 5 0
10 -262144 -1 -1 44100 256;
#X text 413 88 The y range is in the wrong order;
#X connect 4 0 5 0;
#X connect 4 1 6 0;
#X connect 8 0 29 0;
#X connect 14 0 30 0;
#X connect 17 0 23 0;
#X connect 18 0 3 0;
#X connect 19 0 3 0;
#X connect 20 0 19 0;
#X connect 20 1 19 1;
#X connect 23 0 13 0;
#X connect 24 0 4 0;
#X connect 25 0 19 0;
#X connect 26 0 20 0;
#X connect 27 0 23 0;
#X connect 28 0 31 0;
#X connect 30 0 8 0;
#X connect 30 1 28 0;
#X coords 0 -1 1 1 221 104 0;
#X restore 0 79 pd face;
#X obj 339 206 iemguts/propertybang;
#X obj 339 228 s \$0-prop;
#X connect 0 0 1 0;
#X connect 2 0 0 0;
#X connect 5 0 6 0;
#X connect 9 0 4 0;
#X connect 10 0 14 0;
#X connect 13 0 10 0;
#X connect 21 0 6 0;
#X connect 23 0 24 0;
#X coords 0 -1 1 1 62 30 2 0 3;
