#N canvas 365 251 511 487 10;
#N canvas 424 85 595 687 guts 0;
#X msg 179 74 read ctxfiles/scales.txt;
#X obj 179 99 text define \$0-scales;
#X obj 95 168 route symbol;
#X obj 76 385 ctxfiles/ex01;
#X obj 221 430 ctxfiles/ex01;
#X obj 76 430 text search \$0-scales;
#X obj 76 452 text get \$0-scales;
#X obj 95 617 l2s;
#X obj 61 57 spigot 1;
#X obj 95 146 cyclone/iter;
#X obj 109 705 array set;
#X obj 76 474 t b b a;
#X obj 115 497 cyclone/iter;
#X obj 76 573 ctxfiles/ex01;
#X obj 95 547 ctxfiles/ex01;
#X obj 115 522 route float;
#X obj 221 452 s \$0-numbers;
#X obj 95 124 iemguts/canvasargs 1;
#X obj 95 639 t s s s;
#X obj 151 639 s \$0-name;
#X obj 95 190 t s s;
#X obj 122 215 s2l;
#X msg 137 190 symbol;
#X obj 122 237 list length;
#X obj 95 292 demux;
#X obj 122 261 <= 2;
#X obj 122 313 text search \$0-scales;
#X obj 122 358 unpack s f;
#X obj 296 406 max;
#X obj 122 336 text get \$0-scales;
#X obj 61 87 t b b b b b f b b;
#X obj 19 409 iemguts/canvasdelete 1;
#X obj 95 683 iemguts/sendcanvas 1;
#X msg 95 661 obj 300 300 ctxfiles/share \$1 0 array define \$1 7 \,
loadbang;
#X obj 291 226 ctxfiles/dv \$0 s scalebang;
#X obj 291 202 f \$0;
#X obj 61 34 ctxfiles/myinit 3;
#X obj 61 11 ctxfiles/dvi \$0 4;
#X obj 76 595 list split 1;
#X obj 33 639 s \$0-size;
#X connect 0 0 1 0;
#X connect 2 0 20 0;
#X connect 2 1 28 0;
#X connect 3 0 5 0;
#X connect 4 0 16 0;
#X connect 5 0 6 0;
#X connect 6 0 11 0;
#X connect 7 0 18 0;
#X connect 8 0 30 0;
#X connect 9 0 2 0;
#X connect 11 0 13 0;
#X connect 11 1 14 0;
#X connect 11 2 12 0;
#X connect 12 0 15 0;
#X connect 13 0 38 0;
#X connect 14 0 7 0;
#X connect 15 0 13 1;
#X connect 15 1 14 1;
#X connect 17 0 9 0;
#X connect 18 0 33 0;
#X connect 18 1 10 2;
#X connect 18 2 19 0;
#X connect 20 0 24 0;
#X connect 20 1 21 0;
#X connect 21 0 23 0;
#X connect 22 0 21 1;
#X connect 23 0 25 0;
#X connect 24 0 3 1;
#X connect 24 1 26 0;
#X connect 25 0 24 1;
#X connect 26 0 29 0;
#X connect 27 1 4 1;
#X connect 28 0 4 1;
#X connect 29 0 27 0;
#X connect 30 0 31 0;
#X connect 30 1 3 0;
#X connect 30 2 4 0;
#X connect 30 3 17 0;
#X connect 30 4 0 0;
#X connect 30 5 8 1;
#X connect 30 6 22 0;
#X connect 30 7 35 0;
#X connect 33 0 32 0;
#X connect 35 0 34 0;
#X connect 36 0 8 0;
#X connect 37 0 36 0;
#X connect 38 0 39 0;
#X connect 38 1 10 0;
#X restore 290 182 pd guts;
#X obj 145 161 unpack;
#X obj 145 135 receive \$0-numbers;
#X obj 56 118 - 1;
#X obj 56 195 mod 7;
#X obj 95 195 div 7;
#X obj 95 242 * 12;
#X obj 95 218 +;
#X obj 56 292 +;
#X obj 56 314 +;
#X obj 18 75 inlet;
#X obj 38 455 outlet;
#X msg 183 237 set \$1;
#X obj 56 359 mtof;
#X obj 56 140 t f f f f;
#X obj 117 140 int;
#X obj 102 166 -;
#X obj 56 336 +;
#X obj 251 255 receive \$0-scalebong;
#X obj 56 96 mux;
#X msg 251 277 1;
#X obj 56 381 demux;
#X obj 63 53 receive \$0-scales;
#X obj 83 403 send \$0-scaler;
#X obj 313 68 iemguts/closebang;
#X obj 313 90 f \$0;
#X obj 313 112 ctxfiles/dv \$0 s scaleback;
#X obj 192 158 receive \$0-size;
#X obj 183 215 receive \$0-name;
#X obj 192 189 array size;
#X obj 63 75 t f;
#X obj 56 9 receive allscales##;
#X obj 56 31 unpack f f;
#X obj 56 425 send;
#X obj 113 377 makefilename %d-scaler;
#X obj 56 267 tabread n\$0;
#X obj 263 310 array define n\$0 1;
#X connect 1 0 9 1;
#X connect 1 1 7 1;
#X connect 2 0 1 0;
#X connect 3 0 14 0;
#X connect 4 0 35 0;
#X connect 5 0 7 0;
#X connect 6 0 8 1;
#X connect 7 0 6 0;
#X connect 8 0 9 0;
#X connect 9 0 17 0;
#X connect 10 0 3 0;
#X connect 12 0 35 0;
#X connect 13 0 11 0;
#X connect 13 0 21 0;
#X connect 14 0 4 0;
#X connect 14 1 5 0;
#X connect 14 2 16 0;
#X connect 14 3 15 0;
#X connect 15 0 16 1;
#X connect 16 0 17 1;
#X connect 17 0 13 0;
#X connect 18 0 20 0;
#X connect 19 0 3 0;
#X connect 20 0 19 2;
#X connect 20 0 21 1;
#X connect 21 0 33 0;
#X connect 21 1 23 0;
#X connect 22 0 30 0;
#X connect 24 0 25 0;
#X connect 25 0 26 0;
#X connect 27 0 29 0;
#X connect 27 0 5 1;
#X connect 27 0 4 1;
#X connect 28 0 12 0;
#X connect 28 0 29 1;
#X connect 30 0 19 1;
#X connect 31 0 32 0;
#X connect 32 0 19 0;
#X connect 32 1 34 0;
#X connect 34 0 33 1;
#X connect 35 0 8 0;
